%TF.GenerationSoftware,KiCad,Pcbnew,9.0.2*%
%TF.CreationDate,2025-09-15T18:19:50+05:45*%
%TF.ProjectId,MCU datalogger,4d435520-6461-4746-916c-6f676765722e,rev?*%
%TF.SameCoordinates,Original*%
%TF.FileFunction,Copper,L1,Top*%
%TF.FilePolarity,Positive*%
%FSLAX46Y46*%
G04 Gerber Fmt 4.6, Leading zero omitted, Abs format (unit mm)*
G04 Created by KiCad (PCBNEW 9.0.2) date 2025-09-15 18:19:50*
%MOMM*%
%LPD*%
G01*
G04 APERTURE LIST*
G04 Aperture macros list*
%AMRoundRect*
0 Rectangle with rounded corners*
0 $1 Rounding radius*
0 $2 $3 $4 $5 $6 $7 $8 $9 X,Y pos of 4 corners*
0 Add a 4 corners polygon primitive as box body*
4,1,4,$2,$3,$4,$5,$6,$7,$8,$9,$2,$3,0*
0 Add four circle primitives for the rounded corners*
1,1,$1+$1,$2,$3*
1,1,$1+$1,$4,$5*
1,1,$1+$1,$6,$7*
1,1,$1+$1,$8,$9*
0 Add four rect primitives between the rounded corners*
20,1,$1+$1,$2,$3,$4,$5,0*
20,1,$1+$1,$4,$5,$6,$7,0*
20,1,$1+$1,$6,$7,$8,$9,0*
20,1,$1+$1,$8,$9,$2,$3,0*%
G04 Aperture macros list end*
%TA.AperFunction,SMDPad,CuDef*%
%ADD10RoundRect,0.068750X-0.206250X-0.666250X0.206250X-0.666250X0.206250X0.666250X-0.206250X0.666250X0*%
%TD*%
%TA.AperFunction,SMDPad,CuDef*%
%ADD11RoundRect,0.068750X-0.666250X-0.206250X0.666250X-0.206250X0.666250X0.206250X-0.666250X0.206250X0*%
%TD*%
%TA.AperFunction,SMDPad,CuDef*%
%ADD12RoundRect,0.073750X-0.911250X-0.221250X0.911250X-0.221250X0.911250X0.221250X-0.911250X0.221250X0*%
%TD*%
%TA.AperFunction,SMDPad,CuDef*%
%ADD13RoundRect,0.162500X-0.650000X-0.162500X0.650000X-0.162500X0.650000X0.162500X-0.650000X0.162500X0*%
%TD*%
%TA.AperFunction,ComponentPad*%
%ADD14R,1.700000X1.700000*%
%TD*%
%TA.AperFunction,ComponentPad*%
%ADD15C,1.700000*%
%TD*%
%TA.AperFunction,SMDPad,CuDef*%
%ADD16RoundRect,0.250000X0.250000X0.475000X-0.250000X0.475000X-0.250000X-0.475000X0.250000X-0.475000X0*%
%TD*%
%TA.AperFunction,SMDPad,CuDef*%
%ADD17RoundRect,0.250000X-0.250000X-0.475000X0.250000X-0.475000X0.250000X0.475000X-0.250000X0.475000X0*%
%TD*%
%TA.AperFunction,SMDPad,CuDef*%
%ADD18RoundRect,0.250000X-0.350000X-0.450000X0.350000X-0.450000X0.350000X0.450000X-0.350000X0.450000X0*%
%TD*%
%TA.AperFunction,SMDPad,CuDef*%
%ADD19RoundRect,0.250001X-1.499999X-0.949999X1.499999X-0.949999X1.499999X0.949999X-1.499999X0.949999X0*%
%TD*%
%TA.AperFunction,SMDPad,CuDef*%
%ADD20RoundRect,0.243750X0.243750X0.456250X-0.243750X0.456250X-0.243750X-0.456250X0.243750X-0.456250X0*%
%TD*%
%TA.AperFunction,SMDPad,CuDef*%
%ADD21RoundRect,0.243750X-0.243750X-0.456250X0.243750X-0.456250X0.243750X0.456250X-0.243750X0.456250X0*%
%TD*%
%TA.AperFunction,SMDPad,CuDef*%
%ADD22RoundRect,0.250000X0.350000X0.450000X-0.350000X0.450000X-0.350000X-0.450000X0.350000X-0.450000X0*%
%TD*%
%TA.AperFunction,SMDPad,CuDef*%
%ADD23RoundRect,0.250001X0.949999X-1.499999X0.949999X1.499999X-0.949999X1.499999X-0.949999X-1.499999X0*%
%TD*%
%TA.AperFunction,ViaPad*%
%ADD24C,0.600000*%
%TD*%
%TA.AperFunction,Conductor*%
%ADD25C,0.200000*%
%TD*%
%TA.AperFunction,Conductor*%
%ADD26C,0.350000*%
%TD*%
G04 APERTURE END LIST*
D10*
%TO.P,U3,32,PD2*%
%TO.N,/D2*%
X1962450000Y-2094580000D03*
%TO.P,U3,31,PD1*%
%TO.N,/TX*%
X1963250000Y-2094580000D03*
%TO.P,U3,30,PD0*%
%TO.N,/RX*%
X1964050000Y-2094580000D03*
%TO.P,U3,29,PC6/~{RESET}*%
%TO.N,/RESET*%
X1964850000Y-2094580000D03*
%TO.P,U3,28,PC5*%
%TO.N,/SCK*%
X1965650000Y-2094580000D03*
%TO.P,U3,27,PC4*%
%TO.N,/SDA*%
X1966450000Y-2094580000D03*
%TO.P,U3,26,PC3*%
%TO.N,unconnected-(U3-PC3-Pad26)*%
X1967250000Y-2094580000D03*
%TO.P,U3,25,PC2*%
%TO.N,unconnected-(U3-PC2-Pad25)*%
X1968050000Y-2094580000D03*
D11*
%TO.P,U3,24,PC1*%
%TO.N,unconnected-(U3-PC1-Pad24)*%
X1969420000Y-2095950000D03*
%TO.P,U3,23,PC0*%
%TO.N,unconnected-(U3-PC0-Pad23)*%
X1969420000Y-2096750000D03*
%TO.P,U3,22,ADC7*%
%TO.N,unconnected-(U3-ADC7-Pad22)*%
X1969420000Y-2097550000D03*
%TO.P,U3,21,GND*%
%TO.N,GND*%
X1969420000Y-2098350000D03*
%TO.P,U3,20,AREF*%
%TO.N,Net-(U3-AREF)*%
X1969420000Y-2099150000D03*
%TO.P,U3,19,ADC6*%
%TO.N,unconnected-(U3-ADC6-Pad19)*%
X1969420000Y-2099950000D03*
%TO.P,U3,18,AVCC*%
%TO.N,Net-(BT1-+)*%
X1969420000Y-2100750000D03*
%TO.P,U3,17,PB5*%
%TO.N,/SCK*%
X1969420000Y-2101550000D03*
D10*
%TO.P,U3,16,PB4*%
%TO.N,/MISO*%
X1968050000Y-2102920000D03*
%TO.P,U3,15,PB3*%
%TO.N,/MOSI*%
X1967250000Y-2102920000D03*
%TO.P,U3,14,PB2*%
%TO.N,unconnected-(U3-PB2-Pad14)*%
X1966450000Y-2102920000D03*
%TO.P,U3,13,PB1*%
%TO.N,unconnected-(U3-PB1-Pad13)*%
X1965650000Y-2102920000D03*
%TO.P,U3,12,PB0*%
%TO.N,/D8*%
X1964850000Y-2102920000D03*
%TO.P,U3,11,PD7*%
%TO.N,/D7*%
X1964050000Y-2102920000D03*
%TO.P,U3,10,PD6*%
%TO.N,/D6*%
X1963250000Y-2102920000D03*
%TO.P,U3,9,PD5*%
%TO.N,/D5*%
X1962450000Y-2102920000D03*
D11*
%TO.P,U3,8,PB7*%
%TO.N,Net-(U3-PB7)*%
X1961080000Y-2101550000D03*
%TO.P,U3,7,PB6*%
%TO.N,Net-(U3-PB6)*%
X1961080000Y-2100750000D03*
%TO.P,U3,6,VCC*%
%TO.N,unconnected-(U3-VCC-Pad6)*%
X1961080000Y-2099950000D03*
%TO.P,U3,5,GND*%
%TO.N,GND*%
X1961080000Y-2099150000D03*
%TO.P,U3,4,VCC*%
%TO.N,Net-(BT1-+)*%
X1961080000Y-2098350000D03*
%TO.P,U3,3,GND*%
%TO.N,GND*%
X1961080000Y-2097550000D03*
%TO.P,U3,2,PD4*%
%TO.N,/D4*%
X1961080000Y-2096750000D03*
%TO.P,U3,1,PD3*%
%TO.N,/D3*%
X1961080000Y-2095950000D03*
%TD*%
D12*
%TO.P,U4,1,X1*%
%TO.N,Net-(U4-X1)*%
X1950525000Y-2102095000D03*
%TO.P,U4,2,X2*%
%TO.N,Net-(U4-X2)*%
X1950525000Y-2103365000D03*
%TO.P,U4,3,~{INTA}*%
%TO.N,Net-(U4-~{INTA})*%
X1950525000Y-2104635000D03*
%TO.P,U4,4,GND*%
%TO.N,GND*%
X1950525000Y-2105905000D03*
%TO.P,U4,5,SDA*%
%TO.N,/SDA*%
X1955475000Y-2105905000D03*
%TO.P,U4,6,SCL*%
%TO.N,/SCK*%
X1955475000Y-2104635000D03*
%TO.P,U4,7,SQW/~INT*%
%TO.N,Net-(U4-SQW{slash}~INT)*%
X1955475000Y-2103365000D03*
%TO.P,U4,8,VCC*%
%TO.N,/VCC*%
X1955475000Y-2102095000D03*
%TD*%
D13*
%TO.P,U1,1,A0*%
%TO.N,/VCC*%
X1949162500Y-2087095000D03*
%TO.P,U1,2,A1*%
X1949162500Y-2088365000D03*
%TO.P,U1,3,A2*%
X1949162500Y-2089635000D03*
%TO.P,U1,4,GND*%
%TO.N,GND*%
X1949162500Y-2090905000D03*
%TO.P,U1,5,SDA*%
%TO.N,/SDA*%
X1956337500Y-2090905000D03*
%TO.P,U1,6,SCL*%
%TO.N,/SCK*%
X1956337500Y-2089635000D03*
%TO.P,U1,7,WP*%
%TO.N,GND*%
X1956337500Y-2088365000D03*
%TO.P,U1,8,VCC*%
%TO.N,/VCC*%
X1956337500Y-2087095000D03*
%TD*%
D14*
%TO.P,BT1,1,+*%
%TO.N,Net-(BT1-+)*%
X1945250000Y-2097000000D03*
D15*
%TO.P,BT1,2,-*%
%TO.N,GND*%
X1945250000Y-2094460000D03*
%TD*%
D16*
%TO.P,C4,1*%
%TO.N,Net-(U3-AREF)*%
X1975350000Y-2108200000D03*
%TO.P,C4,2*%
%TO.N,GND*%
X1973450000Y-2108200000D03*
%TD*%
%TO.P,C2,1*%
%TO.N,GND*%
X1979850000Y-2108500000D03*
%TO.P,C2,2*%
%TO.N,Net-(U3-PB6)*%
X1977950000Y-2108500000D03*
%TD*%
D17*
%TO.P,C3,1*%
%TO.N,GND*%
X1963287500Y-2089350000D03*
%TO.P,C3,2*%
%TO.N,Net-(U3-PB7)*%
X1965187500Y-2089350000D03*
%TD*%
D13*
%TO.P,U2,1,A0*%
%TO.N,/VCC*%
X1949362500Y-2094495000D03*
%TO.P,U2,2,A1*%
%TO.N,GND*%
X1949362500Y-2095765000D03*
%TO.P,U2,3,A2*%
%TO.N,/VCC*%
X1949362500Y-2097035000D03*
%TO.P,U2,4,GND*%
%TO.N,GND*%
X1949362500Y-2098305000D03*
%TO.P,U2,5,SDA*%
%TO.N,/SDA*%
X1956537500Y-2098305000D03*
%TO.P,U2,6,SCL*%
%TO.N,/SCK*%
X1956537500Y-2097035000D03*
%TO.P,U2,7,WP*%
%TO.N,GND*%
X1956537500Y-2095765000D03*
%TO.P,U2,8,VCC*%
%TO.N,/VCC*%
X1956537500Y-2094495000D03*
%TD*%
D14*
%TO.P,J1,1,Pin_1*%
%TO.N,/VCC*%
X1987000000Y-2101280000D03*
D15*
%TO.P,J1,2,Pin_2*%
%TO.N,GND*%
X1987000000Y-2103820000D03*
%TO.P,J1,3,Pin_3*%
%TO.N,/SDA*%
X1987000000Y-2106360000D03*
%TO.P,J1,4,Pin_4*%
%TO.N,/SCK*%
X1987000000Y-2108900000D03*
%TD*%
D18*
%TO.P,R3,1*%
%TO.N,/VCC*%
X1973450000Y-2104200000D03*
%TO.P,R3,2*%
%TO.N,/SCK*%
X1975450000Y-2104200000D03*
%TD*%
%TO.P,R4,1*%
%TO.N,/VCC*%
X1973450000Y-2099200000D03*
%TO.P,R4,2*%
%TO.N,/SDA*%
X1975450000Y-2099200000D03*
%TD*%
D19*
%TO.P,Y2,1,1*%
%TO.N,Net-(U3-PB7)*%
X1962500000Y-2108250000D03*
%TO.P,Y2,2,2*%
%TO.N,Net-(U3-PB6)*%
X1967700000Y-2108250000D03*
%TD*%
D18*
%TO.P,R7,1*%
%TO.N,Net-(D2-K)*%
X1973450000Y-2094400000D03*
%TO.P,R7,2*%
%TO.N,GND*%
X1975450000Y-2094400000D03*
%TD*%
D20*
%TO.P,D1,1,K*%
%TO.N,GND*%
X1980175000Y-2089400000D03*
%TO.P,D1,2,A*%
%TO.N,Net-(D1-A)*%
X1978300000Y-2089400000D03*
%TD*%
D14*
%TO.P,J3,1,Pin_1*%
%TO.N,/D2*%
X1948420000Y-2114250000D03*
D15*
%TO.P,J3,2,Pin_2*%
%TO.N,/D3*%
X1950960000Y-2114250000D03*
%TO.P,J3,3,Pin_3*%
%TO.N,/D4*%
X1953500000Y-2114250000D03*
%TO.P,J3,4,Pin_4*%
%TO.N,/D5*%
X1956040000Y-2114250000D03*
%TO.P,J3,5,Pin_5*%
%TO.N,/D6*%
X1958580000Y-2114250000D03*
%TO.P,J3,6,Pin_6*%
%TO.N,/D7*%
X1961120000Y-2114250000D03*
%TO.P,J3,7,Pin_7*%
%TO.N,/D8*%
X1963660000Y-2114250000D03*
%TO.P,J3,8,Pin_8*%
%TO.N,GND*%
X1966200000Y-2114250000D03*
%TO.P,J3,9,Pin_9*%
%TO.N,/VCC*%
X1968740000Y-2114250000D03*
%TD*%
D18*
%TO.P,R2,1*%
%TO.N,/VCC*%
X1954400000Y-2109600000D03*
%TO.P,R2,2*%
%TO.N,Net-(U4-SQW{slash}~INT)*%
X1956400000Y-2109600000D03*
%TD*%
D21*
%TO.P,D2,1,K*%
%TO.N,Net-(D2-K)*%
X1973325000Y-2089400000D03*
%TO.P,D2,2,A*%
%TO.N,Net-(BT1-+)*%
X1975200000Y-2089400000D03*
%TD*%
D16*
%TO.P,C5,1*%
%TO.N,Net-(BT1-+)*%
X1970187500Y-2089350000D03*
%TO.P,C5,2*%
%TO.N,GND*%
X1968287500Y-2089350000D03*
%TD*%
D14*
%TO.P,J4,1,Pin_1*%
%TO.N,/MISO*%
X1984500000Y-2091800000D03*
D15*
%TO.P,J4,2,Pin_2*%
%TO.N,GND*%
X1987040000Y-2091800000D03*
%TO.P,J4,3,Pin_3*%
%TO.N,/SCK*%
X1984500000Y-2094340000D03*
%TO.P,J4,4,Pin_4*%
%TO.N,/MOSI*%
X1987040000Y-2094340000D03*
%TO.P,J4,5,Pin_5*%
%TO.N,/RESET*%
X1984500000Y-2096880000D03*
%TO.P,J4,6,Pin_6*%
%TO.N,/VCC*%
X1987040000Y-2096880000D03*
%TD*%
D18*
%TO.P,R6,1*%
%TO.N,/VCC*%
X1978250000Y-2099000000D03*
%TO.P,R6,2*%
%TO.N,/RESET*%
X1980250000Y-2099000000D03*
%TD*%
D14*
%TO.P,J2,1,Pin_1*%
%TO.N,/VCC*%
X1975000000Y-2114250000D03*
D15*
%TO.P,J2,2,Pin_2*%
%TO.N,GND*%
X1977540000Y-2114250000D03*
%TO.P,J2,3,Pin_3*%
%TO.N,/RX*%
X1980080000Y-2114250000D03*
%TO.P,J2,4,Pin_4*%
%TO.N,/TX*%
X1982620000Y-2114250000D03*
%TD*%
D18*
%TO.P,R5,1*%
%TO.N,Net-(D1-A)*%
X1978250000Y-2095000000D03*
%TO.P,R5,2*%
%TO.N,/SCK*%
X1980250000Y-2095000000D03*
%TD*%
D22*
%TO.P,R1,1*%
%TO.N,/VCC*%
X1951600000Y-2109600000D03*
%TO.P,R1,2*%
%TO.N,Net-(U4-~{INTA})*%
X1949600000Y-2109600000D03*
%TD*%
D23*
%TO.P,Y1,1,1*%
%TO.N,Net-(U4-X2)*%
X1944750000Y-2107750000D03*
%TO.P,Y1,2,2*%
%TO.N,Net-(U4-X1)*%
X1944750000Y-2102550000D03*
%TD*%
D17*
%TO.P,C1,1*%
%TO.N,/VCC*%
X1958687500Y-2089350000D03*
%TO.P,C1,2*%
%TO.N,GND*%
X1960587500Y-2089350000D03*
%TD*%
D24*
%TO.N,GND*%
X1975000000Y-2112250000D03*
%TO.N,Net-(BT1-+)*%
X1946250000Y-2099500000D03*
X1959750000Y-2099500000D03*
%TO.N,GND*%
X1972250000Y-2107750000D03*
X1952500000Y-2095765000D03*
%TO.N,/SDA*%
X1975000000Y-2101750000D03*
X1978250000Y-2102250000D03*
%TO.N,/MISO*%
X1985000000Y-2089250000D03*
X1989250000Y-2090750000D03*
X1971750000Y-2111500000D03*
%TO.N,GND*%
X1967250000Y-2111500000D03*
X1963500000Y-2100250000D03*
%TO.N,Net-(BT1-+)*%
X1967000000Y-2092500000D03*
X1967500000Y-2099500000D03*
%TO.N,/MISO*%
X1969500000Y-2104750000D03*
%TO.N,*%
X1973750000Y-2102500000D03*
%TO.N,/SCK*%
X1979750000Y-2092750000D03*
X1971000000Y-2094000000D03*
%TO.N,GND*%
X1981750000Y-2108500000D03*
%TO.N,/VCC*%
X1979000000Y-2101000000D03*
%TO.N,/RESET*%
X1979500000Y-2097250000D03*
X1967750000Y-2096750000D03*
%TO.N,Net-(U3-AREF)*%
X1971000000Y-2103750000D03*
X1970750000Y-2099250000D03*
%TO.N,/VCC*%
X1972000000Y-2100250000D03*
X1972000000Y-2103000000D03*
%TO.N,/RX*%
X1966250000Y-2096750000D03*
%TO.N,/TX*%
X1963250000Y-2096750000D03*
%TO.N,Net-(U3-PB7)*%
X1965750000Y-2091500000D03*
X1959750000Y-2105000000D03*
X1962750000Y-2105500000D03*
%TO.N,/SCK*%
X1963750000Y-2093000000D03*
X1957750000Y-2093250000D03*
%TO.N,GND*%
X1960500000Y-2091250000D03*
X1964750000Y-2097750000D03*
%TO.N,/VCC*%
X1953000000Y-2108000000D03*
%TO.N,GND*%
X1955000000Y-2100250000D03*
%TO.N,/VCC*%
X1958500000Y-2091250000D03*
X1956500000Y-2093250000D03*
%TO.N,Net-(U3-PB6)*%
X1966750000Y-2105000000D03*
X1962750000Y-2101000000D03*
%TD*%
D25*
%TO.N,/MOSI*%
X1990000000Y-2096000000D02*
X1988340000Y-2094340000D01*
X1990000000Y-2110250000D02*
X1990000000Y-2096000000D01*
X1989500000Y-2110750000D02*
X1990000000Y-2110250000D01*
X1985250000Y-2110750000D02*
X1989500000Y-2110750000D01*
X1981750000Y-2107250000D02*
X1985250000Y-2110750000D01*
X1988340000Y-2094340000D02*
X1987040000Y-2094340000D01*
X1976500000Y-2109000000D02*
X1976500000Y-2107500000D01*
X1975750000Y-2109750000D02*
X1976500000Y-2109000000D01*
X1976500000Y-2107500000D02*
X1976750000Y-2107250000D01*
X1976750000Y-2107250000D02*
X1981750000Y-2107250000D01*
X1970250000Y-2109750000D02*
X1975750000Y-2109750000D01*
X1970250000Y-2107500000D02*
X1970250000Y-2109750000D01*
X1967250000Y-2104500000D02*
X1970250000Y-2107500000D01*
X1967250000Y-2102920000D02*
X1967250000Y-2104500000D01*
%TO.N,/SCK*%
X1977250000Y-2104200000D02*
X1979450000Y-2104200000D01*
X1977000000Y-2103950000D02*
X1977250000Y-2104200000D01*
X1977000000Y-2103950000D02*
X1976750000Y-2104200000D01*
X1977000000Y-2098250000D02*
X1977000000Y-2103950000D01*
X1980250000Y-2095000000D02*
X1977000000Y-2098250000D01*
X1976750000Y-2104200000D02*
X1977250000Y-2104200000D01*
X1971250000Y-2094250000D02*
X1971000000Y-2094000000D01*
X1974467157Y-2097717157D02*
X1974000000Y-2097250000D01*
X1974467157Y-2099907843D02*
X1974467157Y-2097717157D01*
X1973000000Y-2097250000D02*
X1971250000Y-2095500000D01*
X1971250000Y-2095500000D02*
X1971250000Y-2094250000D01*
X1972812500Y-2101562500D02*
X1974467157Y-2099907843D01*
X1972800000Y-2101550000D02*
X1972812500Y-2101562500D01*
X1969420000Y-2101550000D02*
X1972800000Y-2101550000D01*
X1974000000Y-2097250000D02*
X1973000000Y-2097250000D01*
D26*
%TO.N,GND*%
X1977540000Y-2113290000D02*
X1976500000Y-2112250000D01*
X1977540000Y-2114250000D02*
X1977540000Y-2113290000D01*
X1976500000Y-2112250000D02*
X1975000000Y-2112250000D01*
D25*
%TO.N,/MISO*%
X1971750000Y-2111500000D02*
X1989750000Y-2111500000D01*
D26*
%TO.N,GND*%
X1962400000Y-2099150000D02*
X1963500000Y-2100250000D01*
X1961080000Y-2099150000D02*
X1962400000Y-2099150000D01*
X1961080000Y-2097550000D02*
X1963225000Y-2097550000D01*
X1967600000Y-2098350000D02*
X1969420000Y-2098350000D01*
D25*
%TO.N,Net-(BT1-+)*%
X1962275000Y-2098350000D02*
X1961080000Y-2098350000D01*
%TO.N,Net-(U3-AREF)*%
X1970650000Y-2099150000D02*
X1969420000Y-2099150000D01*
X1970750000Y-2099250000D02*
X1970650000Y-2099150000D01*
%TO.N,/SDA*%
X1966450000Y-2093450000D02*
X1965250000Y-2092250000D01*
X1965250000Y-2092250000D02*
X1958500000Y-2092250000D01*
X1966450000Y-2093800000D02*
X1966450000Y-2093450000D01*
%TO.N,Net-(BT1-+)*%
X1962275000Y-2098350000D02*
X1962425000Y-2098500000D01*
D26*
%TO.N,GND*%
X1963250000Y-2097525000D02*
X1963225000Y-2097550000D01*
X1963475000Y-2097750000D02*
X1963250000Y-2097525000D01*
X1964750000Y-2097750000D02*
X1963475000Y-2097750000D01*
X1976750000Y-2116250000D02*
X1968200000Y-2116250000D01*
X1968200000Y-2116250000D02*
X1966200000Y-2114250000D01*
X1977540000Y-2115460000D02*
X1976750000Y-2116250000D01*
X1977540000Y-2114250000D02*
X1977540000Y-2115460000D01*
D25*
%TO.N,/D8*%
X1964850000Y-2104850000D02*
X1964850000Y-2102920000D01*
X1965250000Y-2105250000D02*
X1964850000Y-2104850000D01*
%TO.N,/D7*%
X1964000000Y-2102970000D02*
X1964050000Y-2102920000D01*
X1964000000Y-2106250000D02*
X1964000000Y-2102970000D01*
X1964750000Y-2107000000D02*
X1964000000Y-2106250000D01*
%TO.N,/D6*%
X1963250000Y-2104000000D02*
X1963250000Y-2102920000D01*
X1962930000Y-2104320000D02*
X1963250000Y-2104000000D01*
%TO.N,Net-(BT1-+)*%
X1959750000Y-2098750000D02*
X1959750000Y-2099500000D01*
X1960150000Y-2098350000D02*
X1959750000Y-2098750000D01*
X1961080000Y-2098350000D02*
X1960150000Y-2098350000D01*
D26*
%TO.N,GND*%
X1973000000Y-2107750000D02*
X1972250000Y-2107750000D01*
X1973450000Y-2108200000D02*
X1973000000Y-2107750000D01*
X1952500000Y-2095765000D02*
X1956537500Y-2095765000D01*
D25*
%TO.N,/SDA*%
X1975000000Y-2099650000D02*
X1975000000Y-2101750000D01*
X1975450000Y-2099200000D02*
X1975000000Y-2099650000D01*
X1978500000Y-2102250000D02*
X1978250000Y-2102250000D01*
X1982610000Y-2106360000D02*
X1978500000Y-2102250000D01*
%TO.N,/RESET*%
X1965000000Y-2095750000D02*
X1966750000Y-2095750000D01*
X1966750000Y-2095750000D02*
X1967750000Y-2096750000D01*
%TO.N,/MISO*%
X1984500000Y-2089750000D02*
X1985000000Y-2089250000D01*
X1984500000Y-2091800000D02*
X1984500000Y-2089750000D01*
X1990500000Y-2110750000D02*
X1990500000Y-2092000000D01*
X1989750000Y-2111500000D02*
X1990500000Y-2110750000D01*
X1990500000Y-2092000000D02*
X1989250000Y-2090750000D01*
D26*
%TO.N,GND*%
X1966200000Y-2114250000D02*
X1966200000Y-2112550000D01*
X1966200000Y-2112550000D02*
X1967250000Y-2111500000D01*
D25*
%TO.N,Net-(BT1-+)*%
X1970150000Y-2089350000D02*
X1970187500Y-2089350000D01*
X1967000000Y-2092500000D02*
X1970150000Y-2089350000D01*
X1967500000Y-2099500000D02*
X1968750000Y-2100750000D01*
X1967000000Y-2099000000D02*
X1967500000Y-2099500000D01*
X1966500000Y-2099000000D02*
X1967000000Y-2099000000D01*
X1966000000Y-2098500000D02*
X1966500000Y-2099000000D01*
X1962425000Y-2098500000D02*
X1966000000Y-2098500000D01*
X1968750000Y-2100750000D02*
X1969420000Y-2100750000D01*
D26*
%TO.N,/VCC*%
X1979000000Y-2101000000D02*
X1986720000Y-2101000000D01*
X1986720000Y-2101000000D02*
X1987000000Y-2101280000D01*
D25*
%TO.N,/MISO*%
X1968050000Y-2103300000D02*
X1969500000Y-2104750000D01*
X1968050000Y-2102920000D02*
X1968050000Y-2103300000D01*
%TO.N,/SCK*%
X1980250000Y-2094250000D02*
X1980340000Y-2094340000D01*
X1980340000Y-2094340000D02*
X1984500000Y-2094340000D01*
X1980250000Y-2094250000D02*
X1980250000Y-2093250000D01*
%TO.N,/RESET*%
X1982380000Y-2099000000D02*
X1984500000Y-2096880000D01*
X1980250000Y-2099000000D02*
X1982380000Y-2099000000D01*
D26*
%TO.N,/VCC*%
X1987000000Y-2096920000D02*
X1987040000Y-2096880000D01*
X1987000000Y-2101280000D02*
X1987000000Y-2096920000D01*
D25*
%TO.N,/SCK*%
X1976000000Y-2104200000D02*
X1976750000Y-2104200000D01*
X1980250000Y-2093250000D02*
X1979750000Y-2092750000D01*
X1980250000Y-2095000000D02*
X1980250000Y-2094250000D01*
X1980910000Y-2094340000D02*
X1980250000Y-2095000000D01*
X1964934314Y-2093250000D02*
X1964750000Y-2093250000D01*
X1965467157Y-2093782843D02*
X1964934314Y-2093250000D01*
X1965467157Y-2094397157D02*
X1965467157Y-2093782843D01*
%TO.N,/SDA*%
X1974000000Y-2096250000D02*
X1975450000Y-2097700000D01*
X1975450000Y-2097700000D02*
X1975450000Y-2099200000D01*
X1972000000Y-2095500000D02*
X1972750000Y-2096250000D01*
X1967000000Y-2093250000D02*
X1972000000Y-2093250000D01*
X1966450000Y-2093800000D02*
X1967000000Y-2093250000D01*
X1972000000Y-2093250000D02*
X1972000000Y-2095500000D01*
X1966450000Y-2094580000D02*
X1966450000Y-2093800000D01*
X1972750000Y-2096250000D02*
X1974000000Y-2096250000D01*
%TO.N,Net-(U3-PB6)*%
X1977250000Y-2110750000D02*
X1977950000Y-2110050000D01*
X1967750000Y-2110750000D02*
X1977250000Y-2110750000D01*
X1967500000Y-2110500000D02*
X1967750000Y-2110750000D01*
X1967500000Y-2108450000D02*
X1967500000Y-2110500000D01*
X1967700000Y-2108250000D02*
X1967500000Y-2108450000D01*
X1977950000Y-2110050000D02*
X1977950000Y-2108500000D01*
D26*
%TO.N,GND*%
X1979850000Y-2108500000D02*
X1981750000Y-2108500000D01*
D25*
%TO.N,/SCK*%
X1979450000Y-2104200000D02*
X1982500000Y-2107250000D01*
X1985350000Y-2107250000D02*
X1987000000Y-2108900000D01*
X1975450000Y-2104200000D02*
X1976000000Y-2104200000D01*
X1982500000Y-2107250000D02*
X1985350000Y-2107250000D01*
%TO.N,/SDA*%
X1982610000Y-2106360000D02*
X1987000000Y-2106360000D01*
D26*
%TO.N,/VCC*%
X1978250000Y-2100250000D02*
X1979000000Y-2101000000D01*
X1978250000Y-2099000000D02*
X1978250000Y-2100250000D01*
D25*
%TO.N,/RESET*%
X1979750000Y-2097250000D02*
X1979500000Y-2097250000D01*
X1980250000Y-2097750000D02*
X1979750000Y-2097250000D01*
X1980250000Y-2099000000D02*
X1980250000Y-2097750000D01*
X1964850000Y-2095600000D02*
X1965000000Y-2095750000D01*
X1964850000Y-2094580000D02*
X1964850000Y-2095600000D01*
%TO.N,Net-(U3-AREF)*%
X1975350000Y-2108100000D02*
X1971000000Y-2103750000D01*
X1975350000Y-2108200000D02*
X1975350000Y-2108100000D01*
D26*
%TO.N,/VCC*%
X1973200000Y-2104200000D02*
X1972000000Y-2103000000D01*
X1973450000Y-2104200000D02*
X1973200000Y-2104200000D01*
X1972400000Y-2100250000D02*
X1972000000Y-2100250000D01*
X1973450000Y-2099200000D02*
X1972400000Y-2100250000D01*
D25*
%TO.N,/RX*%
X1965000000Y-2096750000D02*
X1966250000Y-2096750000D01*
X1964050000Y-2095800000D02*
X1965000000Y-2096750000D01*
X1964050000Y-2094580000D02*
X1964050000Y-2095800000D01*
%TO.N,/TX*%
X1963250000Y-2094580000D02*
X1963250000Y-2096750000D01*
%TO.N,Net-(U3-PB7)*%
X1965187500Y-2090937500D02*
X1965750000Y-2091500000D01*
X1965187500Y-2089350000D02*
X1965187500Y-2090937500D01*
%TO.N,/D7*%
X1964750000Y-2110620000D02*
X1961120000Y-2114250000D01*
%TO.N,Net-(U3-PB7)*%
X1962500000Y-2105750000D02*
X1962750000Y-2105500000D01*
X1962500000Y-2108250000D02*
X1962500000Y-2105750000D01*
%TO.N,/D6*%
X1962680000Y-2104320000D02*
X1962930000Y-2104320000D01*
X1960250000Y-2111000000D02*
X1960250000Y-2106750000D01*
X1960250000Y-2106750000D02*
X1962680000Y-2104320000D01*
X1959750000Y-2111500000D02*
X1960250000Y-2111000000D01*
X1959750000Y-2113080000D02*
X1959750000Y-2111500000D01*
%TO.N,/D5*%
X1959500000Y-2106750000D02*
X1959500000Y-2111000000D01*
X1959500000Y-2111000000D02*
X1956250000Y-2114250000D01*
X1961250000Y-2105000000D02*
X1959500000Y-2106750000D01*
X1961830000Y-2102920000D02*
X1961250000Y-2103500000D01*
X1961250000Y-2103500000D02*
X1961250000Y-2105000000D01*
X1962130000Y-2102920000D02*
X1961830000Y-2102920000D01*
X1956250000Y-2114250000D02*
X1956040000Y-2114250000D01*
%TO.N,/D4*%
X1960250000Y-2096750000D02*
X1961080000Y-2096750000D01*
X1959945000Y-2097055000D02*
X1960250000Y-2096750000D01*
X1959945000Y-2097250000D02*
X1959945000Y-2097055000D01*
X1959000000Y-2098195000D02*
X1959945000Y-2097250000D01*
X1959000000Y-2110750000D02*
X1959000000Y-2098195000D01*
X1957750000Y-2112000000D02*
X1959000000Y-2110750000D01*
X1954000000Y-2112000000D02*
X1957750000Y-2112000000D01*
X1953500000Y-2112500000D02*
X1954000000Y-2112000000D01*
X1953500000Y-2114250000D02*
X1953500000Y-2112500000D01*
%TO.N,/D3*%
X1950960000Y-2113040000D02*
X1950960000Y-2114250000D01*
X1952500000Y-2111500000D02*
X1950960000Y-2113040000D01*
X1958500000Y-2110500000D02*
X1957500000Y-2111500000D01*
X1958500000Y-2098125000D02*
X1958500000Y-2110500000D01*
X1959500000Y-2097125000D02*
X1958500000Y-2098125000D01*
X1959500000Y-2096250000D02*
X1959500000Y-2097125000D01*
X1959800000Y-2095950000D02*
X1959500000Y-2096250000D01*
X1960760000Y-2095950000D02*
X1959800000Y-2095950000D01*
%TO.N,/D2*%
X1962050000Y-2094500000D02*
X1962130000Y-2094580000D01*
X1959750000Y-2094500000D02*
X1962050000Y-2094500000D01*
X1959000000Y-2095250000D02*
X1959750000Y-2094500000D01*
X1959000000Y-2097000000D02*
X1959000000Y-2095250000D01*
X1958000000Y-2110250000D02*
X1958000000Y-2098000000D01*
X1958000000Y-2098000000D02*
X1959000000Y-2097000000D01*
X1957250000Y-2111000000D02*
X1958000000Y-2110250000D01*
X1951500000Y-2111000000D02*
X1957250000Y-2111000000D01*
X1948420000Y-2114080000D02*
X1951500000Y-2111000000D01*
X1948420000Y-2114250000D02*
X1948420000Y-2114080000D01*
%TO.N,/SDA*%
X1956945000Y-2098305000D02*
X1956537500Y-2098305000D01*
X1958500000Y-2096750000D02*
X1956945000Y-2098305000D01*
X1958500000Y-2092250000D02*
X1958500000Y-2096750000D01*
%TO.N,Net-(U3-PB7)*%
X1960760000Y-2101550000D02*
X1959750000Y-2102560000D01*
%TO.N,/D5*%
X1956040000Y-2114250000D02*
X1956500000Y-2114250000D01*
%TO.N,/SCK*%
X1964500000Y-2093000000D02*
X1964750000Y-2093250000D01*
X1963750000Y-2093000000D02*
X1964500000Y-2093000000D01*
X1957750000Y-2093250000D02*
X1957750000Y-2092500000D01*
D26*
%TO.N,GND*%
X1960587500Y-2091162500D02*
X1960500000Y-2091250000D01*
X1960587500Y-2089350000D02*
X1960587500Y-2091162500D01*
%TO.N,/VCC*%
X1968740000Y-2114250000D02*
X1975000000Y-2114250000D01*
D25*
%TO.N,Net-(BT1-+)*%
X1946125000Y-2099375000D02*
X1946250000Y-2099500000D01*
X1945250000Y-2098500000D02*
X1946125000Y-2099375000D01*
X1945250000Y-2097000000D02*
X1945250000Y-2098500000D01*
D26*
%TO.N,GND*%
X1964750000Y-2097750000D02*
X1967000000Y-2097750000D01*
%TO.N,/VCC*%
X1953000000Y-2108000000D02*
X1953000000Y-2108200000D01*
%TO.N,GND*%
X1952250000Y-2105500000D02*
X1951750000Y-2106000000D01*
X1952250000Y-2101250000D02*
X1952250000Y-2105500000D01*
X1951250000Y-2098750000D02*
X1951250000Y-2100250000D01*
X1951250000Y-2100250000D02*
X1952250000Y-2101250000D01*
X1951750000Y-2106000000D02*
X1950620000Y-2106000000D01*
X1950620000Y-2106000000D02*
X1950525000Y-2105905000D01*
X1950805000Y-2098305000D02*
X1951250000Y-2098750000D01*
X1949362500Y-2098305000D02*
X1950805000Y-2098305000D01*
X1954250000Y-2099500000D02*
X1955000000Y-2100250000D01*
X1954250000Y-2099250000D02*
X1954250000Y-2099500000D01*
X1955485000Y-2095765000D02*
X1954250000Y-2097000000D01*
X1956537500Y-2095765000D02*
X1955485000Y-2095765000D01*
X1954250000Y-2097000000D02*
X1954250000Y-2099250000D01*
%TO.N,/VCC*%
X1952500000Y-2099120000D02*
X1955475000Y-2102095000D01*
X1952500000Y-2098250000D02*
X1952500000Y-2099120000D01*
X1951285000Y-2097035000D02*
X1952500000Y-2098250000D01*
X1949362500Y-2097035000D02*
X1951285000Y-2097035000D01*
X1958500000Y-2089162500D02*
X1958687500Y-2089350000D01*
X1958500000Y-2087500000D02*
X1958500000Y-2089162500D01*
X1956432500Y-2087000000D02*
X1956337500Y-2087095000D01*
X1958500000Y-2087500000D02*
X1958000000Y-2087000000D01*
X1958500000Y-2091250000D02*
X1958687500Y-2091062500D01*
X1958000000Y-2087000000D02*
X1956432500Y-2087000000D01*
X1958687500Y-2091062500D02*
X1958687500Y-2089350000D01*
%TO.N,GND*%
X1960587500Y-2087337500D02*
X1960587500Y-2089350000D01*
X1954500000Y-2086500000D02*
X1955000000Y-2086000000D01*
X1954500000Y-2087750000D02*
X1954500000Y-2086500000D01*
X1959250000Y-2086000000D02*
X1960587500Y-2087337500D01*
X1955115000Y-2088365000D02*
X1954500000Y-2087750000D01*
X1955000000Y-2086000000D02*
X1959250000Y-2086000000D01*
X1956337500Y-2088365000D02*
X1955115000Y-2088365000D01*
%TO.N,/VCC*%
X1956537500Y-2093287500D02*
X1956500000Y-2093250000D01*
X1956537500Y-2094495000D02*
X1956537500Y-2093287500D01*
%TO.N,GND*%
X1949362500Y-2095765000D02*
X1952500000Y-2095765000D01*
D25*
%TO.N,/D8*%
X1965250000Y-2112660000D02*
X1965250000Y-2105250000D01*
X1963660000Y-2114250000D02*
X1965250000Y-2112660000D01*
%TO.N,/D7*%
X1964750000Y-2107000000D02*
X1964750000Y-2110620000D01*
%TO.N,/D6*%
X1959750000Y-2113080000D02*
X1958580000Y-2114250000D01*
%TO.N,Net-(U3-PB6)*%
X1967700000Y-2105950000D02*
X1966750000Y-2105000000D01*
X1967700000Y-2108250000D02*
X1967700000Y-2105950000D01*
X1962500000Y-2100750000D02*
X1962750000Y-2101000000D01*
X1960760000Y-2100750000D02*
X1962500000Y-2100750000D01*
%TO.N,/VCC*%
X1955250000Y-2101870000D02*
X1955475000Y-2102095000D01*
D26*
%TO.N,GND*%
X1967000000Y-2097750000D02*
X1967600000Y-2098350000D01*
D25*
%TO.N,Net-(D2-K)*%
X1973325000Y-2094275000D02*
X1973450000Y-2094400000D01*
X1973325000Y-2089400000D02*
X1973325000Y-2094275000D01*
D26*
%TO.N,GND*%
X1985750000Y-2087750000D02*
X1979500000Y-2087750000D01*
X1987040000Y-2089040000D02*
X1985750000Y-2087750000D01*
X1987040000Y-2091800000D02*
X1987040000Y-2089040000D01*
X1980175000Y-2089400000D02*
X1980175000Y-2088425000D01*
X1976500000Y-2087000000D02*
X1977250000Y-2087750000D01*
X1969750000Y-2087750000D02*
X1970500000Y-2087000000D01*
X1970500000Y-2087000000D02*
X1976500000Y-2087000000D01*
X1967750000Y-2087750000D02*
X1969750000Y-2087750000D01*
D25*
%TO.N,Net-(D1-A)*%
X1978300000Y-2094950000D02*
X1978250000Y-2095000000D01*
X1978300000Y-2089400000D02*
X1978300000Y-2094950000D01*
D26*
%TO.N,GND*%
X1975850000Y-2094400000D02*
X1975450000Y-2094400000D01*
X1976500000Y-2093750000D02*
X1975850000Y-2094400000D01*
X1976500000Y-2088500000D02*
X1976500000Y-2093750000D01*
X1977250000Y-2087750000D02*
X1976500000Y-2088500000D01*
X1979500000Y-2087750000D02*
X1977250000Y-2087750000D01*
X1980175000Y-2088425000D02*
X1979500000Y-2087750000D01*
D25*
%TO.N,Net-(BT1-+)*%
X1975200000Y-2088450000D02*
X1975200000Y-2089400000D01*
X1974500000Y-2087750000D02*
X1975200000Y-2088450000D01*
X1971000000Y-2087750000D02*
X1974500000Y-2087750000D01*
X1970187500Y-2088562500D02*
X1971000000Y-2087750000D01*
X1970187500Y-2089350000D02*
X1970187500Y-2088562500D01*
D26*
%TO.N,GND*%
X1968287500Y-2088287500D02*
X1968287500Y-2089350000D01*
X1967750000Y-2087750000D02*
X1968287500Y-2088287500D01*
X1963287500Y-2088212500D02*
X1963750000Y-2087750000D01*
X1963750000Y-2087750000D02*
X1967750000Y-2087750000D01*
X1963287500Y-2089350000D02*
X1963287500Y-2088212500D01*
%TO.N,/VCC*%
X1954405000Y-2102095000D02*
X1953000000Y-2103500000D01*
X1955475000Y-2102095000D02*
X1954405000Y-2102095000D01*
X1953000000Y-2103500000D02*
X1953000000Y-2108000000D01*
X1953000000Y-2108200000D02*
X1954400000Y-2109600000D01*
D25*
%TO.N,/SCK*%
X1955615000Y-2089635000D02*
X1956337500Y-2089635000D01*
X1955000000Y-2090250000D02*
X1955615000Y-2089635000D01*
X1955000000Y-2091500000D02*
X1955000000Y-2090250000D01*
X1955500000Y-2092000000D02*
X1955000000Y-2091500000D01*
X1957250000Y-2092000000D02*
X1955500000Y-2092000000D01*
X1957750000Y-2096500000D02*
X1957750000Y-2093250000D01*
X1957750000Y-2092500000D02*
X1957250000Y-2092000000D01*
X1957215000Y-2097035000D02*
X1957750000Y-2096500000D01*
X1956537500Y-2097035000D02*
X1957215000Y-2097035000D01*
%TO.N,/SDA*%
X1957155000Y-2090905000D02*
X1958500000Y-2092250000D01*
X1956337500Y-2090905000D02*
X1957155000Y-2090905000D01*
%TO.N,/SCK*%
X1955715000Y-2097035000D02*
X1956537500Y-2097035000D01*
X1955000000Y-2097750000D02*
X1955715000Y-2097035000D01*
X1955000000Y-2098750000D02*
X1955000000Y-2097750000D01*
X1955750000Y-2099500000D02*
X1955000000Y-2098750000D01*
X1956750000Y-2099500000D02*
X1955750000Y-2099500000D01*
X1957000000Y-2099750000D02*
X1956750000Y-2099500000D01*
X1957000000Y-2103750000D02*
X1957000000Y-2099750000D01*
X1956115000Y-2104635000D02*
X1957000000Y-2103750000D01*
X1955475000Y-2104635000D02*
X1956115000Y-2104635000D01*
%TO.N,/SDA*%
X1956095000Y-2105905000D02*
X1955475000Y-2105905000D01*
X1957500000Y-2104500000D02*
X1956095000Y-2105905000D01*
X1957500000Y-2099267500D02*
X1957500000Y-2104500000D01*
X1956537500Y-2098305000D02*
X1957500000Y-2099267500D01*
%TO.N,Net-(U4-SQW{slash}~INT)*%
X1954000000Y-2104000000D02*
X1954635000Y-2103365000D01*
X1954000000Y-2107200000D02*
X1954000000Y-2104000000D01*
X1956400000Y-2109600000D02*
X1954000000Y-2107200000D01*
X1954635000Y-2103365000D02*
X1955475000Y-2103365000D01*
D26*
%TO.N,/VCC*%
X1951600000Y-2109600000D02*
X1954400000Y-2109600000D01*
D25*
%TO.N,Net-(U4-~{INTA})*%
X1949000000Y-2109000000D02*
X1949600000Y-2109600000D01*
X1949000000Y-2105000000D02*
X1949000000Y-2109000000D01*
X1949365000Y-2104635000D02*
X1949000000Y-2105000000D01*
X1950525000Y-2104635000D02*
X1949365000Y-2104635000D01*
%TO.N,Net-(U4-X2)*%
X1948885000Y-2103365000D02*
X1947000000Y-2105250000D01*
X1947000000Y-2105500000D02*
X1944750000Y-2107750000D01*
X1950525000Y-2103365000D02*
X1948885000Y-2103365000D01*
X1947000000Y-2105250000D02*
X1947000000Y-2105500000D01*
%TO.N,Net-(U4-X1)*%
X1945205000Y-2102095000D02*
X1944750000Y-2102550000D01*
X1950525000Y-2102095000D02*
X1945205000Y-2102095000D01*
D26*
%TO.N,/VCC*%
X1950750000Y-2093107500D02*
X1949362500Y-2094495000D01*
X1950750000Y-2090250000D02*
X1950750000Y-2093107500D01*
X1950135000Y-2089635000D02*
X1950750000Y-2090250000D01*
X1949162500Y-2089635000D02*
X1950135000Y-2089635000D01*
%TO.N,GND*%
X1949162500Y-2090905000D02*
X1948805000Y-2090905000D01*
X1948805000Y-2090905000D02*
X1945250000Y-2094460000D01*
X1947305000Y-2098305000D02*
X1949362500Y-2098305000D01*
X1946750000Y-2097750000D02*
X1947305000Y-2098305000D01*
X1946750000Y-2095000000D02*
X1946750000Y-2097750000D01*
X1946210000Y-2094460000D02*
X1946750000Y-2095000000D01*
X1945250000Y-2094460000D02*
X1946210000Y-2094460000D01*
X1949597500Y-2096000000D02*
X1949362500Y-2095765000D01*
X1956302500Y-2096000000D02*
X1956537500Y-2095765000D01*
%TO.N,/VCC*%
X1949362500Y-2094495000D02*
X1956537500Y-2094495000D01*
X1947750000Y-2096750000D02*
X1948035000Y-2097035000D01*
X1947750000Y-2095250000D02*
X1947750000Y-2096750000D01*
X1948500000Y-2094500000D02*
X1947750000Y-2095250000D01*
X1949357500Y-2094500000D02*
X1948500000Y-2094500000D01*
X1948035000Y-2097035000D02*
X1949362500Y-2097035000D01*
X1949362500Y-2094495000D02*
X1949357500Y-2094500000D01*
%TO.N,GND*%
X1956337500Y-2088365000D02*
X1957115000Y-2088365000D01*
%TO.N,/VCC*%
X1949162500Y-2089635000D02*
X1949162500Y-2088365000D01*
X1949162500Y-2087095000D02*
X1949162500Y-2088365000D01*
%TO.N,GND*%
X1960587500Y-2089350000D02*
X1963287500Y-2089350000D01*
D25*
%TO.N,/D3*%
X1957500000Y-2111500000D02*
X1952500000Y-2111500000D01*
%TO.N,Net-(U3-PB7)*%
X1959750000Y-2102560000D02*
X1959750000Y-2105000000D01*
%TD*%
M02*
