M48
; DRILL file {KiCad 9.0.2} date 2025-09-15T18:19:53+0545
; FORMAT={-:-/ absolute / metric / decimal}
; #@! TF.CreationDate,2025-09-15T18:19:53+05:45
; #@! TF.GenerationSoftware,Kicad,Pcbnew,9.0.2
; #@! TF.FileFunction,Plated,1,2,PTH
FMAT,2
METRIC
; #@! TA.AperFunction,Plated,PTH,ViaDrill
T1C0.300
; #@! TA.AperFunction,Plated,PTH,ComponentDrill
T2C1.000
%
G90
G05
T1
X1946.25Y-2099.5
X1952.5Y-2095.765
X1953.0Y-2108.0
X1955.0Y-2100.25
X1956.5Y-2093.25
X1957.75Y-2093.25
X1958.5Y-2091.25
X1959.75Y-2099.5
X1959.75Y-2105.0
X1960.5Y-2091.25
X1962.75Y-2101.0
X1962.75Y-2105.5
X1963.25Y-2096.75
X1963.5Y-2100.25
X1963.75Y-2093.0
X1964.75Y-2097.75
X1965.75Y-2091.5
X1966.25Y-2096.75
X1966.75Y-2105.0
X1967.0Y-2092.5
X1967.25Y-2111.5
X1967.5Y-2099.5
X1967.75Y-2096.75
X1969.5Y-2104.75
X1970.75Y-2099.25
X1971.0Y-2094.0
X1971.0Y-2103.75
X1971.75Y-2111.5
X1972.0Y-2100.25
X1972.0Y-2103.0
X1972.25Y-2107.75
X1973.75Y-2102.5
X1975.0Y-2101.75
X1975.0Y-2112.25
X1978.25Y-2102.25
X1979.0Y-2101.0
X1979.5Y-2097.25
X1979.75Y-2092.75
X1981.75Y-2108.5
X1985.0Y-2089.25
X1989.25Y-2090.75
T2
X1945.25Y-2094.46
X1945.25Y-2097.0
X1948.42Y-2114.25
X1950.96Y-2114.25
X1953.5Y-2114.25
X1956.04Y-2114.25
X1958.58Y-2114.25
X1961.12Y-2114.25
X1963.66Y-2114.25
X1966.2Y-2114.25
X1968.74Y-2114.25
X1975.0Y-2114.25
X1977.54Y-2114.25
X1980.08Y-2114.25
X1982.62Y-2114.25
X1984.5Y-2091.8
X1984.5Y-2094.34
X1984.5Y-2096.88
X1987.0Y-2101.28
X1987.0Y-2103.82
X1987.0Y-2106.36
X1987.0Y-2108.9
X1987.04Y-2091.8
X1987.04Y-2094.34
X1987.04Y-2096.88
M30
