%TF.GenerationSoftware,KiCad,Pcbnew,9.0.2*%
%TF.CreationDate,2025-09-17T22:50:59+05:45*%
%TF.ProjectId,MCU datalogger,4d435520-6461-4746-916c-6f676765722e,rev?*%
%TF.SameCoordinates,Original*%
%TF.FileFunction,Paste,Top*%
%TF.FilePolarity,Positive*%
%FSLAX46Y46*%
G04 Gerber Fmt 4.6, Leading zero omitted, Abs format (unit mm)*
G04 Created by KiCad (PCBNEW 9.0.2) date 2025-09-17 22:50:59*
%MOMM*%
%LPD*%
G01*
G04 APERTURE LIST*
G04 Aperture macros list*
%AMRoundRect*
0 Rectangle with rounded corners*
0 $1 Rounding radius*
0 $2 $3 $4 $5 $6 $7 $8 $9 X,Y pos of 4 corners*
0 Add a 4 corners polygon primitive as box body*
4,1,4,$2,$3,$4,$5,$6,$7,$8,$9,$2,$3,0*
0 Add four circle primitives for the rounded corners*
1,1,$1+$1,$2,$3*
1,1,$1+$1,$4,$5*
1,1,$1+$1,$6,$7*
1,1,$1+$1,$8,$9*
0 Add four rect primitives between the rounded corners*
20,1,$1+$1,$2,$3,$4,$5,0*
20,1,$1+$1,$4,$5,$6,$7,0*
20,1,$1+$1,$6,$7,$8,$9,0*
20,1,$1+$1,$8,$9,$2,$3,0*%
G04 Aperture macros list end*
%ADD10RoundRect,0.162500X-0.650000X-0.162500X0.650000X-0.162500X0.650000X0.162500X-0.650000X0.162500X0*%
%ADD11RoundRect,0.073750X-0.911250X-0.221250X0.911250X-0.221250X0.911250X0.221250X-0.911250X0.221250X0*%
%ADD12RoundRect,0.250000X0.250000X0.475000X-0.250000X0.475000X-0.250000X-0.475000X0.250000X-0.475000X0*%
%ADD13RoundRect,0.250000X-0.250000X-0.475000X0.250000X-0.475000X0.250000X0.475000X-0.250000X0.475000X0*%
%ADD14RoundRect,0.250000X-0.350000X-0.450000X0.350000X-0.450000X0.350000X0.450000X-0.350000X0.450000X0*%
%ADD15RoundRect,0.250001X-1.499999X-0.949999X1.499999X-0.949999X1.499999X0.949999X-1.499999X0.949999X0*%
%ADD16RoundRect,0.243750X0.243750X0.456250X-0.243750X0.456250X-0.243750X-0.456250X0.243750X-0.456250X0*%
%ADD17RoundRect,0.068750X-0.666250X-0.206250X0.666250X-0.206250X0.666250X0.206250X-0.666250X0.206250X0*%
%ADD18RoundRect,0.068750X-0.206250X-0.666250X0.206250X-0.666250X0.206250X0.666250X-0.206250X0.666250X0*%
%ADD19RoundRect,0.243750X-0.243750X-0.456250X0.243750X-0.456250X0.243750X0.456250X-0.243750X0.456250X0*%
%ADD20RoundRect,0.250000X0.350000X0.450000X-0.350000X0.450000X-0.350000X-0.450000X0.350000X-0.450000X0*%
%ADD21RoundRect,0.250001X0.949999X-1.499999X0.949999X1.499999X-0.949999X1.499999X-0.949999X-1.499999X0*%
G04 APERTURE END LIST*
D10*
%TO.C,U1*%
X1949162500Y-2087095000D03*
X1949162500Y-2088365000D03*
X1949162500Y-2089635000D03*
X1949162500Y-2090905000D03*
X1956337500Y-2090905000D03*
X1956337500Y-2089635000D03*
X1956337500Y-2088365000D03*
X1956337500Y-2087095000D03*
%TD*%
D11*
%TO.C,U4*%
X1950525000Y-2102095000D03*
X1950525000Y-2103365000D03*
X1950525000Y-2104635000D03*
X1950525000Y-2105905000D03*
X1955475000Y-2105905000D03*
X1955475000Y-2104635000D03*
X1955475000Y-2103365000D03*
X1955475000Y-2102095000D03*
%TD*%
D12*
%TO.C,C4*%
X1975350000Y-2108200000D03*
X1973450000Y-2108200000D03*
%TD*%
%TO.C,C2*%
X1979850000Y-2108500000D03*
X1977950000Y-2108500000D03*
%TD*%
D13*
%TO.C,C3*%
X1963287500Y-2089350000D03*
X1965187500Y-2089350000D03*
%TD*%
D10*
%TO.C,U2*%
X1949362500Y-2094495000D03*
X1949362500Y-2095765000D03*
X1949362500Y-2097035000D03*
X1949362500Y-2098305000D03*
X1956537500Y-2098305000D03*
X1956537500Y-2097035000D03*
X1956537500Y-2095765000D03*
X1956537500Y-2094495000D03*
%TD*%
D14*
%TO.C,R3*%
X1973450000Y-2104200000D03*
X1975450000Y-2104200000D03*
%TD*%
%TO.C,R4*%
X1973450000Y-2099200000D03*
X1975450000Y-2099200000D03*
%TD*%
D15*
%TO.C,Y2*%
X1962500000Y-2108250000D03*
X1967700000Y-2108250000D03*
%TD*%
D14*
%TO.C,R7*%
X1973450000Y-2094400000D03*
X1975450000Y-2094400000D03*
%TD*%
D16*
%TO.C,D1*%
X1980175000Y-2089400000D03*
X1978300000Y-2089400000D03*
%TD*%
D17*
%TO.C,U3*%
X1961410000Y-2095750000D03*
X1961410000Y-2096550000D03*
X1961410000Y-2097350000D03*
X1961410000Y-2098150000D03*
X1961410000Y-2098950000D03*
X1961410000Y-2099750000D03*
X1961410000Y-2100550000D03*
X1961410000Y-2101350000D03*
D18*
X1962780000Y-2102720000D03*
X1963580000Y-2102720000D03*
X1964380000Y-2102720000D03*
X1965180000Y-2102720000D03*
X1965980000Y-2102720000D03*
X1966780000Y-2102720000D03*
X1967580000Y-2102720000D03*
X1968380000Y-2102720000D03*
D17*
X1969750000Y-2101350000D03*
X1969750000Y-2100550000D03*
X1969750000Y-2099750000D03*
X1969750000Y-2098950000D03*
X1969750000Y-2098150000D03*
X1969750000Y-2097350000D03*
X1969750000Y-2096550000D03*
X1969750000Y-2095750000D03*
D18*
X1968380000Y-2094380000D03*
X1967580000Y-2094380000D03*
X1966780000Y-2094380000D03*
X1965980000Y-2094380000D03*
X1965180000Y-2094380000D03*
X1964380000Y-2094380000D03*
X1963580000Y-2094380000D03*
X1962780000Y-2094380000D03*
%TD*%
D14*
%TO.C,R2*%
X1954400000Y-2109600000D03*
X1956400000Y-2109600000D03*
%TD*%
D13*
%TO.C,C1*%
X1958687500Y-2089350000D03*
X1960587500Y-2089350000D03*
%TD*%
D19*
%TO.C,D2*%
X1973325000Y-2089400000D03*
X1975200000Y-2089400000D03*
%TD*%
D12*
%TO.C,C5*%
X1970187500Y-2089350000D03*
X1968287500Y-2089350000D03*
%TD*%
D14*
%TO.C,R6*%
X1978250000Y-2099000000D03*
X1980250000Y-2099000000D03*
%TD*%
%TO.C,R5*%
X1978250000Y-2095000000D03*
X1980250000Y-2095000000D03*
%TD*%
D20*
%TO.C,R1*%
X1951600000Y-2109600000D03*
X1949600000Y-2109600000D03*
%TD*%
D21*
%TO.C,Y1*%
X1944750000Y-2107750000D03*
X1944750000Y-2102550000D03*
%TD*%
M02*
