%TF.GenerationSoftware,KiCad,Pcbnew,9.0.2*%
%TF.CreationDate,2025-09-17T22:50:59+05:45*%
%TF.ProjectId,MCU datalogger,4d435520-6461-4746-916c-6f676765722e,rev?*%
%TF.SameCoordinates,Original*%
%TF.FileFunction,Copper,L3,Inr*%
%TF.FilePolarity,Positive*%
%FSLAX46Y46*%
G04 Gerber Fmt 4.6, Leading zero omitted, Abs format (unit mm)*
G04 Created by KiCad (PCBNEW 9.0.2) date 2025-09-17 22:50:59*
%MOMM*%
%LPD*%
G01*
G04 APERTURE LIST*
%TA.AperFunction,ComponentPad*%
%ADD10R,1.700000X1.700000*%
%TD*%
%TA.AperFunction,ComponentPad*%
%ADD11C,1.700000*%
%TD*%
%TA.AperFunction,ViaPad*%
%ADD12C,0.600000*%
%TD*%
%TA.AperFunction,Conductor*%
%ADD13C,0.200000*%
%TD*%
G04 APERTURE END LIST*
D10*
%TO.N,Net-(BT1-+)*%
%TO.C,BT1*%
X1945250000Y-2097000000D03*
D11*
%TO.N,GND*%
X1945250000Y-2094460000D03*
%TD*%
D10*
%TO.N,/VCC*%
%TO.C,J1*%
X1987000000Y-2101280000D03*
D11*
%TO.N,GND*%
X1987000000Y-2103820000D03*
%TO.N,/SDA*%
X1987000000Y-2106360000D03*
%TO.N,/SCK*%
X1987000000Y-2108900000D03*
%TD*%
D10*
%TO.N,/D2*%
%TO.C,J3*%
X1948420000Y-2114250000D03*
D11*
%TO.N,/D3*%
X1950960000Y-2114250000D03*
%TO.N,/D4*%
X1953500000Y-2114250000D03*
%TO.N,/D5*%
X1956040000Y-2114250000D03*
%TO.N,/D6*%
X1958580000Y-2114250000D03*
%TO.N,/D7*%
X1961120000Y-2114250000D03*
%TO.N,/D8*%
X1963660000Y-2114250000D03*
%TO.N,GND*%
X1966200000Y-2114250000D03*
%TO.N,/VCC*%
X1968740000Y-2114250000D03*
%TD*%
D10*
%TO.N,/MISO*%
%TO.C,J4*%
X1984500000Y-2091800000D03*
D11*
%TO.N,GND*%
X1987040000Y-2091800000D03*
%TO.N,/SCK*%
X1984500000Y-2094340000D03*
%TO.N,/MOSI*%
X1987040000Y-2094340000D03*
%TO.N,/RESET*%
X1984500000Y-2096880000D03*
%TO.N,/VCC*%
X1987040000Y-2096880000D03*
%TD*%
D10*
%TO.N,/VCC*%
%TO.C,J2*%
X1975000000Y-2114250000D03*
D11*
%TO.N,GND*%
X1977540000Y-2114250000D03*
%TO.N,/RX*%
X1980080000Y-2114250000D03*
%TO.N,/TX*%
X1982620000Y-2114250000D03*
%TD*%
D12*
%TO.N,Net-(BT1-+)*%
X1971500000Y-2100250000D03*
X1960000000Y-2098250000D03*
X1971500000Y-2090000000D03*
%TO.N,GND*%
X1963250000Y-2097250000D03*
X1963750000Y-2099000000D03*
X1967400000Y-2098150000D03*
X1950000000Y-2107500000D03*
X1976500000Y-2096250000D03*
X1968750000Y-2112000000D03*
X1977550000Y-2110800000D03*
X1988750000Y-2097750000D03*
X1972000000Y-2108750000D03*
X1953250000Y-2089000000D03*
X1951875000Y-2099875000D03*
X1954500000Y-2096500000D03*
%TO.N,/VCC*%
X1950250000Y-2111250000D03*
X1971750000Y-2114250000D03*
X1979000000Y-2101000000D03*
X1987000000Y-2099000000D03*
X1971000000Y-2105000000D03*
X1973500000Y-2112250000D03*
%TO.N,Net-(U3-PB6)*%
X1964250000Y-2101000000D03*
X1966750000Y-2105500000D03*
%TO.N,Net-(U3-PB7)*%
X1963250000Y-2105500000D03*
X1964500000Y-2091000000D03*
X1961500000Y-2103250000D03*
%TO.N,Net-(U3-AREF)*%
X1976500000Y-2107250000D03*
X1971500000Y-2099000000D03*
%TO.N,Net-(D1-A)*%
X1978250000Y-2090500000D03*
X1978250000Y-2093250000D03*
%TO.N,Net-(D2-K)*%
X1973500000Y-2093250000D03*
X1973500000Y-2090500000D03*
%TO.N,/SCK*%
X1966750000Y-2100750000D03*
X1966750000Y-2096500000D03*
X1958500000Y-2093500000D03*
X1971750000Y-2102500000D03*
X1984000000Y-2108000000D03*
X1956750000Y-2104500000D03*
X1979250000Y-2097000000D03*
X1976750000Y-2105000000D03*
X1955750000Y-2099750000D03*
X1975750000Y-2101500000D03*
X1957750000Y-2090250000D03*
%TO.N,/SDA*%
X1956750000Y-2092500000D03*
X1955500000Y-2107750000D03*
X1979250000Y-2103250000D03*
X1957500000Y-2099750000D03*
X1967000000Y-2093250000D03*
%TO.N,/RESET*%
X1981250000Y-2100500000D03*
%TO.N,/MOSI*%
X1981500000Y-2105500000D03*
X1985250000Y-2103000000D03*
%TO.N,/MISO*%
X1981500000Y-2101750000D03*
X1983500000Y-2101500000D03*
%TD*%
D13*
%TO.N,Net-(BT1-+)*%
X1960000000Y-2098250000D02*
X1946500000Y-2098250000D01*
X1946500000Y-2098250000D02*
X1945250000Y-2097000000D01*
%TO.N,Net-(U3-PB7)*%
X1963250000Y-2105500000D02*
X1961500000Y-2103750000D01*
X1961500000Y-2103750000D02*
X1961500000Y-2103250000D01*
%TO.N,/SCK*%
X1974750000Y-2101500000D02*
X1975750000Y-2101500000D01*
X1971750000Y-2102500000D02*
X1973750000Y-2102500000D01*
X1973750000Y-2102500000D02*
X1974750000Y-2101500000D01*
%TD*%
%TA.AperFunction,Conductor*%
%TO.N,/VCC*%
G36*
X1985841444Y-2094993999D02*
G01*
X1985880486Y-2095039056D01*
X1985884951Y-2095047820D01*
X1986009890Y-2095219786D01*
X1986160213Y-2095370109D01*
X1986332179Y-2095495048D01*
X1986332181Y-2095495049D01*
X1986332184Y-2095495051D01*
X1986341493Y-2095499794D01*
X1986392290Y-2095547766D01*
X1986409087Y-2095615587D01*
X1986386552Y-2095681722D01*
X1986341505Y-2095720760D01*
X1986332446Y-2095725376D01*
X1986332440Y-2095725380D01*
X1986278282Y-2095764727D01*
X1986278282Y-2095764728D01*
X1986910591Y-2096397037D01*
X1986847007Y-2096414075D01*
X1986732993Y-2096479901D01*
X1986639901Y-2096572993D01*
X1986574075Y-2096687007D01*
X1986557037Y-2096750591D01*
X1985924728Y-2096118282D01*
X1985924727Y-2096118282D01*
X1985885380Y-2096172440D01*
X1985885376Y-2096172446D01*
X1985880760Y-2096181505D01*
X1985832781Y-2096232297D01*
X1985764959Y-2096249087D01*
X1985698826Y-2096226543D01*
X1985659794Y-2096181493D01*
X1985655051Y-2096172184D01*
X1985655049Y-2096172181D01*
X1985655048Y-2096172179D01*
X1985530109Y-2096000213D01*
X1985379786Y-2095849890D01*
X1985207820Y-2095724951D01*
X1985199600Y-2095720763D01*
X1985199054Y-2095720485D01*
X1985148259Y-2095672512D01*
X1985131463Y-2095604692D01*
X1985153999Y-2095538556D01*
X1985199054Y-2095499515D01*
X1985207816Y-2095495051D01*
X1985265246Y-2095453326D01*
X1985379786Y-2095370109D01*
X1985379788Y-2095370106D01*
X1985379792Y-2095370104D01*
X1985530104Y-2095219792D01*
X1985530106Y-2095219788D01*
X1985530109Y-2095219786D01*
X1985655048Y-2095047820D01*
X1985655047Y-2095047820D01*
X1985655051Y-2095047816D01*
X1985659514Y-2095039054D01*
X1985707488Y-2094988259D01*
X1985775308Y-2094971463D01*
X1985841444Y-2094993999D01*
G37*
%TD.AperFunction*%
%TA.AperFunction,Conductor*%
G36*
X1987193039Y-2085520185D02*
G01*
X1987238794Y-2085572989D01*
X1987250000Y-2085624500D01*
X1987250000Y-2090000000D01*
X1991675500Y-2090000000D01*
X1991742539Y-2090019685D01*
X1991788294Y-2090072489D01*
X1991799500Y-2090124000D01*
X1991799500Y-2112626000D01*
X1991779815Y-2112693039D01*
X1991727011Y-2112738794D01*
X1991675500Y-2112750000D01*
X1987250000Y-2112750000D01*
X1987250000Y-2117125500D01*
X1987230315Y-2117192539D01*
X1987177511Y-2117238294D01*
X1987126000Y-2117249500D01*
X1946374000Y-2117249500D01*
X1946306961Y-2117229815D01*
X1946261206Y-2117177011D01*
X1946250000Y-2117125500D01*
X1946250000Y-2113352135D01*
X1947069500Y-2113352135D01*
X1947069500Y-2115147870D01*
X1947069501Y-2115147876D01*
X1947075908Y-2115207483D01*
X1947126202Y-2115342328D01*
X1947126206Y-2115342335D01*
X1947212452Y-2115457544D01*
X1947212455Y-2115457547D01*
X1947327664Y-2115543793D01*
X1947327671Y-2115543797D01*
X1947462517Y-2115594091D01*
X1947462516Y-2115594091D01*
X1947469444Y-2115594835D01*
X1947522127Y-2115600500D01*
X1949317872Y-2115600499D01*
X1949377483Y-2115594091D01*
X1949512331Y-2115543796D01*
X1949627546Y-2115457546D01*
X1949713796Y-2115342331D01*
X1949762810Y-2115210916D01*
X1949804681Y-2115154984D01*
X1949870145Y-2115130566D01*
X1949938418Y-2115145417D01*
X1949966673Y-2115166569D01*
X1950080213Y-2115280109D01*
X1950252179Y-2115405048D01*
X1950252181Y-2115405049D01*
X1950252184Y-2115405051D01*
X1950441588Y-2115501557D01*
X1950643757Y-2115567246D01*
X1950853713Y-2115600500D01*
X1950853714Y-2115600500D01*
X1951066286Y-2115600500D01*
X1951066287Y-2115600500D01*
X1951276243Y-2115567246D01*
X1951478412Y-2115501557D01*
X1951667816Y-2115405051D01*
X1951722572Y-2115365269D01*
X1951839786Y-2115280109D01*
X1951839788Y-2115280106D01*
X1951839792Y-2115280104D01*
X1951990104Y-2115129792D01*
X1951990106Y-2115129788D01*
X1951990109Y-2115129786D01*
X1952115048Y-2114957820D01*
X1952115047Y-2114957820D01*
X1952115051Y-2114957816D01*
X1952119514Y-2114949054D01*
X1952167488Y-2114898259D01*
X1952235308Y-2114881463D01*
X1952301444Y-2114903999D01*
X1952340486Y-2114949056D01*
X1952344951Y-2114957820D01*
X1952469890Y-2115129786D01*
X1952620213Y-2115280109D01*
X1952792179Y-2115405048D01*
X1952792181Y-2115405049D01*
X1952792184Y-2115405051D01*
X1952981588Y-2115501557D01*
X1953183757Y-2115567246D01*
X1953393713Y-2115600500D01*
X1953393714Y-2115600500D01*
X1953606286Y-2115600500D01*
X1953606287Y-2115600500D01*
X1953816243Y-2115567246D01*
X1954018412Y-2115501557D01*
X1954207816Y-2115405051D01*
X1954262572Y-2115365269D01*
X1954379786Y-2115280109D01*
X1954379788Y-2115280106D01*
X1954379792Y-2115280104D01*
X1954530104Y-2115129792D01*
X1954530106Y-2115129788D01*
X1954530109Y-2115129786D01*
X1954655048Y-2114957820D01*
X1954655047Y-2114957820D01*
X1954655051Y-2114957816D01*
X1954659514Y-2114949054D01*
X1954707488Y-2114898259D01*
X1954775308Y-2114881463D01*
X1954841444Y-2114903999D01*
X1954880486Y-2114949056D01*
X1954884951Y-2114957820D01*
X1955009890Y-2115129786D01*
X1955160213Y-2115280109D01*
X1955332179Y-2115405048D01*
X1955332181Y-2115405049D01*
X1955332184Y-2115405051D01*
X1955521588Y-2115501557D01*
X1955723757Y-2115567246D01*
X1955933713Y-2115600500D01*
X1955933714Y-2115600500D01*
X1956146286Y-2115600500D01*
X1956146287Y-2115600500D01*
X1956356243Y-2115567246D01*
X1956558412Y-2115501557D01*
X1956747816Y-2115405051D01*
X1956802572Y-2115365269D01*
X1956919786Y-2115280109D01*
X1956919788Y-2115280106D01*
X1956919792Y-2115280104D01*
X1957070104Y-2115129792D01*
X1957070106Y-2115129788D01*
X1957070109Y-2115129786D01*
X1957195048Y-2114957820D01*
X1957195047Y-2114957820D01*
X1957195051Y-2114957816D01*
X1957199514Y-2114949054D01*
X1957247488Y-2114898259D01*
X1957315308Y-2114881463D01*
X1957381444Y-2114903999D01*
X1957420486Y-2114949056D01*
X1957424951Y-2114957820D01*
X1957549890Y-2115129786D01*
X1957700213Y-2115280109D01*
X1957872179Y-2115405048D01*
X1957872181Y-2115405049D01*
X1957872184Y-2115405051D01*
X1958061588Y-2115501557D01*
X1958263757Y-2115567246D01*
X1958473713Y-2115600500D01*
X1958473714Y-2115600500D01*
X1958686286Y-2115600500D01*
X1958686287Y-2115600500D01*
X1958896243Y-2115567246D01*
X1959098412Y-2115501557D01*
X1959287816Y-2115405051D01*
X1959342572Y-2115365269D01*
X1959459786Y-2115280109D01*
X1959459788Y-2115280106D01*
X1959459792Y-2115280104D01*
X1959610104Y-2115129792D01*
X1959610106Y-2115129788D01*
X1959610109Y-2115129786D01*
X1959735048Y-2114957820D01*
X1959735047Y-2114957820D01*
X1959735051Y-2114957816D01*
X1959739514Y-2114949054D01*
X1959787488Y-2114898259D01*
X1959855308Y-2114881463D01*
X1959921444Y-2114903999D01*
X1959960486Y-2114949056D01*
X1959964951Y-2114957820D01*
X1960089890Y-2115129786D01*
X1960240213Y-2115280109D01*
X1960412179Y-2115405048D01*
X1960412181Y-2115405049D01*
X1960412184Y-2115405051D01*
X1960601588Y-2115501557D01*
X1960803757Y-2115567246D01*
X1961013713Y-2115600500D01*
X1961013714Y-2115600500D01*
X1961226286Y-2115600500D01*
X1961226287Y-2115600500D01*
X1961436243Y-2115567246D01*
X1961638412Y-2115501557D01*
X1961827816Y-2115405051D01*
X1961882572Y-2115365269D01*
X1961999786Y-2115280109D01*
X1961999788Y-2115280106D01*
X1961999792Y-2115280104D01*
X1962150104Y-2115129792D01*
X1962150106Y-2115129788D01*
X1962150109Y-2115129786D01*
X1962275048Y-2114957820D01*
X1962275047Y-2114957820D01*
X1962275051Y-2114957816D01*
X1962279514Y-2114949054D01*
X1962327488Y-2114898259D01*
X1962395308Y-2114881463D01*
X1962461444Y-2114903999D01*
X1962500486Y-2114949056D01*
X1962504951Y-2114957820D01*
X1962629890Y-2115129786D01*
X1962780213Y-2115280109D01*
X1962952179Y-2115405048D01*
X1962952181Y-2115405049D01*
X1962952184Y-2115405051D01*
X1963141588Y-2115501557D01*
X1963343757Y-2115567246D01*
X1963553713Y-2115600500D01*
X1963553714Y-2115600500D01*
X1963766286Y-2115600500D01*
X1963766287Y-2115600500D01*
X1963976243Y-2115567246D01*
X1964178412Y-2115501557D01*
X1964367816Y-2115405051D01*
X1964422572Y-2115365269D01*
X1964539786Y-2115280109D01*
X1964539788Y-2115280106D01*
X1964539792Y-2115280104D01*
X1964690104Y-2115129792D01*
X1964690106Y-2115129788D01*
X1964690109Y-2115129786D01*
X1964815048Y-2114957820D01*
X1964815047Y-2114957820D01*
X1964815051Y-2114957816D01*
X1964819514Y-2114949054D01*
X1964867488Y-2114898259D01*
X1964935308Y-2114881463D01*
X1965001444Y-2114903999D01*
X1965040486Y-2114949056D01*
X1965044951Y-2114957820D01*
X1965169890Y-2115129786D01*
X1965320213Y-2115280109D01*
X1965492179Y-2115405048D01*
X1965492181Y-2115405049D01*
X1965492184Y-2115405051D01*
X1965681588Y-2115501557D01*
X1965883757Y-2115567246D01*
X1966093713Y-2115600500D01*
X1966093714Y-2115600500D01*
X1966306286Y-2115600500D01*
X1966306287Y-2115600500D01*
X1966516243Y-2115567246D01*
X1966718412Y-2115501557D01*
X1966907816Y-2115405051D01*
X1966962572Y-2115365269D01*
X1967079786Y-2115280109D01*
X1967079788Y-2115280106D01*
X1967079792Y-2115280104D01*
X1967230104Y-2115129792D01*
X1967230106Y-2115129788D01*
X1967230109Y-2115129786D01*
X1967315890Y-2115011717D01*
X1967355051Y-2114957816D01*
X1967359793Y-2114948508D01*
X1967407763Y-2114897711D01*
X1967475583Y-2114880911D01*
X1967541719Y-2114903445D01*
X1967580763Y-2114948500D01*
X1967585373Y-2114957547D01*
X1967624728Y-2115011716D01*
X1968257036Y-2114379407D01*
X1968274075Y-2114442993D01*
X1968339901Y-2114557007D01*
X1968432993Y-2114650099D01*
X1968547007Y-2114715925D01*
X1968610590Y-2114732962D01*
X1967978282Y-2115365269D01*
X1967978282Y-2115365270D01*
X1968032449Y-2115404624D01*
X1968221782Y-2115501095D01*
X1968423870Y-2115566757D01*
X1968633754Y-2115600000D01*
X1968846246Y-2115600000D01*
X1969056127Y-2115566757D01*
X1969056130Y-2115566757D01*
X1969258217Y-2115501095D01*
X1969447554Y-2115404622D01*
X1969501716Y-2115365270D01*
X1969501717Y-2115365270D01*
X1968869408Y-2114732962D01*
X1968932993Y-2114715925D01*
X1969047007Y-2114650099D01*
X1969140099Y-2114557007D01*
X1969205925Y-2114442993D01*
X1969222962Y-2114379408D01*
X1969855270Y-2115011717D01*
X1969855270Y-2115011716D01*
X1969894622Y-2114957554D01*
X1969991095Y-2114768217D01*
X1970056757Y-2114566130D01*
X1970056757Y-2114566127D01*
X1970078439Y-2114429240D01*
X1970090000Y-2114356246D01*
X1970090000Y-2114143753D01*
X1970056757Y-2113933872D01*
X1970056757Y-2113933869D01*
X1969991095Y-2113731782D01*
X1969894624Y-2113542449D01*
X1969855270Y-2113488282D01*
X1969855269Y-2113488282D01*
X1969222962Y-2114120590D01*
X1969205925Y-2114057007D01*
X1969140099Y-2113942993D01*
X1969047007Y-2113849901D01*
X1968932993Y-2113784075D01*
X1968869409Y-2113767037D01*
X1969284290Y-2113352155D01*
X1973650000Y-2113352155D01*
X1973650000Y-2114000000D01*
X1974566988Y-2114000000D01*
X1974534075Y-2114057007D01*
X1974500000Y-2114184174D01*
X1974500000Y-2114315826D01*
X1974534075Y-2114442993D01*
X1974566988Y-2114500000D01*
X1973650000Y-2114500000D01*
X1973650000Y-2115147844D01*
X1973656401Y-2115207372D01*
X1973656403Y-2115207379D01*
X1973706645Y-2115342086D01*
X1973706649Y-2115342093D01*
X1973792809Y-2115457187D01*
X1973792812Y-2115457190D01*
X1973907906Y-2115543350D01*
X1973907913Y-2115543354D01*
X1974042620Y-2115593596D01*
X1974042627Y-2115593598D01*
X1974102155Y-2115599999D01*
X1974102172Y-2115600000D01*
X1974750000Y-2115600000D01*
X1974750000Y-2114683012D01*
X1974807007Y-2114715925D01*
X1974934174Y-2114750000D01*
X1975065826Y-2114750000D01*
X1975192993Y-2114715925D01*
X1975250000Y-2114683012D01*
X1975250000Y-2115600000D01*
X1975897828Y-2115600000D01*
X1975897844Y-2115599999D01*
X1975957372Y-2115593598D01*
X1975957379Y-2115593596D01*
X1976092086Y-2115543354D01*
X1976092093Y-2115543350D01*
X1976207187Y-2115457190D01*
X1976207190Y-2115457187D01*
X1976293350Y-2115342093D01*
X1976293354Y-2115342086D01*
X1976342422Y-2115210529D01*
X1976384293Y-2115154595D01*
X1976449757Y-2115130178D01*
X1976518030Y-2115145030D01*
X1976546285Y-2115166181D01*
X1976660213Y-2115280109D01*
X1976832179Y-2115405048D01*
X1976832181Y-2115405049D01*
X1976832184Y-2115405051D01*
X1977021588Y-2115501557D01*
X1977223757Y-2115567246D01*
X1977433713Y-2115600500D01*
X1977433714Y-2115600500D01*
X1977646286Y-2115600500D01*
X1977646287Y-2115600500D01*
X1977856243Y-2115567246D01*
X1978058412Y-2115501557D01*
X1978247816Y-2115405051D01*
X1978302572Y-2115365269D01*
X1978419786Y-2115280109D01*
X1978419788Y-2115280106D01*
X1978419792Y-2115280104D01*
X1978570104Y-2115129792D01*
X1978570106Y-2115129788D01*
X1978570109Y-2115129786D01*
X1978695048Y-2114957820D01*
X1978695047Y-2114957820D01*
X1978695051Y-2114957816D01*
X1978699514Y-2114949054D01*
X1978747488Y-2114898259D01*
X1978815308Y-2114881463D01*
X1978881444Y-2114903999D01*
X1978920486Y-2114949056D01*
X1978924951Y-2114957820D01*
X1979049890Y-2115129786D01*
X1979200213Y-2115280109D01*
X1979372179Y-2115405048D01*
X1979372181Y-2115405049D01*
X1979372184Y-2115405051D01*
X1979561588Y-2115501557D01*
X1979763757Y-2115567246D01*
X1979973713Y-2115600500D01*
X1979973714Y-2115600500D01*
X1980186286Y-2115600500D01*
X1980186287Y-2115600500D01*
X1980396243Y-2115567246D01*
X1980598412Y-2115501557D01*
X1980787816Y-2115405051D01*
X1980842572Y-2115365269D01*
X1980959786Y-2115280109D01*
X1980959788Y-2115280106D01*
X1980959792Y-2115280104D01*
X1981110104Y-2115129792D01*
X1981110106Y-2115129788D01*
X1981110109Y-2115129786D01*
X1981235048Y-2114957820D01*
X1981235047Y-2114957820D01*
X1981235051Y-2114957816D01*
X1981239514Y-2114949054D01*
X1981287488Y-2114898259D01*
X1981355308Y-2114881463D01*
X1981421444Y-2114903999D01*
X1981460486Y-2114949056D01*
X1981464951Y-2114957820D01*
X1981589890Y-2115129786D01*
X1981740213Y-2115280109D01*
X1981912179Y-2115405048D01*
X1981912181Y-2115405049D01*
X1981912184Y-2115405051D01*
X1982101588Y-2115501557D01*
X1982303757Y-2115567246D01*
X1982513713Y-2115600500D01*
X1982513714Y-2115600500D01*
X1982726286Y-2115600500D01*
X1982726287Y-2115600500D01*
X1982936243Y-2115567246D01*
X1983138412Y-2115501557D01*
X1983327816Y-2115405051D01*
X1983382572Y-2115365269D01*
X1983499786Y-2115280109D01*
X1983499788Y-2115280106D01*
X1983499792Y-2115280104D01*
X1983650104Y-2115129792D01*
X1983650106Y-2115129788D01*
X1983650109Y-2115129786D01*
X1983775048Y-2114957820D01*
X1983775047Y-2114957820D01*
X1983775051Y-2114957816D01*
X1983871557Y-2114768412D01*
X1983937246Y-2114566243D01*
X1983970500Y-2114356287D01*
X1983970500Y-2114143713D01*
X1983937246Y-2113933757D01*
X1983871557Y-2113731588D01*
X1983775051Y-2113542184D01*
X1983775049Y-2113542181D01*
X1983775048Y-2113542179D01*
X1983650109Y-2113370213D01*
X1983499786Y-2113219890D01*
X1983327820Y-2113094951D01*
X1983138414Y-2112998444D01*
X1983138413Y-2112998443D01*
X1983138412Y-2112998443D01*
X1982936243Y-2112932754D01*
X1982936241Y-2112932753D01*
X1982936240Y-2112932753D01*
X1982774957Y-2112907208D01*
X1982726287Y-2112899500D01*
X1982513713Y-2112899500D01*
X1982465042Y-2112907208D01*
X1982303760Y-2112932753D01*
X1982101585Y-2112998444D01*
X1981912179Y-2113094951D01*
X1981740213Y-2113219890D01*
X1981589890Y-2113370213D01*
X1981464949Y-2113542182D01*
X1981460484Y-2113550946D01*
X1981412509Y-2113601742D01*
X1981344688Y-2113618536D01*
X1981278553Y-2113595998D01*
X1981239516Y-2113550946D01*
X1981235050Y-2113542182D01*
X1981110109Y-2113370213D01*
X1980959786Y-2113219890D01*
X1980787820Y-2113094951D01*
X1980598414Y-2112998444D01*
X1980598413Y-2112998443D01*
X1980598412Y-2112998443D01*
X1980396243Y-2112932754D01*
X1980396241Y-2112932753D01*
X1980396240Y-2112932753D01*
X1980234957Y-2112907208D01*
X1980186287Y-2112899500D01*
X1979973713Y-2112899500D01*
X1979925042Y-2112907208D01*
X1979763760Y-2112932753D01*
X1979561585Y-2112998444D01*
X1979372179Y-2113094951D01*
X1979200213Y-2113219890D01*
X1979049890Y-2113370213D01*
X1978924949Y-2113542182D01*
X1978920484Y-2113550946D01*
X1978872509Y-2113601742D01*
X1978804688Y-2113618536D01*
X1978738553Y-2113595998D01*
X1978699516Y-2113550946D01*
X1978695050Y-2113542182D01*
X1978570109Y-2113370213D01*
X1978419786Y-2113219890D01*
X1978247820Y-2113094951D01*
X1978058414Y-2112998444D01*
X1978058413Y-2112998443D01*
X1978058412Y-2112998443D01*
X1977856243Y-2112932754D01*
X1977856241Y-2112932753D01*
X1977856240Y-2112932753D01*
X1977694957Y-2112907208D01*
X1977646287Y-2112899500D01*
X1977433713Y-2112899500D01*
X1977385042Y-2112907208D01*
X1977223760Y-2112932753D01*
X1977021585Y-2112998444D01*
X1976832179Y-2113094951D01*
X1976660215Y-2113219889D01*
X1976546285Y-2113333819D01*
X1976484962Y-2113367303D01*
X1976415270Y-2113362319D01*
X1976359337Y-2113320447D01*
X1976342422Y-2113289470D01*
X1976293354Y-2113157913D01*
X1976293350Y-2113157906D01*
X1976207190Y-2113042812D01*
X1976207187Y-2113042809D01*
X1976092093Y-2112956649D01*
X1976092086Y-2112956645D01*
X1975957379Y-2112906403D01*
X1975957372Y-2112906401D01*
X1975897844Y-2112900000D01*
X1975250000Y-2112900000D01*
X1975250000Y-2113816988D01*
X1975192993Y-2113784075D01*
X1975065826Y-2113750000D01*
X1974934174Y-2113750000D01*
X1974807007Y-2113784075D01*
X1974750000Y-2113816988D01*
X1974750000Y-2112900000D01*
X1974102155Y-2112900000D01*
X1974042627Y-2112906401D01*
X1974042620Y-2112906403D01*
X1973907913Y-2112956645D01*
X1973907906Y-2112956649D01*
X1973792812Y-2113042809D01*
X1973792809Y-2113042812D01*
X1973706649Y-2113157906D01*
X1973706645Y-2113157913D01*
X1973656403Y-2113292620D01*
X1973656401Y-2113292627D01*
X1973650000Y-2113352155D01*
X1969284290Y-2113352155D01*
X1969375275Y-2113261170D01*
X1969501716Y-2113134728D01*
X1969447550Y-2113095375D01*
X1969258216Y-2112998904D01*
X1969113880Y-2112952006D01*
X1969056204Y-2112912568D01*
X1969029006Y-2112848210D01*
X1969040921Y-2112779363D01*
X1969088165Y-2112727888D01*
X1969104736Y-2112719518D01*
X1969129179Y-2112709394D01*
X1969260289Y-2112621789D01*
X1969371789Y-2112510289D01*
X1969459394Y-2112379179D01*
X1969519737Y-2112233497D01*
X1969550500Y-2112078842D01*
X1969550500Y-2111921158D01*
X1969550500Y-2111921155D01*
X1969550499Y-2111921153D01*
X1969519738Y-2111766510D01*
X1969519737Y-2111766503D01*
X1969519735Y-2111766498D01*
X1969459397Y-2111620827D01*
X1969459390Y-2111620814D01*
X1969371789Y-2111489711D01*
X1969371786Y-2111489707D01*
X1969260292Y-2111378213D01*
X1969260288Y-2111378210D01*
X1969129185Y-2111290609D01*
X1969129172Y-2111290602D01*
X1968983501Y-2111230264D01*
X1968983489Y-2111230261D01*
X1968828845Y-2111199500D01*
X1968828842Y-2111199500D01*
X1968671158Y-2111199500D01*
X1968671155Y-2111199500D01*
X1968516510Y-2111230261D01*
X1968516498Y-2111230264D01*
X1968370827Y-2111290602D01*
X1968370814Y-2111290609D01*
X1968239711Y-2111378210D01*
X1968239707Y-2111378213D01*
X1968128213Y-2111489707D01*
X1968128210Y-2111489711D01*
X1968040609Y-2111620814D01*
X1968040602Y-2111620827D01*
X1967980264Y-2111766498D01*
X1967980261Y-2111766510D01*
X1967949500Y-2111921153D01*
X1967949500Y-2112078846D01*
X1967980261Y-2112233489D01*
X1967980264Y-2112233501D01*
X1968040602Y-2112379172D01*
X1968040609Y-2112379185D01*
X1968128210Y-2112510288D01*
X1968128213Y-2112510292D01*
X1968239707Y-2112621786D01*
X1968239711Y-2112621789D01*
X1968370814Y-2112709390D01*
X1968370818Y-2112709392D01*
X1968370821Y-2112709394D01*
X1968377391Y-2112712115D01*
X1968386462Y-2112715873D01*
X1968440865Y-2112759714D01*
X1968462930Y-2112826009D01*
X1968445651Y-2112893708D01*
X1968394513Y-2112941318D01*
X1968377327Y-2112948365D01*
X1968221783Y-2112998904D01*
X1968032439Y-2113095380D01*
X1967978282Y-2113134727D01*
X1967978282Y-2113134728D01*
X1968610591Y-2113767037D01*
X1968547007Y-2113784075D01*
X1968432993Y-2113849901D01*
X1968339901Y-2113942993D01*
X1968274075Y-2114057007D01*
X1968257037Y-2114120591D01*
X1967624728Y-2113488282D01*
X1967624727Y-2113488282D01*
X1967585380Y-2113542440D01*
X1967585376Y-2113542446D01*
X1967580760Y-2113551505D01*
X1967532781Y-2113602297D01*
X1967464959Y-2113619087D01*
X1967398826Y-2113596543D01*
X1967359794Y-2113551493D01*
X1967355051Y-2113542184D01*
X1967355049Y-2113542181D01*
X1967355048Y-2113542179D01*
X1967230109Y-2113370213D01*
X1967079786Y-2113219890D01*
X1966907820Y-2113094951D01*
X1966718414Y-2112998444D01*
X1966718413Y-2112998443D01*
X1966718412Y-2112998443D01*
X1966516243Y-2112932754D01*
X1966516241Y-2112932753D01*
X1966516240Y-2112932753D01*
X1966354957Y-2112907208D01*
X1966306287Y-2112899500D01*
X1966093713Y-2112899500D01*
X1966045042Y-2112907208D01*
X1965883760Y-2112932753D01*
X1965681585Y-2112998444D01*
X1965492179Y-2113094951D01*
X1965320213Y-2113219890D01*
X1965169890Y-2113370213D01*
X1965044949Y-2113542182D01*
X1965040484Y-2113550946D01*
X1964992509Y-2113601742D01*
X1964924688Y-2113618536D01*
X1964858553Y-2113595998D01*
X1964819516Y-2113550946D01*
X1964815050Y-2113542182D01*
X1964690109Y-2113370213D01*
X1964539786Y-2113219890D01*
X1964367820Y-2113094951D01*
X1964178414Y-2112998444D01*
X1964178413Y-2112998443D01*
X1964178412Y-2112998443D01*
X1963976243Y-2112932754D01*
X1963976241Y-2112932753D01*
X1963976240Y-2112932753D01*
X1963814957Y-2112907208D01*
X1963766287Y-2112899500D01*
X1963553713Y-2112899500D01*
X1963505042Y-2112907208D01*
X1963343760Y-2112932753D01*
X1963141585Y-2112998444D01*
X1962952179Y-2113094951D01*
X1962780213Y-2113219890D01*
X1962629890Y-2113370213D01*
X1962504949Y-2113542182D01*
X1962500484Y-2113550946D01*
X1962452509Y-2113601742D01*
X1962384688Y-2113618536D01*
X1962318553Y-2113595998D01*
X1962279516Y-2113550946D01*
X1962275050Y-2113542182D01*
X1962150109Y-2113370213D01*
X1961999786Y-2113219890D01*
X1961827820Y-2113094951D01*
X1961638414Y-2112998444D01*
X1961638413Y-2112998443D01*
X1961638412Y-2112998443D01*
X1961436243Y-2112932754D01*
X1961436241Y-2112932753D01*
X1961436240Y-2112932753D01*
X1961274957Y-2112907208D01*
X1961226287Y-2112899500D01*
X1961013713Y-2112899500D01*
X1960965042Y-2112907208D01*
X1960803760Y-2112932753D01*
X1960601585Y-2112998444D01*
X1960412179Y-2113094951D01*
X1960240213Y-2113219890D01*
X1960089890Y-2113370213D01*
X1959964949Y-2113542182D01*
X1959960484Y-2113550946D01*
X1959912509Y-2113601742D01*
X1959844688Y-2113618536D01*
X1959778553Y-2113595998D01*
X1959739516Y-2113550946D01*
X1959735050Y-2113542182D01*
X1959610109Y-2113370213D01*
X1959459786Y-2113219890D01*
X1959287820Y-2113094951D01*
X1959098414Y-2112998444D01*
X1959098413Y-2112998443D01*
X1959098412Y-2112998443D01*
X1958896243Y-2112932754D01*
X1958896241Y-2112932753D01*
X1958896240Y-2112932753D01*
X1958734957Y-2112907208D01*
X1958686287Y-2112899500D01*
X1958473713Y-2112899500D01*
X1958425042Y-2112907208D01*
X1958263760Y-2112932753D01*
X1958061585Y-2112998444D01*
X1957872179Y-2113094951D01*
X1957700213Y-2113219890D01*
X1957549890Y-2113370213D01*
X1957424949Y-2113542182D01*
X1957420484Y-2113550946D01*
X1957372509Y-2113601742D01*
X1957304688Y-2113618536D01*
X1957238553Y-2113595998D01*
X1957199516Y-2113550946D01*
X1957195050Y-2113542182D01*
X1957070109Y-2113370213D01*
X1956919786Y-2113219890D01*
X1956747820Y-2113094951D01*
X1956558414Y-2112998444D01*
X1956558413Y-2112998443D01*
X1956558412Y-2112998443D01*
X1956356243Y-2112932754D01*
X1956356241Y-2112932753D01*
X1956356240Y-2112932753D01*
X1956194957Y-2112907208D01*
X1956146287Y-2112899500D01*
X1955933713Y-2112899500D01*
X1955885042Y-2112907208D01*
X1955723760Y-2112932753D01*
X1955521585Y-2112998444D01*
X1955332179Y-2113094951D01*
X1955160213Y-2113219890D01*
X1955009890Y-2113370213D01*
X1954884949Y-2113542182D01*
X1954880484Y-2113550946D01*
X1954832509Y-2113601742D01*
X1954764688Y-2113618536D01*
X1954698553Y-2113595998D01*
X1954659516Y-2113550946D01*
X1954655050Y-2113542182D01*
X1954530109Y-2113370213D01*
X1954379786Y-2113219890D01*
X1954207820Y-2113094951D01*
X1954018414Y-2112998444D01*
X1954018413Y-2112998443D01*
X1954018412Y-2112998443D01*
X1953816243Y-2112932754D01*
X1953816241Y-2112932753D01*
X1953816240Y-2112932753D01*
X1953654957Y-2112907208D01*
X1953606287Y-2112899500D01*
X1953393713Y-2112899500D01*
X1953345042Y-2112907208D01*
X1953183760Y-2112932753D01*
X1952981585Y-2112998444D01*
X1952792179Y-2113094951D01*
X1952620213Y-2113219890D01*
X1952469890Y-2113370213D01*
X1952344949Y-2113542182D01*
X1952340484Y-2113550946D01*
X1952292509Y-2113601742D01*
X1952224688Y-2113618536D01*
X1952158553Y-2113595998D01*
X1952119516Y-2113550946D01*
X1952115050Y-2113542182D01*
X1951990109Y-2113370213D01*
X1951839786Y-2113219890D01*
X1951667820Y-2113094951D01*
X1951478414Y-2112998444D01*
X1951478413Y-2112998443D01*
X1951478412Y-2112998443D01*
X1951276243Y-2112932754D01*
X1951276241Y-2112932753D01*
X1951276240Y-2112932753D01*
X1951114957Y-2112907208D01*
X1951066287Y-2112899500D01*
X1950853713Y-2112899500D01*
X1950805042Y-2112907208D01*
X1950643760Y-2112932753D01*
X1950441585Y-2112998444D01*
X1950252179Y-2113094951D01*
X1950080215Y-2113219889D01*
X1949966673Y-2113333431D01*
X1949905350Y-2113366915D01*
X1949835658Y-2113361931D01*
X1949779725Y-2113320059D01*
X1949762810Y-2113289082D01*
X1949713797Y-2113157671D01*
X1949713793Y-2113157664D01*
X1949627547Y-2113042455D01*
X1949627544Y-2113042452D01*
X1949512335Y-2112956206D01*
X1949512328Y-2112956202D01*
X1949377482Y-2112905908D01*
X1949377483Y-2112905908D01*
X1949317883Y-2112899501D01*
X1949317881Y-2112899500D01*
X1949317873Y-2112899500D01*
X1949317864Y-2112899500D01*
X1947522129Y-2112899500D01*
X1947522123Y-2112899501D01*
X1947462516Y-2112905908D01*
X1947327671Y-2112956202D01*
X1947327664Y-2112956206D01*
X1947212455Y-2113042452D01*
X1947212452Y-2113042455D01*
X1947126206Y-2113157664D01*
X1947126202Y-2113157671D01*
X1947075908Y-2113292517D01*
X1947069501Y-2113352116D01*
X1947069500Y-2113352135D01*
X1946250000Y-2113352135D01*
X1946250000Y-2112750000D01*
X1941974500Y-2112750000D01*
X1941907461Y-2112730315D01*
X1941861706Y-2112677511D01*
X1941850500Y-2112626000D01*
X1941850500Y-2110721153D01*
X1976749500Y-2110721153D01*
X1976749500Y-2110878846D01*
X1976780261Y-2111033489D01*
X1976780264Y-2111033501D01*
X1976840602Y-2111179172D01*
X1976840609Y-2111179185D01*
X1976928210Y-2111310288D01*
X1976928213Y-2111310292D01*
X1977039707Y-2111421786D01*
X1977039711Y-2111421789D01*
X1977170814Y-2111509390D01*
X1977170827Y-2111509397D01*
X1977316498Y-2111569735D01*
X1977316503Y-2111569737D01*
X1977471153Y-2111600499D01*
X1977471156Y-2111600500D01*
X1977471158Y-2111600500D01*
X1977628844Y-2111600500D01*
X1977628845Y-2111600499D01*
X1977783497Y-2111569737D01*
X1977929179Y-2111509394D01*
X1978060289Y-2111421789D01*
X1978171789Y-2111310289D01*
X1978259394Y-2111179179D01*
X1978319737Y-2111033497D01*
X1978350500Y-2110878842D01*
X1978350500Y-2110721158D01*
X1978350500Y-2110721155D01*
X1978350499Y-2110721153D01*
X1978319738Y-2110566510D01*
X1978319737Y-2110566503D01*
X1978319735Y-2110566498D01*
X1978259397Y-2110420827D01*
X1978259390Y-2110420814D01*
X1978171789Y-2110289711D01*
X1978171786Y-2110289707D01*
X1978060292Y-2110178213D01*
X1978060288Y-2110178210D01*
X1977929185Y-2110090609D01*
X1977929172Y-2110090602D01*
X1977783501Y-2110030264D01*
X1977783489Y-2110030261D01*
X1977628845Y-2109999500D01*
X1977628842Y-2109999500D01*
X1977471158Y-2109999500D01*
X1977471155Y-2109999500D01*
X1977316510Y-2110030261D01*
X1977316498Y-2110030264D01*
X1977170827Y-2110090602D01*
X1977170814Y-2110090609D01*
X1977039711Y-2110178210D01*
X1977039707Y-2110178213D01*
X1976928213Y-2110289707D01*
X1976928210Y-2110289711D01*
X1976840609Y-2110420814D01*
X1976840602Y-2110420827D01*
X1976780264Y-2110566498D01*
X1976780261Y-2110566510D01*
X1976749500Y-2110721153D01*
X1941850500Y-2110721153D01*
X1941850500Y-2108671153D01*
X1971199500Y-2108671153D01*
X1971199500Y-2108828846D01*
X1971230261Y-2108983489D01*
X1971230264Y-2108983501D01*
X1971290602Y-2109129172D01*
X1971290609Y-2109129185D01*
X1971378210Y-2109260288D01*
X1971378213Y-2109260292D01*
X1971489707Y-2109371786D01*
X1971489711Y-2109371789D01*
X1971620814Y-2109459390D01*
X1971620827Y-2109459397D01*
X1971766498Y-2109519735D01*
X1971766503Y-2109519737D01*
X1971921153Y-2109550499D01*
X1971921156Y-2109550500D01*
X1971921158Y-2109550500D01*
X1972078844Y-2109550500D01*
X1972078845Y-2109550499D01*
X1972233497Y-2109519737D01*
X1972379179Y-2109459394D01*
X1972510289Y-2109371789D01*
X1972621789Y-2109260289D01*
X1972709394Y-2109129179D01*
X1972769737Y-2108983497D01*
X1972800500Y-2108828842D01*
X1972800500Y-2108671158D01*
X1972800500Y-2108671155D01*
X1972800499Y-2108671153D01*
X1972769738Y-2108516510D01*
X1972769737Y-2108516503D01*
X1972713853Y-2108381585D01*
X1972709397Y-2108370827D01*
X1972709390Y-2108370814D01*
X1972621789Y-2108239711D01*
X1972621786Y-2108239707D01*
X1972510292Y-2108128213D01*
X1972510288Y-2108128210D01*
X1972379185Y-2108040609D01*
X1972379172Y-2108040602D01*
X1972233501Y-2107980264D01*
X1972233489Y-2107980261D01*
X1972078845Y-2107949500D01*
X1972078842Y-2107949500D01*
X1971921158Y-2107949500D01*
X1971921155Y-2107949500D01*
X1971766510Y-2107980261D01*
X1971766498Y-2107980264D01*
X1971620827Y-2108040602D01*
X1971620814Y-2108040609D01*
X1971489711Y-2108128210D01*
X1971489707Y-2108128213D01*
X1971378213Y-2108239707D01*
X1971378210Y-2108239711D01*
X1971290609Y-2108370814D01*
X1971290602Y-2108370827D01*
X1971230264Y-2108516498D01*
X1971230261Y-2108516510D01*
X1971199500Y-2108671153D01*
X1941850500Y-2108671153D01*
X1941850500Y-2107421153D01*
X1949199500Y-2107421153D01*
X1949199500Y-2107578846D01*
X1949230261Y-2107733489D01*
X1949230264Y-2107733501D01*
X1949290602Y-2107879172D01*
X1949290609Y-2107879185D01*
X1949378210Y-2108010288D01*
X1949378213Y-2108010292D01*
X1949489707Y-2108121786D01*
X1949489711Y-2108121789D01*
X1949620814Y-2108209390D01*
X1949620827Y-2108209397D01*
X1949766498Y-2108269735D01*
X1949766503Y-2108269737D01*
X1949921153Y-2108300499D01*
X1949921156Y-2108300500D01*
X1949921158Y-2108300500D01*
X1950078844Y-2108300500D01*
X1950078845Y-2108300499D01*
X1950233497Y-2108269737D01*
X1950379179Y-2108209394D01*
X1950510289Y-2108121789D01*
X1950621789Y-2108010289D01*
X1950709394Y-2107879179D01*
X1950769737Y-2107733497D01*
X1950782138Y-2107671153D01*
X1954699500Y-2107671153D01*
X1954699500Y-2107828846D01*
X1954730261Y-2107983489D01*
X1954730264Y-2107983501D01*
X1954790602Y-2108129172D01*
X1954790609Y-2108129185D01*
X1954878210Y-2108260288D01*
X1954878213Y-2108260292D01*
X1954989707Y-2108371786D01*
X1954989711Y-2108371789D01*
X1955120814Y-2108459390D01*
X1955120827Y-2108459397D01*
X1955258683Y-2108516498D01*
X1955266503Y-2108519737D01*
X1955421153Y-2108550499D01*
X1955421156Y-2108550500D01*
X1955421158Y-2108550500D01*
X1955578844Y-2108550500D01*
X1955578845Y-2108550499D01*
X1955589179Y-2108548443D01*
X1955614287Y-2108543450D01*
X1955614292Y-2108543449D01*
X1955699800Y-2108526439D01*
X1955733497Y-2108519737D01*
X1955879179Y-2108459394D01*
X1956010289Y-2108371789D01*
X1956121789Y-2108260289D01*
X1956209394Y-2108129179D01*
X1956269737Y-2107983497D01*
X1956300500Y-2107828842D01*
X1956300500Y-2107671158D01*
X1956300500Y-2107671155D01*
X1956300499Y-2107671153D01*
X1956290486Y-2107620814D01*
X1956269737Y-2107516503D01*
X1956269134Y-2107515048D01*
X1956209397Y-2107370827D01*
X1956209390Y-2107370814D01*
X1956121790Y-2107239712D01*
X1956121784Y-2107239705D01*
X1956053232Y-2107171153D01*
X1975699500Y-2107171153D01*
X1975699500Y-2107328846D01*
X1975730261Y-2107483489D01*
X1975730264Y-2107483501D01*
X1975790602Y-2107629172D01*
X1975790609Y-2107629185D01*
X1975878210Y-2107760288D01*
X1975878213Y-2107760292D01*
X1975989707Y-2107871786D01*
X1975989711Y-2107871789D01*
X1976120814Y-2107959390D01*
X1976120827Y-2107959397D01*
X1976266498Y-2108019735D01*
X1976266503Y-2108019737D01*
X1976421153Y-2108050499D01*
X1976421156Y-2108050500D01*
X1976421158Y-2108050500D01*
X1976578844Y-2108050500D01*
X1976578845Y-2108050499D01*
X1976733497Y-2108019737D01*
X1976879179Y-2107959394D01*
X1976936411Y-2107921153D01*
X1983199500Y-2107921153D01*
X1983199500Y-2108078846D01*
X1983230261Y-2108233489D01*
X1983230264Y-2108233501D01*
X1983290602Y-2108379172D01*
X1983290609Y-2108379185D01*
X1983378210Y-2108510288D01*
X1983378213Y-2108510292D01*
X1983489707Y-2108621786D01*
X1983489711Y-2108621789D01*
X1983620814Y-2108709390D01*
X1983620827Y-2108709397D01*
X1983766498Y-2108769735D01*
X1983766503Y-2108769737D01*
X1983887038Y-2108793713D01*
X1983921153Y-2108800499D01*
X1983921156Y-2108800500D01*
X1983921158Y-2108800500D01*
X1984078844Y-2108800500D01*
X1984078845Y-2108800499D01*
X1984233497Y-2108769737D01*
X1984379179Y-2108709394D01*
X1984510289Y-2108621789D01*
X1984621789Y-2108510289D01*
X1984709394Y-2108379179D01*
X1984712854Y-2108370827D01*
X1984741984Y-2108300499D01*
X1984769737Y-2108233497D01*
X1984800500Y-2108078842D01*
X1984800500Y-2107921158D01*
X1984800500Y-2107921155D01*
X1984800499Y-2107921153D01*
X1984769738Y-2107766510D01*
X1984769737Y-2107766503D01*
X1984760809Y-2107744949D01*
X1984709397Y-2107620827D01*
X1984709390Y-2107620814D01*
X1984621789Y-2107489711D01*
X1984621786Y-2107489707D01*
X1984510292Y-2107378213D01*
X1984510288Y-2107378210D01*
X1984379185Y-2107290609D01*
X1984379172Y-2107290602D01*
X1984233501Y-2107230264D01*
X1984233489Y-2107230261D01*
X1984078845Y-2107199500D01*
X1984078842Y-2107199500D01*
X1983921158Y-2107199500D01*
X1983921155Y-2107199500D01*
X1983766510Y-2107230261D01*
X1983766498Y-2107230264D01*
X1983620827Y-2107290602D01*
X1983620814Y-2107290609D01*
X1983489711Y-2107378210D01*
X1983489707Y-2107378213D01*
X1983378213Y-2107489707D01*
X1983378210Y-2107489711D01*
X1983290609Y-2107620814D01*
X1983290602Y-2107620827D01*
X1983230264Y-2107766498D01*
X1983230261Y-2107766510D01*
X1983199500Y-2107921153D01*
X1976936411Y-2107921153D01*
X1977010289Y-2107871789D01*
X1977012188Y-2107869890D01*
X1977054694Y-2107827385D01*
X1977121786Y-2107760292D01*
X1977121789Y-2107760289D01*
X1977209394Y-2107629179D01*
X1977212854Y-2107620827D01*
X1977238647Y-2107558556D01*
X1977269737Y-2107483497D01*
X1977300500Y-2107328842D01*
X1977300500Y-2107171158D01*
X1977300500Y-2107171155D01*
X1977300499Y-2107171153D01*
X1977290486Y-2107120814D01*
X1977269737Y-2107016503D01*
X1977269735Y-2107016498D01*
X1977209397Y-2106870827D01*
X1977209390Y-2106870814D01*
X1977121789Y-2106739711D01*
X1977121786Y-2106739707D01*
X1977010292Y-2106628213D01*
X1977010288Y-2106628210D01*
X1976879185Y-2106540609D01*
X1976879172Y-2106540602D01*
X1976733501Y-2106480264D01*
X1976733489Y-2106480261D01*
X1976578845Y-2106449500D01*
X1976578842Y-2106449500D01*
X1976421158Y-2106449500D01*
X1976421155Y-2106449500D01*
X1976266510Y-2106480261D01*
X1976266498Y-2106480264D01*
X1976120827Y-2106540602D01*
X1976120814Y-2106540609D01*
X1975989711Y-2106628210D01*
X1975989707Y-2106628213D01*
X1975878213Y-2106739707D01*
X1975878210Y-2106739711D01*
X1975790609Y-2106870814D01*
X1975790602Y-2106870827D01*
X1975730264Y-2107016498D01*
X1975730261Y-2107016510D01*
X1975699500Y-2107171153D01*
X1956053232Y-2107171153D01*
X1956010292Y-2107128213D01*
X1956010288Y-2107128210D01*
X1955879185Y-2107040609D01*
X1955879172Y-2107040602D01*
X1955733501Y-2106980264D01*
X1955733489Y-2106980261D01*
X1955578845Y-2106949500D01*
X1955578842Y-2106949500D01*
X1955421158Y-2106949500D01*
X1955421155Y-2106949500D01*
X1955266510Y-2106980261D01*
X1955266498Y-2106980264D01*
X1955120827Y-2107040602D01*
X1955120814Y-2107040609D01*
X1954989711Y-2107128210D01*
X1954989707Y-2107128213D01*
X1954878213Y-2107239707D01*
X1954878210Y-2107239711D01*
X1954790609Y-2107370814D01*
X1954790602Y-2107370827D01*
X1954730264Y-2107516498D01*
X1954730261Y-2107516510D01*
X1954699500Y-2107671153D01*
X1950782138Y-2107671153D01*
X1950783261Y-2107665506D01*
X1950788161Y-2107640875D01*
X1950788161Y-2107640874D01*
X1950800500Y-2107578844D01*
X1950800500Y-2107421155D01*
X1950800499Y-2107421153D01*
X1950774531Y-2107290606D01*
X1950769737Y-2107266503D01*
X1950758640Y-2107239712D01*
X1950709397Y-2107120827D01*
X1950709390Y-2107120814D01*
X1950621789Y-2106989711D01*
X1950621786Y-2106989707D01*
X1950510292Y-2106878213D01*
X1950510288Y-2106878210D01*
X1950379185Y-2106790609D01*
X1950379172Y-2106790602D01*
X1950233501Y-2106730264D01*
X1950233489Y-2106730261D01*
X1950078845Y-2106699500D01*
X1950078842Y-2106699500D01*
X1949921158Y-2106699500D01*
X1949921155Y-2106699500D01*
X1949766510Y-2106730261D01*
X1949766498Y-2106730264D01*
X1949620827Y-2106790602D01*
X1949620814Y-2106790609D01*
X1949489711Y-2106878210D01*
X1949489707Y-2106878213D01*
X1949378213Y-2106989707D01*
X1949378210Y-2106989711D01*
X1949290609Y-2107120814D01*
X1949290602Y-2107120827D01*
X1949230264Y-2107266498D01*
X1949230261Y-2107266510D01*
X1949199500Y-2107421153D01*
X1941850500Y-2107421153D01*
X1941850500Y-2104421153D01*
X1955949500Y-2104421153D01*
X1955949500Y-2104578846D01*
X1955980261Y-2104733489D01*
X1955980264Y-2104733501D01*
X1956040602Y-2104879172D01*
X1956040609Y-2104879185D01*
X1956128210Y-2105010288D01*
X1956128213Y-2105010292D01*
X1956239707Y-2105121786D01*
X1956239711Y-2105121789D01*
X1956370814Y-2105209390D01*
X1956370827Y-2105209397D01*
X1956508683Y-2105266498D01*
X1956516503Y-2105269737D01*
X1956671153Y-2105300499D01*
X1956671156Y-2105300500D01*
X1956671158Y-2105300500D01*
X1956828844Y-2105300500D01*
X1956828845Y-2105300499D01*
X1956983497Y-2105269737D01*
X1957129179Y-2105209394D01*
X1957260289Y-2105121789D01*
X1957371789Y-2105010289D01*
X1957459394Y-2104879179D01*
X1957519737Y-2104733497D01*
X1957550500Y-2104578842D01*
X1957550500Y-2104421158D01*
X1957550500Y-2104421155D01*
X1957550499Y-2104421153D01*
X1957534041Y-2104338414D01*
X1957519737Y-2104266503D01*
X1957504833Y-2104230521D01*
X1957459397Y-2104120827D01*
X1957459390Y-2104120814D01*
X1957371789Y-2103989711D01*
X1957371786Y-2103989707D01*
X1957260292Y-2103878213D01*
X1957260288Y-2103878210D01*
X1957129185Y-2103790609D01*
X1957129172Y-2103790602D01*
X1956983501Y-2103730264D01*
X1956983489Y-2103730261D01*
X1956828845Y-2103699500D01*
X1956828842Y-2103699500D01*
X1956671158Y-2103699500D01*
X1956671155Y-2103699500D01*
X1956516510Y-2103730261D01*
X1956516498Y-2103730264D01*
X1956370827Y-2103790602D01*
X1956370814Y-2103790609D01*
X1956239711Y-2103878210D01*
X1956239707Y-2103878213D01*
X1956128213Y-2103989707D01*
X1956128210Y-2103989711D01*
X1956040609Y-2104120814D01*
X1956040602Y-2104120827D01*
X1955980264Y-2104266498D01*
X1955980261Y-2104266510D01*
X1955949500Y-2104421153D01*
X1941850500Y-2104421153D01*
X1941850500Y-2103171153D01*
X1960699500Y-2103171153D01*
X1960699500Y-2103328846D01*
X1960730261Y-2103483489D01*
X1960730264Y-2103483501D01*
X1960790602Y-2103629172D01*
X1960790609Y-2103629185D01*
X1960878601Y-2103760873D01*
X1960897467Y-2103821124D01*
X1960898438Y-2103820997D01*
X1960899171Y-2103826568D01*
X1960899479Y-2103827550D01*
X1960899492Y-2103829002D01*
X1960899498Y-2103829054D01*
X1960925551Y-2103926286D01*
X1960940423Y-2103981785D01*
X1960962335Y-2104019737D01*
X1960980096Y-2104050500D01*
X1961019479Y-2104118714D01*
X1961019481Y-2104118717D01*
X1961138349Y-2104237585D01*
X1961138355Y-2104237590D01*
X1962415425Y-2105514660D01*
X1962448910Y-2105575983D01*
X1962449361Y-2105578149D01*
X1962480261Y-2105733491D01*
X1962480264Y-2105733501D01*
X1962540602Y-2105879172D01*
X1962540609Y-2105879185D01*
X1962628210Y-2106010288D01*
X1962628213Y-2106010292D01*
X1962739707Y-2106121786D01*
X1962739711Y-2106121789D01*
X1962870814Y-2106209390D01*
X1962870827Y-2106209397D01*
X1962977817Y-2106253713D01*
X1963016503Y-2106269737D01*
X1963171153Y-2106300499D01*
X1963171156Y-2106300500D01*
X1963171158Y-2106300500D01*
X1963328844Y-2106300500D01*
X1963328845Y-2106300499D01*
X1963483497Y-2106269737D01*
X1963629179Y-2106209394D01*
X1963760289Y-2106121789D01*
X1963871789Y-2106010289D01*
X1963959394Y-2105879179D01*
X1964019737Y-2105733497D01*
X1964050500Y-2105578842D01*
X1964050500Y-2105421158D01*
X1964050500Y-2105421155D01*
X1964050499Y-2105421153D01*
X1965949500Y-2105421153D01*
X1965949500Y-2105578846D01*
X1965980261Y-2105733489D01*
X1965980264Y-2105733501D01*
X1966040602Y-2105879172D01*
X1966040609Y-2105879185D01*
X1966128210Y-2106010288D01*
X1966128213Y-2106010292D01*
X1966239707Y-2106121786D01*
X1966239711Y-2106121789D01*
X1966370814Y-2106209390D01*
X1966370827Y-2106209397D01*
X1966477817Y-2106253713D01*
X1966516503Y-2106269737D01*
X1966671153Y-2106300499D01*
X1966671156Y-2106300500D01*
X1966671158Y-2106300500D01*
X1966828844Y-2106300500D01*
X1966828845Y-2106300499D01*
X1966983497Y-2106269737D01*
X1967129179Y-2106209394D01*
X1967260289Y-2106121789D01*
X1967371789Y-2106010289D01*
X1967459394Y-2105879179D01*
X1967519737Y-2105733497D01*
X1967550500Y-2105578842D01*
X1967550500Y-2105421158D01*
X1967550500Y-2105421155D01*
X1967550499Y-2105421153D01*
X1967532347Y-2105329896D01*
X1967519737Y-2105266503D01*
X1967492392Y-2105200486D01*
X1967459397Y-2105120827D01*
X1967459390Y-2105120814D01*
X1967371790Y-2104989712D01*
X1967371784Y-2104989705D01*
X1967303232Y-2104921153D01*
X1975949500Y-2104921153D01*
X1975949500Y-2105078846D01*
X1975980261Y-2105233489D01*
X1975980264Y-2105233501D01*
X1976040602Y-2105379172D01*
X1976040609Y-2105379185D01*
X1976128210Y-2105510288D01*
X1976128213Y-2105510292D01*
X1976239707Y-2105621786D01*
X1976239711Y-2105621789D01*
X1976370814Y-2105709390D01*
X1976370827Y-2105709397D01*
X1976516498Y-2105769735D01*
X1976516503Y-2105769737D01*
X1976671153Y-2105800499D01*
X1976671156Y-2105800500D01*
X1976671158Y-2105800500D01*
X1976828844Y-2105800500D01*
X1976828845Y-2105800499D01*
X1976983497Y-2105769737D01*
X1977129179Y-2105709394D01*
X1977260289Y-2105621789D01*
X1977371789Y-2105510289D01*
X1977431348Y-2105421153D01*
X1980699500Y-2105421153D01*
X1980699500Y-2105578846D01*
X1980730261Y-2105733489D01*
X1980730264Y-2105733501D01*
X1980790602Y-2105879172D01*
X1980790609Y-2105879185D01*
X1980878210Y-2106010288D01*
X1980878213Y-2106010292D01*
X1980989707Y-2106121786D01*
X1980989711Y-2106121789D01*
X1981120814Y-2106209390D01*
X1981120827Y-2106209397D01*
X1981227817Y-2106253713D01*
X1981266503Y-2106269737D01*
X1981421153Y-2106300499D01*
X1981421156Y-2106300500D01*
X1981421158Y-2106300500D01*
X1981578844Y-2106300500D01*
X1981578845Y-2106300499D01*
X1981733497Y-2106269737D01*
X1981879179Y-2106209394D01*
X1982010289Y-2106121789D01*
X1982121789Y-2106010289D01*
X1982209394Y-2105879179D01*
X1982269737Y-2105733497D01*
X1982300500Y-2105578842D01*
X1982300500Y-2105421158D01*
X1982300500Y-2105421155D01*
X1982300499Y-2105421153D01*
X1982282347Y-2105329896D01*
X1982269737Y-2105266503D01*
X1982242392Y-2105200486D01*
X1982209397Y-2105120827D01*
X1982209390Y-2105120814D01*
X1982121789Y-2104989711D01*
X1982121786Y-2104989707D01*
X1982010292Y-2104878213D01*
X1982010288Y-2104878210D01*
X1981879185Y-2104790609D01*
X1981879172Y-2104790602D01*
X1981733501Y-2104730264D01*
X1981733489Y-2104730261D01*
X1981578845Y-2104699500D01*
X1981578842Y-2104699500D01*
X1981421158Y-2104699500D01*
X1981421155Y-2104699500D01*
X1981266510Y-2104730261D01*
X1981266498Y-2104730264D01*
X1981120827Y-2104790602D01*
X1981120814Y-2104790609D01*
X1980989711Y-2104878210D01*
X1980989707Y-2104878213D01*
X1980878213Y-2104989707D01*
X1980878210Y-2104989711D01*
X1980790609Y-2105120814D01*
X1980790602Y-2105120827D01*
X1980730264Y-2105266498D01*
X1980730261Y-2105266510D01*
X1980699500Y-2105421153D01*
X1977431348Y-2105421153D01*
X1977459394Y-2105379179D01*
X1977519737Y-2105233497D01*
X1977550500Y-2105078842D01*
X1977550500Y-2104921158D01*
X1977550500Y-2104921155D01*
X1977550499Y-2104921153D01*
X1977524531Y-2104790606D01*
X1977519737Y-2104766503D01*
X1977506062Y-2104733489D01*
X1977459397Y-2104620827D01*
X1977459390Y-2104620814D01*
X1977371789Y-2104489711D01*
X1977371786Y-2104489707D01*
X1977260292Y-2104378213D01*
X1977260288Y-2104378210D01*
X1977129185Y-2104290609D01*
X1977129172Y-2104290602D01*
X1976983501Y-2104230264D01*
X1976983489Y-2104230261D01*
X1976828845Y-2104199500D01*
X1976828842Y-2104199500D01*
X1976671158Y-2104199500D01*
X1976671155Y-2104199500D01*
X1976516510Y-2104230261D01*
X1976516498Y-2104230264D01*
X1976370827Y-2104290602D01*
X1976370814Y-2104290609D01*
X1976239711Y-2104378210D01*
X1976239707Y-2104378213D01*
X1976128213Y-2104489707D01*
X1976128210Y-2104489711D01*
X1976040609Y-2104620814D01*
X1976040602Y-2104620827D01*
X1975980264Y-2104766498D01*
X1975980261Y-2104766510D01*
X1975949500Y-2104921153D01*
X1967303232Y-2104921153D01*
X1967260292Y-2104878213D01*
X1967260288Y-2104878210D01*
X1967129185Y-2104790609D01*
X1967129172Y-2104790602D01*
X1966983501Y-2104730264D01*
X1966983489Y-2104730261D01*
X1966828845Y-2104699500D01*
X1966828842Y-2104699500D01*
X1966671158Y-2104699500D01*
X1966671155Y-2104699500D01*
X1966516510Y-2104730261D01*
X1966516498Y-2104730264D01*
X1966370827Y-2104790602D01*
X1966370814Y-2104790609D01*
X1966239711Y-2104878210D01*
X1966239707Y-2104878213D01*
X1966128213Y-2104989707D01*
X1966128210Y-2104989711D01*
X1966040609Y-2105120814D01*
X1966040602Y-2105120827D01*
X1965980264Y-2105266498D01*
X1965980261Y-2105266510D01*
X1965949500Y-2105421153D01*
X1964050499Y-2105421153D01*
X1964032347Y-2105329896D01*
X1964019737Y-2105266503D01*
X1963992392Y-2105200486D01*
X1963959397Y-2105120827D01*
X1963959390Y-2105120814D01*
X1963871789Y-2104989711D01*
X1963871786Y-2104989707D01*
X1963760292Y-2104878213D01*
X1963760288Y-2104878210D01*
X1963629185Y-2104790609D01*
X1963629172Y-2104790602D01*
X1963483501Y-2104730264D01*
X1963483491Y-2104730261D01*
X1963328151Y-2104699362D01*
X1963266241Y-2104666977D01*
X1963264662Y-2104665426D01*
X1962273551Y-2103674316D01*
X1962240066Y-2103612993D01*
X1962245050Y-2103543302D01*
X1962246671Y-2103539182D01*
X1962269737Y-2103483497D01*
X1962300500Y-2103328842D01*
X1962300500Y-2103171158D01*
X1962300500Y-2103171155D01*
X1962300499Y-2103171153D01*
X1962278305Y-2103059577D01*
X1962269737Y-2103016503D01*
X1962267163Y-2103010288D01*
X1962209397Y-2102870827D01*
X1962209390Y-2102870814D01*
X1962121789Y-2102739711D01*
X1962121786Y-2102739707D01*
X1962010292Y-2102628213D01*
X1962010288Y-2102628210D01*
X1961879185Y-2102540609D01*
X1961879173Y-2102540602D01*
X1961852674Y-2102529627D01*
X1961733501Y-2102480264D01*
X1961733489Y-2102480261D01*
X1961578845Y-2102449500D01*
X1961578842Y-2102449500D01*
X1961421158Y-2102449500D01*
X1961421155Y-2102449500D01*
X1961266510Y-2102480261D01*
X1961266498Y-2102480264D01*
X1961120827Y-2102540602D01*
X1961120814Y-2102540609D01*
X1960989711Y-2102628210D01*
X1960989707Y-2102628213D01*
X1960878213Y-2102739707D01*
X1960878210Y-2102739711D01*
X1960790609Y-2102870814D01*
X1960790602Y-2102870827D01*
X1960730264Y-2103016498D01*
X1960730261Y-2103016510D01*
X1960699500Y-2103171153D01*
X1941850500Y-2103171153D01*
X1941850500Y-2102421153D01*
X1970949500Y-2102421153D01*
X1970949500Y-2102578846D01*
X1970980261Y-2102733489D01*
X1970980264Y-2102733501D01*
X1971040602Y-2102879172D01*
X1971040609Y-2102879185D01*
X1971128210Y-2103010288D01*
X1971128213Y-2103010292D01*
X1971239707Y-2103121786D01*
X1971239711Y-2103121789D01*
X1971370814Y-2103209390D01*
X1971370827Y-2103209397D01*
X1971516498Y-2103269735D01*
X1971516503Y-2103269737D01*
X1971671153Y-2103300499D01*
X1971671156Y-2103300500D01*
X1971671158Y-2103300500D01*
X1971828844Y-2103300500D01*
X1971828845Y-2103300499D01*
X1971983497Y-2103269737D01*
X1972129179Y-2103209394D01*
X1972129185Y-2103209390D01*
X1972186411Y-2103171153D01*
X1978449500Y-2103171153D01*
X1978449500Y-2103328846D01*
X1978480261Y-2103483489D01*
X1978480264Y-2103483501D01*
X1978540602Y-2103629172D01*
X1978540609Y-2103629185D01*
X1978628210Y-2103760288D01*
X1978628213Y-2103760292D01*
X1978739707Y-2103871786D01*
X1978739711Y-2103871789D01*
X1978870814Y-2103959390D01*
X1978870827Y-2103959397D01*
X1978944013Y-2103989711D01*
X1979016503Y-2104019737D01*
X1979171153Y-2104050499D01*
X1979171156Y-2104050500D01*
X1979171158Y-2104050500D01*
X1979328844Y-2104050500D01*
X1979328845Y-2104050499D01*
X1979483497Y-2104019737D01*
X1979629179Y-2103959394D01*
X1979760289Y-2103871789D01*
X1979871789Y-2103760289D01*
X1979959394Y-2103629179D01*
X1980019737Y-2103483497D01*
X1980050500Y-2103328842D01*
X1980050500Y-2103171158D01*
X1980050500Y-2103171155D01*
X1980050499Y-2103171153D01*
X1980028305Y-2103059577D01*
X1980019737Y-2103016503D01*
X1979980242Y-2102921153D01*
X1984449500Y-2102921153D01*
X1984449500Y-2103078846D01*
X1984480261Y-2103233489D01*
X1984480264Y-2103233501D01*
X1984540602Y-2103379172D01*
X1984540609Y-2103379185D01*
X1984628210Y-2103510288D01*
X1984628213Y-2103510292D01*
X1984739707Y-2103621786D01*
X1984739711Y-2103621789D01*
X1984870814Y-2103709390D01*
X1984870827Y-2103709397D01*
X1985016498Y-2103769735D01*
X1985016503Y-2103769737D01*
X1985146982Y-2103795691D01*
X1985171153Y-2103800499D01*
X1985171156Y-2103800500D01*
X1985171158Y-2103800500D01*
X1985328844Y-2103800500D01*
X1985328845Y-2103800499D01*
X1985483497Y-2103769737D01*
X1985483509Y-2103769731D01*
X1985489324Y-2103767969D01*
X1985490158Y-2103770720D01*
X1985547359Y-2103764497D01*
X1985609878Y-2103795691D01*
X1985645608Y-2103855734D01*
X1985649500Y-2103886555D01*
X1985649500Y-2103926286D01*
X1985679977Y-2104118714D01*
X1985682754Y-2104136243D01*
X1985725078Y-2104266503D01*
X1985748444Y-2104338414D01*
X1985844951Y-2104527820D01*
X1985969890Y-2104699786D01*
X1986120213Y-2104850109D01*
X1986292182Y-2104975050D01*
X1986300946Y-2104979516D01*
X1986351742Y-2105027491D01*
X1986368536Y-2105095312D01*
X1986345998Y-2105161447D01*
X1986300946Y-2105200484D01*
X1986292182Y-2105204949D01*
X1986120213Y-2105329890D01*
X1985969890Y-2105480213D01*
X1985844951Y-2105652179D01*
X1985748444Y-2105841585D01*
X1985682753Y-2106043760D01*
X1985649500Y-2106253713D01*
X1985649500Y-2106466286D01*
X1985675146Y-2106628213D01*
X1985682754Y-2106676243D01*
X1985748378Y-2106878213D01*
X1985748444Y-2106878414D01*
X1985844951Y-2107067820D01*
X1985969890Y-2107239786D01*
X1986120213Y-2107390109D01*
X1986292182Y-2107515050D01*
X1986300946Y-2107519516D01*
X1986351742Y-2107567491D01*
X1986368536Y-2107635312D01*
X1986345998Y-2107701447D01*
X1986300946Y-2107740484D01*
X1986292182Y-2107744949D01*
X1986120213Y-2107869890D01*
X1985969890Y-2108020213D01*
X1985844951Y-2108192179D01*
X1985748444Y-2108381585D01*
X1985682753Y-2108583760D01*
X1985662855Y-2108709394D01*
X1985649500Y-2108793713D01*
X1985649500Y-2109006287D01*
X1985682754Y-2109216243D01*
X1985733294Y-2109371789D01*
X1985748444Y-2109418414D01*
X1985844951Y-2109607820D01*
X1985969890Y-2109779786D01*
X1986120213Y-2109930109D01*
X1986292179Y-2110055048D01*
X1986292181Y-2110055049D01*
X1986292184Y-2110055051D01*
X1986481588Y-2110151557D01*
X1986683757Y-2110217246D01*
X1986893713Y-2110250500D01*
X1986893714Y-2110250500D01*
X1987106286Y-2110250500D01*
X1987106287Y-2110250500D01*
X1987316243Y-2110217246D01*
X1987518412Y-2110151557D01*
X1987707816Y-2110055051D01*
X1987784276Y-2109999500D01*
X1987879786Y-2109930109D01*
X1987879788Y-2109930106D01*
X1987879792Y-2109930104D01*
X1988030104Y-2109779792D01*
X1988030106Y-2109779788D01*
X1988030109Y-2109779786D01*
X1988155048Y-2109607820D01*
X1988155047Y-2109607820D01*
X1988155051Y-2109607816D01*
X1988251557Y-2109418412D01*
X1988317246Y-2109216243D01*
X1988350500Y-2109006287D01*
X1988350500Y-2108793713D01*
X1988317246Y-2108583757D01*
X1988251557Y-2108381588D01*
X1988155051Y-2108192184D01*
X1988155049Y-2108192181D01*
X1988155048Y-2108192179D01*
X1988030109Y-2108020213D01*
X1987879786Y-2107869890D01*
X1987707820Y-2107744951D01*
X1987707115Y-2107744591D01*
X1987699054Y-2107740485D01*
X1987648259Y-2107692512D01*
X1987631463Y-2107624692D01*
X1987653999Y-2107558556D01*
X1987699054Y-2107519515D01*
X1987707816Y-2107515051D01*
X1987837054Y-2107421155D01*
X1987879786Y-2107390109D01*
X1987879788Y-2107390106D01*
X1987879792Y-2107390104D01*
X1988030104Y-2107239792D01*
X1988030106Y-2107239788D01*
X1988030109Y-2107239786D01*
X1988155048Y-2107067820D01*
X1988155047Y-2107067820D01*
X1988155051Y-2107067816D01*
X1988251557Y-2106878412D01*
X1988317246Y-2106676243D01*
X1988350500Y-2106466287D01*
X1988350500Y-2106253713D01*
X1988317246Y-2106043757D01*
X1988251557Y-2105841588D01*
X1988155051Y-2105652184D01*
X1988155049Y-2105652181D01*
X1988155048Y-2105652179D01*
X1988030109Y-2105480213D01*
X1987879786Y-2105329890D01*
X1987707820Y-2105204951D01*
X1987707115Y-2105204591D01*
X1987699054Y-2105200485D01*
X1987648259Y-2105152512D01*
X1987631463Y-2105084692D01*
X1987653999Y-2105018556D01*
X1987699054Y-2104979515D01*
X1987707816Y-2104975051D01*
X1987782001Y-2104921153D01*
X1987879786Y-2104850109D01*
X1987879788Y-2104850106D01*
X1987879792Y-2104850104D01*
X1988030104Y-2104699792D01*
X1988030106Y-2104699788D01*
X1988030109Y-2104699786D01*
X1988155048Y-2104527820D01*
X1988155047Y-2104527820D01*
X1988155051Y-2104527816D01*
X1988251557Y-2104338412D01*
X1988317246Y-2104136243D01*
X1988350500Y-2103926287D01*
X1988350500Y-2103713713D01*
X1988317246Y-2103503757D01*
X1988251557Y-2103301588D01*
X1988155051Y-2103112184D01*
X1988155049Y-2103112181D01*
X1988155048Y-2103112179D01*
X1988030109Y-2102940213D01*
X1987916181Y-2102826285D01*
X1987882696Y-2102764962D01*
X1987887680Y-2102695270D01*
X1987929552Y-2102639337D01*
X1987960529Y-2102622422D01*
X1988092086Y-2102573354D01*
X1988092093Y-2102573350D01*
X1988207187Y-2102487190D01*
X1988207190Y-2102487187D01*
X1988293350Y-2102372093D01*
X1988293354Y-2102372086D01*
X1988343596Y-2102237379D01*
X1988343598Y-2102237372D01*
X1988349999Y-2102177844D01*
X1988350000Y-2102177827D01*
X1988350000Y-2101530000D01*
X1987433012Y-2101530000D01*
X1987465925Y-2101472993D01*
X1987500000Y-2101345826D01*
X1987500000Y-2101214174D01*
X1987465925Y-2101087007D01*
X1987433012Y-2101030000D01*
X1988350000Y-2101030000D01*
X1988350000Y-2100382172D01*
X1988349999Y-2100382155D01*
X1988343598Y-2100322627D01*
X1988343596Y-2100322620D01*
X1988293354Y-2100187913D01*
X1988293350Y-2100187906D01*
X1988207190Y-2100072812D01*
X1988207187Y-2100072809D01*
X1988092093Y-2099986649D01*
X1988092086Y-2099986645D01*
X1987957379Y-2099936403D01*
X1987957372Y-2099936401D01*
X1987897844Y-2099930000D01*
X1987250000Y-2099930000D01*
X1987250000Y-2100846988D01*
X1987192993Y-2100814075D01*
X1987065826Y-2100780000D01*
X1986934174Y-2100780000D01*
X1986807007Y-2100814075D01*
X1986750000Y-2100846988D01*
X1986750000Y-2099930000D01*
X1986102155Y-2099930000D01*
X1986042627Y-2099936401D01*
X1986042620Y-2099936403D01*
X1985907913Y-2099986645D01*
X1985907906Y-2099986649D01*
X1985792812Y-2100072809D01*
X1985792809Y-2100072812D01*
X1985706649Y-2100187906D01*
X1985706645Y-2100187913D01*
X1985656403Y-2100322620D01*
X1985656401Y-2100322627D01*
X1985650000Y-2100382155D01*
X1985650000Y-2101030000D01*
X1986566988Y-2101030000D01*
X1986534075Y-2101087007D01*
X1986500000Y-2101214174D01*
X1986500000Y-2101345826D01*
X1986534075Y-2101472993D01*
X1986566988Y-2101530000D01*
X1985650000Y-2101530000D01*
X1985650000Y-2102113651D01*
X1985630315Y-2102180690D01*
X1985577511Y-2102226445D01*
X1985508353Y-2102236389D01*
X1985489562Y-2102231244D01*
X1985489324Y-2102232031D01*
X1985483500Y-2102230264D01*
X1985483497Y-2102230263D01*
X1985483492Y-2102230262D01*
X1985483489Y-2102230261D01*
X1985328845Y-2102199500D01*
X1985328842Y-2102199500D01*
X1985171158Y-2102199500D01*
X1985171155Y-2102199500D01*
X1985016510Y-2102230261D01*
X1985016498Y-2102230264D01*
X1984870827Y-2102290602D01*
X1984870814Y-2102290609D01*
X1984739711Y-2102378210D01*
X1984739707Y-2102378213D01*
X1984628213Y-2102489707D01*
X1984628210Y-2102489711D01*
X1984540609Y-2102620814D01*
X1984540602Y-2102620827D01*
X1984480264Y-2102766498D01*
X1984480261Y-2102766510D01*
X1984449500Y-2102921153D01*
X1979980242Y-2102921153D01*
X1979979933Y-2102920408D01*
X1979959397Y-2102870827D01*
X1979959390Y-2102870814D01*
X1979871789Y-2102739711D01*
X1979871786Y-2102739707D01*
X1979760292Y-2102628213D01*
X1979760288Y-2102628210D01*
X1979629185Y-2102540609D01*
X1979629172Y-2102540602D01*
X1979483501Y-2102480264D01*
X1979483489Y-2102480261D01*
X1979328845Y-2102449500D01*
X1979328842Y-2102449500D01*
X1979171158Y-2102449500D01*
X1979171155Y-2102449500D01*
X1979016510Y-2102480261D01*
X1979016498Y-2102480264D01*
X1978870827Y-2102540602D01*
X1978870814Y-2102540609D01*
X1978739711Y-2102628210D01*
X1978739707Y-2102628213D01*
X1978628213Y-2102739707D01*
X1978628210Y-2102739711D01*
X1978540609Y-2102870814D01*
X1978540602Y-2102870827D01*
X1978480264Y-2103016498D01*
X1978480261Y-2103016510D01*
X1978449500Y-2103171153D01*
X1972186411Y-2103171153D01*
X1972260875Y-2103121398D01*
X1972327553Y-2103100520D01*
X1972329766Y-2103100500D01*
X1973663331Y-2103100500D01*
X1973663347Y-2103100501D01*
X1973670943Y-2103100501D01*
X1973829054Y-2103100501D01*
X1973829057Y-2103100501D01*
X1973981785Y-2103059577D01*
X1974056391Y-2103016503D01*
X1974118716Y-2102980520D01*
X1974230520Y-2102868716D01*
X1974230520Y-2102868714D01*
X1974240724Y-2102858511D01*
X1974240727Y-2102858506D01*
X1974962417Y-2102136819D01*
X1974989344Y-2102122115D01*
X1975015163Y-2102105523D01*
X1975021363Y-2102104631D01*
X1975023740Y-2102103334D01*
X1975050098Y-2102100500D01*
X1975170234Y-2102100500D01*
X1975237273Y-2102120185D01*
X1975239125Y-2102121398D01*
X1975370814Y-2102209390D01*
X1975370827Y-2102209397D01*
X1975508683Y-2102266498D01*
X1975516503Y-2102269737D01*
X1975671153Y-2102300499D01*
X1975671156Y-2102300500D01*
X1975671158Y-2102300500D01*
X1975828844Y-2102300500D01*
X1975828845Y-2102300499D01*
X1975983497Y-2102269737D01*
X1976129179Y-2102209394D01*
X1976260289Y-2102121789D01*
X1976371789Y-2102010289D01*
X1976459394Y-2101879179D01*
X1976519737Y-2101733497D01*
X1976550500Y-2101578842D01*
X1976550500Y-2101421158D01*
X1976550500Y-2101421155D01*
X1976550499Y-2101421153D01*
X1976531426Y-2101325266D01*
X1976519737Y-2101266503D01*
X1976517163Y-2101260288D01*
X1976459397Y-2101120827D01*
X1976459390Y-2101120814D01*
X1976371789Y-2100989711D01*
X1976371786Y-2100989707D01*
X1976260292Y-2100878213D01*
X1976260288Y-2100878210D01*
X1976129185Y-2100790609D01*
X1976129172Y-2100790602D01*
X1975983501Y-2100730264D01*
X1975983489Y-2100730261D01*
X1975828845Y-2100699500D01*
X1975828842Y-2100699500D01*
X1975671158Y-2100699500D01*
X1975671155Y-2100699500D01*
X1975516510Y-2100730261D01*
X1975516498Y-2100730264D01*
X1975370827Y-2100790602D01*
X1975370814Y-2100790609D01*
X1975239125Y-2100878602D01*
X1975172447Y-2100899480D01*
X1975170234Y-2100899500D01*
X1974836670Y-2100899500D01*
X1974836654Y-2100899499D01*
X1974829058Y-2100899499D01*
X1974670943Y-2100899499D01*
X1974594579Y-2100919961D01*
X1974518214Y-2100940423D01*
X1974518209Y-2100940426D01*
X1974381290Y-2101019475D01*
X1974381282Y-2101019481D01*
X1973537584Y-2101863181D01*
X1973476261Y-2101896666D01*
X1973449903Y-2101899500D01*
X1972329766Y-2101899500D01*
X1972262727Y-2101879815D01*
X1972260875Y-2101878602D01*
X1972129185Y-2101790609D01*
X1972129172Y-2101790602D01*
X1971983501Y-2101730264D01*
X1971983489Y-2101730261D01*
X1971828845Y-2101699500D01*
X1971828842Y-2101699500D01*
X1971671158Y-2101699500D01*
X1971671155Y-2101699500D01*
X1971516510Y-2101730261D01*
X1971516498Y-2101730264D01*
X1971370827Y-2101790602D01*
X1971370814Y-2101790609D01*
X1971239711Y-2101878210D01*
X1971239707Y-2101878213D01*
X1971128213Y-2101989707D01*
X1971128210Y-2101989711D01*
X1971040609Y-2102120814D01*
X1971040602Y-2102120827D01*
X1970980264Y-2102266498D01*
X1970980261Y-2102266510D01*
X1970949500Y-2102421153D01*
X1941850500Y-2102421153D01*
X1941850500Y-2100921153D01*
X1963449500Y-2100921153D01*
X1963449500Y-2101078846D01*
X1963480261Y-2101233489D01*
X1963480264Y-2101233501D01*
X1963540602Y-2101379172D01*
X1963540609Y-2101379185D01*
X1963628210Y-2101510288D01*
X1963628213Y-2101510292D01*
X1963739707Y-2101621786D01*
X1963739711Y-2101621789D01*
X1963870814Y-2101709390D01*
X1963870827Y-2101709397D01*
X1963959015Y-2101745925D01*
X1964016503Y-2101769737D01*
X1964171153Y-2101800499D01*
X1964171156Y-2101800500D01*
X1964171158Y-2101800500D01*
X1964328844Y-2101800500D01*
X1964328845Y-2101800499D01*
X1964483497Y-2101769737D01*
X1964629179Y-2101709394D01*
X1964760289Y-2101621789D01*
X1964871789Y-2101510289D01*
X1964959394Y-2101379179D01*
X1964962854Y-2101370827D01*
X1965002045Y-2101276210D01*
X1965019737Y-2101233497D01*
X1965050500Y-2101078842D01*
X1965050500Y-2100921158D01*
X1965050500Y-2100921155D01*
X1965050499Y-2100921153D01*
X1965032137Y-2100828842D01*
X1965019737Y-2100766503D01*
X1964980242Y-2100671153D01*
X1965949500Y-2100671153D01*
X1965949500Y-2100828846D01*
X1965980261Y-2100983489D01*
X1965980264Y-2100983501D01*
X1966040602Y-2101129172D01*
X1966040609Y-2101129185D01*
X1966128210Y-2101260288D01*
X1966128213Y-2101260292D01*
X1966239707Y-2101371786D01*
X1966239711Y-2101371789D01*
X1966370814Y-2101459390D01*
X1966370827Y-2101459397D01*
X1966508683Y-2101516498D01*
X1966516503Y-2101519737D01*
X1966671153Y-2101550499D01*
X1966671156Y-2101550500D01*
X1966671158Y-2101550500D01*
X1966828844Y-2101550500D01*
X1966828845Y-2101550499D01*
X1966983497Y-2101519737D01*
X1967121635Y-2101462519D01*
X1967129172Y-2101459397D01*
X1967129172Y-2101459396D01*
X1967129179Y-2101459394D01*
X1967260289Y-2101371789D01*
X1967371789Y-2101260289D01*
X1967459394Y-2101129179D01*
X1967462854Y-2101120827D01*
X1967500657Y-2101029561D01*
X1967519737Y-2100983497D01*
X1967550500Y-2100828842D01*
X1967550500Y-2100671158D01*
X1967550500Y-2100671155D01*
X1967550499Y-2100671153D01*
X1967545245Y-2100644738D01*
X1967519737Y-2100516503D01*
X1967511570Y-2100496786D01*
X1967459397Y-2100370827D01*
X1967459390Y-2100370814D01*
X1967371789Y-2100239711D01*
X1967371786Y-2100239707D01*
X1967260292Y-2100128213D01*
X1967260288Y-2100128210D01*
X1967129185Y-2100040609D01*
X1967129172Y-2100040602D01*
X1966983501Y-2099980264D01*
X1966983489Y-2099980261D01*
X1966828845Y-2099949500D01*
X1966828842Y-2099949500D01*
X1966671158Y-2099949500D01*
X1966671155Y-2099949500D01*
X1966516510Y-2099980261D01*
X1966516498Y-2099980264D01*
X1966370827Y-2100040602D01*
X1966370814Y-2100040609D01*
X1966239711Y-2100128210D01*
X1966239707Y-2100128213D01*
X1966128213Y-2100239707D01*
X1966128210Y-2100239711D01*
X1966040609Y-2100370814D01*
X1966040602Y-2100370827D01*
X1965980264Y-2100516498D01*
X1965980261Y-2100516510D01*
X1965949500Y-2100671153D01*
X1964980242Y-2100671153D01*
X1964969301Y-2100644738D01*
X1964959397Y-2100620827D01*
X1964959390Y-2100620814D01*
X1964871789Y-2100489711D01*
X1964871786Y-2100489707D01*
X1964760292Y-2100378213D01*
X1964760288Y-2100378210D01*
X1964629185Y-2100290609D01*
X1964629172Y-2100290602D01*
X1964483501Y-2100230264D01*
X1964483489Y-2100230261D01*
X1964328845Y-2100199500D01*
X1964328842Y-2100199500D01*
X1964171158Y-2100199500D01*
X1964171155Y-2100199500D01*
X1964016510Y-2100230261D01*
X1964016498Y-2100230264D01*
X1963870827Y-2100290602D01*
X1963870814Y-2100290609D01*
X1963739711Y-2100378210D01*
X1963739707Y-2100378213D01*
X1963628213Y-2100489707D01*
X1963628210Y-2100489711D01*
X1963540609Y-2100620814D01*
X1963540602Y-2100620827D01*
X1963480264Y-2100766498D01*
X1963480261Y-2100766510D01*
X1963449500Y-2100921153D01*
X1941850500Y-2100921153D01*
X1941850500Y-2094353713D01*
X1943899500Y-2094353713D01*
X1943899500Y-2094566287D01*
X1943932754Y-2094776243D01*
X1943959452Y-2094858412D01*
X1943998444Y-2094978414D01*
X1944094951Y-2095167820D01*
X1944219890Y-2095339786D01*
X1944333430Y-2095453326D01*
X1944366915Y-2095514649D01*
X1944361931Y-2095584341D01*
X1944320059Y-2095640274D01*
X1944289083Y-2095657189D01*
X1944157669Y-2095706203D01*
X1944157664Y-2095706206D01*
X1944042455Y-2095792452D01*
X1944042452Y-2095792455D01*
X1943956206Y-2095907664D01*
X1943956202Y-2095907671D01*
X1943905908Y-2096042517D01*
X1943899501Y-2096102116D01*
X1943899501Y-2096102123D01*
X1943899500Y-2096102135D01*
X1943899500Y-2097897870D01*
X1943899501Y-2097897876D01*
X1943905908Y-2097957483D01*
X1943956202Y-2098092328D01*
X1943956206Y-2098092335D01*
X1944042452Y-2098207544D01*
X1944042455Y-2098207547D01*
X1944157664Y-2098293793D01*
X1944157671Y-2098293797D01*
X1944292517Y-2098344091D01*
X1944292516Y-2098344091D01*
X1944299444Y-2098344835D01*
X1944352127Y-2098350500D01*
X1945699902Y-2098350499D01*
X1945766941Y-2098370184D01*
X1945787583Y-2098386818D01*
X1946015139Y-2098614374D01*
X1946015149Y-2098614385D01*
X1946019479Y-2098618715D01*
X1946019480Y-2098618716D01*
X1946131284Y-2098730520D01*
X1946193609Y-2098766503D01*
X1946268215Y-2098809577D01*
X1946420943Y-2098850501D01*
X1946420946Y-2098850501D01*
X1946586653Y-2098850501D01*
X1946586669Y-2098850500D01*
X1951663289Y-2098850500D01*
X1951730328Y-2098870185D01*
X1951776083Y-2098922989D01*
X1951786027Y-2098992147D01*
X1951757002Y-2099055703D01*
X1951698224Y-2099093477D01*
X1951687480Y-2099096117D01*
X1951641510Y-2099105261D01*
X1951641498Y-2099105264D01*
X1951495827Y-2099165602D01*
X1951495814Y-2099165609D01*
X1951364711Y-2099253210D01*
X1951364707Y-2099253213D01*
X1951253213Y-2099364707D01*
X1951253210Y-2099364711D01*
X1951165609Y-2099495814D01*
X1951165602Y-2099495827D01*
X1951105264Y-2099641498D01*
X1951105261Y-2099641510D01*
X1951074500Y-2099796153D01*
X1951074500Y-2099953846D01*
X1951105261Y-2100108489D01*
X1951105264Y-2100108501D01*
X1951165602Y-2100254172D01*
X1951165609Y-2100254185D01*
X1951253210Y-2100385288D01*
X1951253213Y-2100385292D01*
X1951364707Y-2100496786D01*
X1951364711Y-2100496789D01*
X1951495814Y-2100584390D01*
X1951495827Y-2100584397D01*
X1951641498Y-2100644735D01*
X1951641503Y-2100644737D01*
X1951796153Y-2100675499D01*
X1951796156Y-2100675500D01*
X1951796158Y-2100675500D01*
X1951953844Y-2100675500D01*
X1951953845Y-2100675499D01*
X1952108497Y-2100644737D01*
X1952254179Y-2100584394D01*
X1952385289Y-2100496789D01*
X1952496789Y-2100385289D01*
X1952584394Y-2100254179D01*
X1952590389Y-2100239707D01*
X1952636571Y-2100128211D01*
X1952644737Y-2100108497D01*
X1952675500Y-2099953842D01*
X1952675500Y-2099796158D01*
X1952675500Y-2099796155D01*
X1952675499Y-2099796153D01*
X1952670245Y-2099769738D01*
X1952644737Y-2099641503D01*
X1952619952Y-2099581666D01*
X1952584397Y-2099495827D01*
X1952584390Y-2099495814D01*
X1952496789Y-2099364711D01*
X1952496786Y-2099364707D01*
X1952385292Y-2099253213D01*
X1952385288Y-2099253210D01*
X1952254185Y-2099165609D01*
X1952254172Y-2099165602D01*
X1952108501Y-2099105264D01*
X1952108489Y-2099105261D01*
X1952062520Y-2099096117D01*
X1952000609Y-2099063732D01*
X1951966035Y-2099003016D01*
X1951969774Y-2098933247D01*
X1952010641Y-2098876575D01*
X1952075659Y-2098850994D01*
X1952086711Y-2098850500D01*
X1955246561Y-2098850500D01*
X1955313600Y-2098870185D01*
X1955359355Y-2098922989D01*
X1955369299Y-2098992147D01*
X1955340274Y-2099055703D01*
X1955315452Y-2099077602D01*
X1955239711Y-2099128210D01*
X1955239707Y-2099128213D01*
X1955128213Y-2099239707D01*
X1955128210Y-2099239711D01*
X1955040609Y-2099370814D01*
X1955040602Y-2099370827D01*
X1954980264Y-2099516498D01*
X1954980261Y-2099516510D01*
X1954949500Y-2099671153D01*
X1954949500Y-2099828846D01*
X1954980261Y-2099983489D01*
X1954980264Y-2099983501D01*
X1955040602Y-2100129172D01*
X1955040609Y-2100129185D01*
X1955128210Y-2100260288D01*
X1955128213Y-2100260292D01*
X1955239707Y-2100371786D01*
X1955239711Y-2100371789D01*
X1955370814Y-2100459390D01*
X1955370827Y-2100459397D01*
X1955461101Y-2100496789D01*
X1955516503Y-2100519737D01*
X1955671153Y-2100550499D01*
X1955671156Y-2100550500D01*
X1955671158Y-2100550500D01*
X1955828844Y-2100550500D01*
X1955828845Y-2100550499D01*
X1955983497Y-2100519737D01*
X1956129179Y-2100459394D01*
X1956260289Y-2100371789D01*
X1956371789Y-2100260289D01*
X1956459394Y-2100129179D01*
X1956459795Y-2100128210D01*
X1956510439Y-2100005945D01*
X1956554279Y-2099951541D01*
X1956620573Y-2099929476D01*
X1956688273Y-2099946755D01*
X1956735884Y-2099997892D01*
X1956739561Y-2100005945D01*
X1956790602Y-2100129172D01*
X1956790609Y-2100129185D01*
X1956878210Y-2100260288D01*
X1956878213Y-2100260292D01*
X1956989707Y-2100371786D01*
X1956989711Y-2100371789D01*
X1957120814Y-2100459390D01*
X1957120827Y-2100459397D01*
X1957211101Y-2100496789D01*
X1957266503Y-2100519737D01*
X1957421153Y-2100550499D01*
X1957421156Y-2100550500D01*
X1957421158Y-2100550500D01*
X1957578844Y-2100550500D01*
X1957578845Y-2100550499D01*
X1957733497Y-2100519737D01*
X1957879179Y-2100459394D01*
X1958010289Y-2100371789D01*
X1958121789Y-2100260289D01*
X1958209394Y-2100129179D01*
X1958212854Y-2100120827D01*
X1958232743Y-2100072809D01*
X1958269737Y-2099983497D01*
X1958300500Y-2099828842D01*
X1958300500Y-2099671158D01*
X1958300500Y-2099671155D01*
X1958300499Y-2099671153D01*
X1958299938Y-2099668334D01*
X1958269737Y-2099516503D01*
X1958261170Y-2099495821D01*
X1958209397Y-2099370827D01*
X1958209390Y-2099370814D01*
X1958121789Y-2099239711D01*
X1958121786Y-2099239707D01*
X1958010292Y-2099128213D01*
X1958010288Y-2099128210D01*
X1957934548Y-2099077602D01*
X1957889743Y-2099023990D01*
X1957881036Y-2098954665D01*
X1957911190Y-2098891637D01*
X1957970634Y-2098854918D01*
X1958003439Y-2098850500D01*
X1959420234Y-2098850500D01*
X1959487273Y-2098870185D01*
X1959489125Y-2098871398D01*
X1959620814Y-2098959390D01*
X1959620827Y-2098959397D01*
X1959766498Y-2099019735D01*
X1959766503Y-2099019737D01*
X1959871418Y-2099040606D01*
X1959921153Y-2099050499D01*
X1959921156Y-2099050500D01*
X1959921158Y-2099050500D01*
X1960078844Y-2099050500D01*
X1960078845Y-2099050499D01*
X1960233497Y-2099019737D01*
X1960379179Y-2098959394D01*
X1960510289Y-2098871789D01*
X1960621789Y-2098760289D01*
X1960709394Y-2098629179D01*
X1960712854Y-2098620827D01*
X1960741984Y-2098550499D01*
X1960769737Y-2098483497D01*
X1960800500Y-2098328842D01*
X1960800500Y-2098171158D01*
X1960800500Y-2098171155D01*
X1960800499Y-2098171153D01*
X1960792148Y-2098129172D01*
X1960769737Y-2098016503D01*
X1960747082Y-2097961809D01*
X1960709397Y-2097870827D01*
X1960709390Y-2097870814D01*
X1960621789Y-2097739711D01*
X1960621786Y-2097739707D01*
X1960510292Y-2097628213D01*
X1960510288Y-2097628210D01*
X1960379185Y-2097540609D01*
X1960379172Y-2097540602D01*
X1960233501Y-2097480264D01*
X1960233489Y-2097480261D01*
X1960078845Y-2097449500D01*
X1960078842Y-2097449500D01*
X1959921158Y-2097449500D01*
X1959921155Y-2097449500D01*
X1959766510Y-2097480261D01*
X1959766498Y-2097480264D01*
X1959620827Y-2097540602D01*
X1959620814Y-2097540609D01*
X1959489125Y-2097628602D01*
X1959422447Y-2097649480D01*
X1959420234Y-2097649500D01*
X1946800097Y-2097649500D01*
X1946770656Y-2097640855D01*
X1946740670Y-2097634332D01*
X1946735654Y-2097630577D01*
X1946733058Y-2097629815D01*
X1946712416Y-2097613181D01*
X1946636818Y-2097537583D01*
X1946603333Y-2097476260D01*
X1946600499Y-2097449902D01*
X1946600499Y-2096421153D01*
X1953699500Y-2096421153D01*
X1953699500Y-2096578846D01*
X1953730261Y-2096733489D01*
X1953730264Y-2096733501D01*
X1953790602Y-2096879172D01*
X1953790609Y-2096879185D01*
X1953878210Y-2097010288D01*
X1953878213Y-2097010292D01*
X1953989707Y-2097121786D01*
X1953989711Y-2097121789D01*
X1954120814Y-2097209390D01*
X1954120827Y-2097209397D01*
X1954194013Y-2097239711D01*
X1954266503Y-2097269737D01*
X1954421153Y-2097300499D01*
X1954421156Y-2097300500D01*
X1954421158Y-2097300500D01*
X1954578844Y-2097300500D01*
X1954578845Y-2097300499D01*
X1954733497Y-2097269737D01*
X1954879179Y-2097209394D01*
X1954936411Y-2097171153D01*
X1962449500Y-2097171153D01*
X1962449500Y-2097328846D01*
X1962480261Y-2097483489D01*
X1962480264Y-2097483501D01*
X1962540602Y-2097629172D01*
X1962540609Y-2097629185D01*
X1962628210Y-2097760288D01*
X1962628213Y-2097760292D01*
X1962739707Y-2097871786D01*
X1962739711Y-2097871789D01*
X1962870814Y-2097959390D01*
X1962870827Y-2097959397D01*
X1963008683Y-2098016498D01*
X1963016503Y-2098019737D01*
X1963171153Y-2098050499D01*
X1963171156Y-2098050500D01*
X1963327098Y-2098050500D01*
X1963394137Y-2098070185D01*
X1963439892Y-2098122989D01*
X1963449836Y-2098192147D01*
X1963420811Y-2098255703D01*
X1963374549Y-2098289062D01*
X1963370821Y-2098290605D01*
X1963370814Y-2098290609D01*
X1963239711Y-2098378210D01*
X1963239707Y-2098378213D01*
X1963128213Y-2098489707D01*
X1963128210Y-2098489711D01*
X1963040609Y-2098620814D01*
X1963040602Y-2098620827D01*
X1962980264Y-2098766498D01*
X1962980261Y-2098766510D01*
X1962949500Y-2098921153D01*
X1962949500Y-2099078846D01*
X1962980261Y-2099233489D01*
X1962980264Y-2099233501D01*
X1963040602Y-2099379172D01*
X1963040609Y-2099379185D01*
X1963128210Y-2099510288D01*
X1963128213Y-2099510292D01*
X1963239707Y-2099621786D01*
X1963239711Y-2099621789D01*
X1963370814Y-2099709390D01*
X1963370827Y-2099709397D01*
X1963444013Y-2099739711D01*
X1963516503Y-2099769737D01*
X1963671153Y-2099800499D01*
X1963671156Y-2099800500D01*
X1963671158Y-2099800500D01*
X1963828844Y-2099800500D01*
X1963828845Y-2099800499D01*
X1963983497Y-2099769737D01*
X1964096166Y-2099723067D01*
X1964129172Y-2099709397D01*
X1964129172Y-2099709396D01*
X1964129179Y-2099709394D01*
X1964260289Y-2099621789D01*
X1964371789Y-2099510289D01*
X1964459394Y-2099379179D01*
X1964462854Y-2099370827D01*
X1964511571Y-2099253211D01*
X1964519737Y-2099233497D01*
X1964550500Y-2099078842D01*
X1964550500Y-2098921158D01*
X1964550500Y-2098921155D01*
X1964550499Y-2098921153D01*
X1964528305Y-2098809577D01*
X1964519737Y-2098766503D01*
X1964504833Y-2098730521D01*
X1964459397Y-2098620827D01*
X1964459390Y-2098620814D01*
X1964371789Y-2098489711D01*
X1964371786Y-2098489707D01*
X1964260292Y-2098378213D01*
X1964260288Y-2098378210D01*
X1964129185Y-2098290609D01*
X1964129172Y-2098290602D01*
X1963983501Y-2098230264D01*
X1963983489Y-2098230261D01*
X1963828845Y-2098199500D01*
X1963828842Y-2098199500D01*
X1963672902Y-2098199500D01*
X1963605863Y-2098179815D01*
X1963560108Y-2098127011D01*
X1963550164Y-2098057853D01*
X1963579189Y-2097994297D01*
X1963625451Y-2097960938D01*
X1963629179Y-2097959394D01*
X1963760289Y-2097871789D01*
X1963871789Y-2097760289D01*
X1963959394Y-2097629179D01*
X1964019737Y-2097483497D01*
X1964050500Y-2097328842D01*
X1964050500Y-2097171158D01*
X1964050500Y-2097171155D01*
X1964050499Y-2097171153D01*
X1964031847Y-2097077385D01*
X1964019737Y-2097016503D01*
X1964007221Y-2096986286D01*
X1963959397Y-2096870827D01*
X1963959390Y-2096870814D01*
X1963871789Y-2096739711D01*
X1963871786Y-2096739707D01*
X1963760292Y-2096628213D01*
X1963760288Y-2096628210D01*
X1963629185Y-2096540609D01*
X1963629173Y-2096540602D01*
X1963602674Y-2096529627D01*
X1963483501Y-2096480264D01*
X1963483489Y-2096480261D01*
X1963328845Y-2096449500D01*
X1963328842Y-2096449500D01*
X1963171158Y-2096449500D01*
X1963171155Y-2096449500D01*
X1963016510Y-2096480261D01*
X1963016498Y-2096480264D01*
X1962870827Y-2096540602D01*
X1962870814Y-2096540609D01*
X1962739711Y-2096628210D01*
X1962739707Y-2096628213D01*
X1962628213Y-2096739707D01*
X1962628210Y-2096739711D01*
X1962540609Y-2096870814D01*
X1962540602Y-2096870827D01*
X1962480264Y-2097016498D01*
X1962480261Y-2097016510D01*
X1962449500Y-2097171153D01*
X1954936411Y-2097171153D01*
X1955010289Y-2097121789D01*
X1955010292Y-2097121786D01*
X1955054694Y-2097077385D01*
X1955121786Y-2097010292D01*
X1955121789Y-2097010289D01*
X1955209394Y-2096879179D01*
X1955212854Y-2096870827D01*
X1955236320Y-2096814174D01*
X1955269737Y-2096733497D01*
X1955300500Y-2096578842D01*
X1955300500Y-2096421158D01*
X1955300500Y-2096421155D01*
X1955300499Y-2096421153D01*
X1965949500Y-2096421153D01*
X1965949500Y-2096578846D01*
X1965980261Y-2096733489D01*
X1965980264Y-2096733501D01*
X1966040602Y-2096879172D01*
X1966040609Y-2096879185D01*
X1966128210Y-2097010288D01*
X1966128213Y-2097010292D01*
X1966239707Y-2097121786D01*
X1966239711Y-2097121789D01*
X1966370814Y-2097209390D01*
X1966370827Y-2097209397D01*
X1966444013Y-2097239711D01*
X1966516503Y-2097269737D01*
X1966671153Y-2097300499D01*
X1966671156Y-2097300500D01*
X1966821731Y-2097300500D01*
X1966888770Y-2097320185D01*
X1966934525Y-2097372989D01*
X1966944469Y-2097442147D01*
X1966915444Y-2097505703D01*
X1966894373Y-2097524292D01*
X1966894419Y-2097524347D01*
X1966892880Y-2097525609D01*
X1966890621Y-2097527603D01*
X1966889708Y-2097528212D01*
X1966778213Y-2097639707D01*
X1966778210Y-2097639711D01*
X1966690609Y-2097770814D01*
X1966690602Y-2097770827D01*
X1966630264Y-2097916498D01*
X1966630261Y-2097916510D01*
X1966599500Y-2098071153D01*
X1966599500Y-2098228846D01*
X1966630261Y-2098383489D01*
X1966630264Y-2098383501D01*
X1966690602Y-2098529172D01*
X1966690609Y-2098529185D01*
X1966778210Y-2098660288D01*
X1966778213Y-2098660292D01*
X1966889707Y-2098771786D01*
X1966889711Y-2098771789D01*
X1967020814Y-2098859390D01*
X1967020827Y-2098859397D01*
X1967166498Y-2098919735D01*
X1967166503Y-2098919737D01*
X1967316131Y-2098949500D01*
X1967321153Y-2098950499D01*
X1967321156Y-2098950500D01*
X1967321158Y-2098950500D01*
X1967478844Y-2098950500D01*
X1967478845Y-2098950499D01*
X1967626378Y-2098921153D01*
X1970699500Y-2098921153D01*
X1970699500Y-2099078846D01*
X1970730261Y-2099233489D01*
X1970730264Y-2099233501D01*
X1970790602Y-2099379172D01*
X1970790609Y-2099379185D01*
X1970878210Y-2099510288D01*
X1970878213Y-2099510292D01*
X1970905240Y-2099537319D01*
X1970938725Y-2099598642D01*
X1970933741Y-2099668334D01*
X1970905240Y-2099712681D01*
X1970878213Y-2099739707D01*
X1970878210Y-2099739711D01*
X1970790609Y-2099870814D01*
X1970790602Y-2099870827D01*
X1970730264Y-2100016498D01*
X1970730261Y-2100016510D01*
X1970699500Y-2100171153D01*
X1970699500Y-2100328846D01*
X1970730261Y-2100483489D01*
X1970730264Y-2100483501D01*
X1970790602Y-2100629172D01*
X1970790609Y-2100629185D01*
X1970878210Y-2100760288D01*
X1970878213Y-2100760292D01*
X1970989707Y-2100871786D01*
X1970989711Y-2100871789D01*
X1971120814Y-2100959390D01*
X1971120827Y-2100959397D01*
X1971265885Y-2101019481D01*
X1971266503Y-2101019737D01*
X1971421153Y-2101050499D01*
X1971421156Y-2101050500D01*
X1971421158Y-2101050500D01*
X1971578844Y-2101050500D01*
X1971578845Y-2101050499D01*
X1971733497Y-2101019737D01*
X1971879179Y-2100959394D01*
X1972010289Y-2100871789D01*
X1972121789Y-2100760289D01*
X1972209394Y-2100629179D01*
X1972212854Y-2100620827D01*
X1972241984Y-2100550499D01*
X1972269737Y-2100483497D01*
X1972282138Y-2100421153D01*
X1980449500Y-2100421153D01*
X1980449500Y-2100578846D01*
X1980480261Y-2100733489D01*
X1980480264Y-2100733501D01*
X1980540602Y-2100879172D01*
X1980540609Y-2100879185D01*
X1980628210Y-2101010288D01*
X1980628213Y-2101010292D01*
X1980739708Y-2101121787D01*
X1980739711Y-2101121789D01*
X1980786832Y-2101153274D01*
X1980831636Y-2101206885D01*
X1980840344Y-2101276210D01*
X1980821044Y-2101325266D01*
X1980790608Y-2101370816D01*
X1980790602Y-2101370827D01*
X1980730264Y-2101516498D01*
X1980730261Y-2101516510D01*
X1980699500Y-2101671153D01*
X1980699500Y-2101828846D01*
X1980730261Y-2101983489D01*
X1980730264Y-2101983501D01*
X1980790602Y-2102129172D01*
X1980790609Y-2102129185D01*
X1980878210Y-2102260288D01*
X1980878213Y-2102260292D01*
X1980989707Y-2102371786D01*
X1980989711Y-2102371789D01*
X1981120814Y-2102459390D01*
X1981120827Y-2102459397D01*
X1981194013Y-2102489711D01*
X1981266503Y-2102519737D01*
X1981421153Y-2102550499D01*
X1981421156Y-2102550500D01*
X1981421158Y-2102550500D01*
X1981578844Y-2102550500D01*
X1981578845Y-2102550499D01*
X1981733497Y-2102519737D01*
X1981879179Y-2102459394D01*
X1982010289Y-2102371789D01*
X1982121789Y-2102260289D01*
X1982209394Y-2102129179D01*
X1982212854Y-2102120827D01*
X1982267163Y-2101989711D01*
X1982269737Y-2101983497D01*
X1982300500Y-2101828842D01*
X1982300500Y-2101671158D01*
X1982300500Y-2101671155D01*
X1982300499Y-2101671153D01*
X1982276499Y-2101550499D01*
X1982269737Y-2101516503D01*
X1982230242Y-2101421153D01*
X1982699500Y-2101421153D01*
X1982699500Y-2101578846D01*
X1982730261Y-2101733489D01*
X1982730264Y-2101733501D01*
X1982790602Y-2101879172D01*
X1982790609Y-2101879185D01*
X1982878210Y-2102010288D01*
X1982878213Y-2102010292D01*
X1982989707Y-2102121786D01*
X1982989711Y-2102121789D01*
X1983120814Y-2102209390D01*
X1983120827Y-2102209397D01*
X1983258683Y-2102266498D01*
X1983266503Y-2102269737D01*
X1983421153Y-2102300499D01*
X1983421156Y-2102300500D01*
X1983421158Y-2102300500D01*
X1983578844Y-2102300500D01*
X1983578845Y-2102300499D01*
X1983733497Y-2102269737D01*
X1983879179Y-2102209394D01*
X1984010289Y-2102121789D01*
X1984121789Y-2102010289D01*
X1984209394Y-2101879179D01*
X1984269737Y-2101733497D01*
X1984300500Y-2101578842D01*
X1984300500Y-2101421158D01*
X1984300500Y-2101421155D01*
X1984300499Y-2101421153D01*
X1984281426Y-2101325266D01*
X1984269737Y-2101266503D01*
X1984267163Y-2101260288D01*
X1984209397Y-2101120827D01*
X1984209390Y-2101120814D01*
X1984121789Y-2100989711D01*
X1984121786Y-2100989707D01*
X1984010292Y-2100878213D01*
X1984010288Y-2100878210D01*
X1983879185Y-2100790609D01*
X1983879172Y-2100790602D01*
X1983733501Y-2100730264D01*
X1983733489Y-2100730261D01*
X1983578845Y-2100699500D01*
X1983578842Y-2100699500D01*
X1983421158Y-2100699500D01*
X1983421155Y-2100699500D01*
X1983266510Y-2100730261D01*
X1983266498Y-2100730264D01*
X1983120827Y-2100790602D01*
X1983120814Y-2100790609D01*
X1982989711Y-2100878210D01*
X1982989707Y-2100878213D01*
X1982878213Y-2100989707D01*
X1982878210Y-2100989711D01*
X1982790609Y-2101120814D01*
X1982790602Y-2101120827D01*
X1982730264Y-2101266498D01*
X1982730261Y-2101266510D01*
X1982699500Y-2101421153D01*
X1982230242Y-2101421153D01*
X1982229933Y-2101420408D01*
X1982209397Y-2101370827D01*
X1982209390Y-2101370814D01*
X1982121789Y-2101239711D01*
X1982121786Y-2101239707D01*
X1982010292Y-2101128213D01*
X1982010284Y-2101128207D01*
X1981963168Y-2101096725D01*
X1981918362Y-2101043113D01*
X1981909655Y-2100973788D01*
X1981928957Y-2100924731D01*
X1981931344Y-2100921158D01*
X1981959394Y-2100879179D01*
X1982019737Y-2100733497D01*
X1982050500Y-2100578842D01*
X1982050500Y-2100421158D01*
X1982050500Y-2100421155D01*
X1982046897Y-2100403043D01*
X1982046897Y-2100403042D01*
X1982024531Y-2100290606D01*
X1982019737Y-2100266503D01*
X1982014629Y-2100254172D01*
X1981959397Y-2100120827D01*
X1981959390Y-2100120814D01*
X1981871789Y-2099989711D01*
X1981871786Y-2099989707D01*
X1981760292Y-2099878213D01*
X1981760288Y-2099878210D01*
X1981629185Y-2099790609D01*
X1981629172Y-2099790602D01*
X1981483501Y-2099730264D01*
X1981483489Y-2099730261D01*
X1981328845Y-2099699500D01*
X1981328842Y-2099699500D01*
X1981171158Y-2099699500D01*
X1981171155Y-2099699500D01*
X1981016510Y-2099730261D01*
X1981016498Y-2099730264D01*
X1980870827Y-2099790602D01*
X1980870814Y-2099790609D01*
X1980739711Y-2099878210D01*
X1980739707Y-2099878213D01*
X1980628213Y-2099989707D01*
X1980628210Y-2099989711D01*
X1980540609Y-2100120814D01*
X1980540602Y-2100120827D01*
X1980480264Y-2100266498D01*
X1980480261Y-2100266510D01*
X1980449500Y-2100421153D01*
X1972282138Y-2100421153D01*
X1972283261Y-2100415506D01*
X1972288161Y-2100390875D01*
X1972288161Y-2100390874D01*
X1972300500Y-2100328844D01*
X1972300500Y-2100171155D01*
X1972300499Y-2100171153D01*
X1972288034Y-2100108489D01*
X1972269737Y-2100016503D01*
X1972262028Y-2099997892D01*
X1972209397Y-2099870827D01*
X1972209390Y-2099870814D01*
X1972121789Y-2099739711D01*
X1972121786Y-2099739707D01*
X1972094760Y-2099712681D01*
X1972061275Y-2099651358D01*
X1972066259Y-2099581666D01*
X1972094760Y-2099537319D01*
X1972121786Y-2099510292D01*
X1972121789Y-2099510289D01*
X1972209394Y-2099379179D01*
X1972212854Y-2099370827D01*
X1972261571Y-2099253211D01*
X1972269737Y-2099233497D01*
X1972300500Y-2099078842D01*
X1972300500Y-2098921158D01*
X1972300500Y-2098921155D01*
X1972300499Y-2098921153D01*
X1972278305Y-2098809577D01*
X1972269737Y-2098766503D01*
X1972254833Y-2098730521D01*
X1972209397Y-2098620827D01*
X1972209390Y-2098620814D01*
X1972121789Y-2098489711D01*
X1972121786Y-2098489707D01*
X1972010292Y-2098378213D01*
X1972010288Y-2098378210D01*
X1971879185Y-2098290609D01*
X1971879172Y-2098290602D01*
X1971733501Y-2098230264D01*
X1971733489Y-2098230261D01*
X1971578845Y-2098199500D01*
X1971578842Y-2098199500D01*
X1971421158Y-2098199500D01*
X1971421155Y-2098199500D01*
X1971266510Y-2098230261D01*
X1971266498Y-2098230264D01*
X1971120827Y-2098290602D01*
X1971120814Y-2098290609D01*
X1970989711Y-2098378210D01*
X1970989707Y-2098378213D01*
X1970878213Y-2098489707D01*
X1970878210Y-2098489711D01*
X1970790609Y-2098620814D01*
X1970790602Y-2098620827D01*
X1970730264Y-2098766498D01*
X1970730261Y-2098766510D01*
X1970699500Y-2098921153D01*
X1967626378Y-2098921153D01*
X1967633497Y-2098919737D01*
X1967779179Y-2098859394D01*
X1967785878Y-2098854918D01*
X1967850164Y-2098811964D01*
X1967881224Y-2098791209D01*
X1967910289Y-2098771789D01*
X1968021789Y-2098660289D01*
X1968109394Y-2098529179D01*
X1968169737Y-2098383497D01*
X1968200500Y-2098228842D01*
X1968200500Y-2098071158D01*
X1968200500Y-2098071155D01*
X1968200499Y-2098071153D01*
X1968185405Y-2097995270D01*
X1968169737Y-2097916503D01*
X1968167087Y-2097910105D01*
X1968109397Y-2097770827D01*
X1968109390Y-2097770814D01*
X1968021789Y-2097639711D01*
X1968021786Y-2097639707D01*
X1967910292Y-2097528213D01*
X1967910288Y-2097528210D01*
X1967779185Y-2097440609D01*
X1967779172Y-2097440602D01*
X1967633501Y-2097380264D01*
X1967633489Y-2097380261D01*
X1967478845Y-2097349500D01*
X1967478842Y-2097349500D01*
X1967328269Y-2097349500D01*
X1967261230Y-2097329815D01*
X1967215475Y-2097277011D01*
X1967205531Y-2097207853D01*
X1967234556Y-2097144297D01*
X1967255626Y-2097125707D01*
X1967255581Y-2097125653D01*
X1967257119Y-2097124390D01*
X1967259379Y-2097122397D01*
X1967260289Y-2097121789D01*
X1967371789Y-2097010289D01*
X1967459394Y-2096879179D01*
X1967462854Y-2096870827D01*
X1967486320Y-2096814174D01*
X1967519737Y-2096733497D01*
X1967550500Y-2096578842D01*
X1967550500Y-2096421158D01*
X1967550500Y-2096421155D01*
X1967550499Y-2096421153D01*
X1967524531Y-2096290606D01*
X1967519737Y-2096266503D01*
X1967480242Y-2096171153D01*
X1975699500Y-2096171153D01*
X1975699500Y-2096328846D01*
X1975730261Y-2096483489D01*
X1975730264Y-2096483501D01*
X1975790602Y-2096629172D01*
X1975790609Y-2096629185D01*
X1975878210Y-2096760288D01*
X1975878213Y-2096760292D01*
X1975989707Y-2096871786D01*
X1975989711Y-2096871789D01*
X1976120814Y-2096959390D01*
X1976120827Y-2096959397D01*
X1976258683Y-2097016498D01*
X1976266503Y-2097019737D01*
X1976421153Y-2097050499D01*
X1976421156Y-2097050500D01*
X1976421158Y-2097050500D01*
X1976578844Y-2097050500D01*
X1976578845Y-2097050499D01*
X1976733497Y-2097019737D01*
X1976879179Y-2096959394D01*
X1976936411Y-2096921153D01*
X1978449500Y-2096921153D01*
X1978449500Y-2097078846D01*
X1978480261Y-2097233489D01*
X1978480264Y-2097233501D01*
X1978540602Y-2097379172D01*
X1978540609Y-2097379185D01*
X1978628210Y-2097510288D01*
X1978628213Y-2097510292D01*
X1978739707Y-2097621786D01*
X1978739711Y-2097621789D01*
X1978870814Y-2097709390D01*
X1978870827Y-2097709397D01*
X1979016498Y-2097769735D01*
X1979016503Y-2097769737D01*
X1979171153Y-2097800499D01*
X1979171156Y-2097800500D01*
X1979171158Y-2097800500D01*
X1979328844Y-2097800500D01*
X1979328845Y-2097800499D01*
X1979483497Y-2097769737D01*
X1979629179Y-2097709394D01*
X1979760289Y-2097621789D01*
X1979871789Y-2097510289D01*
X1979959394Y-2097379179D01*
X1979962854Y-2097370827D01*
X1980001713Y-2097277011D01*
X1980019737Y-2097233497D01*
X1980050500Y-2097078842D01*
X1980050500Y-2096921158D01*
X1980050500Y-2096921155D01*
X1980050499Y-2096921153D01*
X1980019738Y-2096766510D01*
X1980019737Y-2096766503D01*
X1980017163Y-2096760288D01*
X1979959397Y-2096620827D01*
X1979959390Y-2096620814D01*
X1979871789Y-2096489711D01*
X1979871786Y-2096489707D01*
X1979760292Y-2096378213D01*
X1979760288Y-2096378210D01*
X1979629185Y-2096290609D01*
X1979629172Y-2096290602D01*
X1979483501Y-2096230264D01*
X1979483489Y-2096230261D01*
X1979328845Y-2096199500D01*
X1979328842Y-2096199500D01*
X1979171158Y-2096199500D01*
X1979171155Y-2096199500D01*
X1979016510Y-2096230261D01*
X1979016498Y-2096230264D01*
X1978870827Y-2096290602D01*
X1978870814Y-2096290609D01*
X1978739711Y-2096378210D01*
X1978739707Y-2096378213D01*
X1978628213Y-2096489707D01*
X1978628210Y-2096489711D01*
X1978540609Y-2096620814D01*
X1978540602Y-2096620827D01*
X1978480264Y-2096766498D01*
X1978480261Y-2096766510D01*
X1978449500Y-2096921153D01*
X1976936411Y-2096921153D01*
X1977010289Y-2096871789D01*
X1977027747Y-2096854331D01*
X1977054694Y-2096827385D01*
X1977121786Y-2096760292D01*
X1977121789Y-2096760289D01*
X1977209394Y-2096629179D01*
X1977212854Y-2096620827D01*
X1977236492Y-2096563757D01*
X1977269737Y-2096483497D01*
X1977300500Y-2096328842D01*
X1977300500Y-2096171158D01*
X1977300500Y-2096171155D01*
X1977300499Y-2096171153D01*
X1977286768Y-2096102123D01*
X1977269737Y-2096016503D01*
X1977262990Y-2096000213D01*
X1977209397Y-2095870827D01*
X1977209390Y-2095870814D01*
X1977121789Y-2095739711D01*
X1977121786Y-2095739707D01*
X1977010292Y-2095628213D01*
X1977010288Y-2095628210D01*
X1976879185Y-2095540609D01*
X1976879172Y-2095540602D01*
X1976733501Y-2095480264D01*
X1976733489Y-2095480261D01*
X1976578845Y-2095449500D01*
X1976578842Y-2095449500D01*
X1976421158Y-2095449500D01*
X1976421155Y-2095449500D01*
X1976266510Y-2095480261D01*
X1976266498Y-2095480264D01*
X1976120827Y-2095540602D01*
X1976120814Y-2095540609D01*
X1975989711Y-2095628210D01*
X1975989707Y-2095628213D01*
X1975878213Y-2095739707D01*
X1975878210Y-2095739711D01*
X1975790609Y-2095870814D01*
X1975790602Y-2095870827D01*
X1975730264Y-2096016498D01*
X1975730261Y-2096016510D01*
X1975699500Y-2096171153D01*
X1967480242Y-2096171153D01*
X1967479933Y-2096170408D01*
X1967459397Y-2096120827D01*
X1967459390Y-2096120814D01*
X1967371789Y-2095989711D01*
X1967371786Y-2095989707D01*
X1967260292Y-2095878213D01*
X1967260288Y-2095878210D01*
X1967129185Y-2095790609D01*
X1967129172Y-2095790602D01*
X1966983501Y-2095730264D01*
X1966983489Y-2095730261D01*
X1966828845Y-2095699500D01*
X1966828842Y-2095699500D01*
X1966671158Y-2095699500D01*
X1966671155Y-2095699500D01*
X1966516510Y-2095730261D01*
X1966516498Y-2095730264D01*
X1966370827Y-2095790602D01*
X1966370814Y-2095790609D01*
X1966239711Y-2095878210D01*
X1966239707Y-2095878213D01*
X1966128213Y-2095989707D01*
X1966128210Y-2095989711D01*
X1966040609Y-2096120814D01*
X1966040602Y-2096120827D01*
X1965980264Y-2096266498D01*
X1965980261Y-2096266510D01*
X1965949500Y-2096421153D01*
X1955300499Y-2096421153D01*
X1955274531Y-2096290606D01*
X1955269737Y-2096266503D01*
X1955255569Y-2096232297D01*
X1955209397Y-2096120827D01*
X1955209390Y-2096120814D01*
X1955121789Y-2095989711D01*
X1955121786Y-2095989707D01*
X1955010292Y-2095878213D01*
X1955010288Y-2095878210D01*
X1954879185Y-2095790609D01*
X1954879172Y-2095790602D01*
X1954733501Y-2095730264D01*
X1954733489Y-2095730261D01*
X1954578845Y-2095699500D01*
X1954578842Y-2095699500D01*
X1954421158Y-2095699500D01*
X1954421155Y-2095699500D01*
X1954266510Y-2095730261D01*
X1954266498Y-2095730264D01*
X1954120827Y-2095790602D01*
X1954120814Y-2095790609D01*
X1953989711Y-2095878210D01*
X1953989707Y-2095878213D01*
X1953878213Y-2095989707D01*
X1953878210Y-2095989711D01*
X1953790609Y-2096120814D01*
X1953790602Y-2096120827D01*
X1953730264Y-2096266498D01*
X1953730261Y-2096266510D01*
X1953699500Y-2096421153D01*
X1946600499Y-2096421153D01*
X1946600499Y-2096102129D01*
X1946600498Y-2096102123D01*
X1946600497Y-2096102116D01*
X1946594091Y-2096042517D01*
X1946584388Y-2096016503D01*
X1946543797Y-2095907671D01*
X1946543793Y-2095907664D01*
X1946457547Y-2095792455D01*
X1946457544Y-2095792452D01*
X1946342335Y-2095706206D01*
X1946342328Y-2095706202D01*
X1946210917Y-2095657189D01*
X1946154983Y-2095615318D01*
X1946130566Y-2095549853D01*
X1946145418Y-2095481580D01*
X1946166563Y-2095453332D01*
X1946280104Y-2095339792D01*
X1946405051Y-2095167816D01*
X1946501557Y-2094978412D01*
X1946567246Y-2094776243D01*
X1946600500Y-2094566287D01*
X1946600500Y-2094353713D01*
X1946567246Y-2094143757D01*
X1946501557Y-2093941588D01*
X1946405051Y-2093752184D01*
X1946405049Y-2093752181D01*
X1946405048Y-2093752179D01*
X1946280109Y-2093580213D01*
X1946129786Y-2093429890D01*
X1946117760Y-2093421153D01*
X1957699500Y-2093421153D01*
X1957699500Y-2093578846D01*
X1957730261Y-2093733489D01*
X1957730264Y-2093733501D01*
X1957790602Y-2093879172D01*
X1957790609Y-2093879185D01*
X1957878210Y-2094010288D01*
X1957878213Y-2094010292D01*
X1957989707Y-2094121786D01*
X1957989711Y-2094121789D01*
X1958120814Y-2094209390D01*
X1958120827Y-2094209397D01*
X1958266498Y-2094269735D01*
X1958266503Y-2094269737D01*
X1958421153Y-2094300499D01*
X1958421156Y-2094300500D01*
X1958421158Y-2094300500D01*
X1958578844Y-2094300500D01*
X1958578845Y-2094300499D01*
X1958733497Y-2094269737D01*
X1958879179Y-2094209394D01*
X1959010289Y-2094121789D01*
X1959121789Y-2094010289D01*
X1959209394Y-2093879179D01*
X1959269737Y-2093733497D01*
X1959300500Y-2093578842D01*
X1959300500Y-2093421158D01*
X1959300500Y-2093421155D01*
X1959300499Y-2093421153D01*
X1959282137Y-2093328842D01*
X1959269737Y-2093266503D01*
X1959230242Y-2093171153D01*
X1966199500Y-2093171153D01*
X1966199500Y-2093328846D01*
X1966230261Y-2093483489D01*
X1966230264Y-2093483501D01*
X1966290602Y-2093629172D01*
X1966290609Y-2093629185D01*
X1966378210Y-2093760288D01*
X1966378213Y-2093760292D01*
X1966489707Y-2093871786D01*
X1966489711Y-2093871789D01*
X1966620814Y-2093959390D01*
X1966620827Y-2093959397D01*
X1966766498Y-2094019735D01*
X1966766503Y-2094019737D01*
X1966921153Y-2094050499D01*
X1966921156Y-2094050500D01*
X1966921158Y-2094050500D01*
X1967078844Y-2094050500D01*
X1967078845Y-2094050499D01*
X1967233497Y-2094019737D01*
X1967379179Y-2093959394D01*
X1967510289Y-2093871789D01*
X1967621789Y-2093760289D01*
X1967709394Y-2093629179D01*
X1967769737Y-2093483497D01*
X1967800500Y-2093328842D01*
X1967800500Y-2093171158D01*
X1967800500Y-2093171155D01*
X1967800499Y-2093171153D01*
X1972699500Y-2093171153D01*
X1972699500Y-2093328846D01*
X1972730261Y-2093483489D01*
X1972730264Y-2093483501D01*
X1972790602Y-2093629172D01*
X1972790609Y-2093629185D01*
X1972878210Y-2093760288D01*
X1972878213Y-2093760292D01*
X1972989707Y-2093871786D01*
X1972989711Y-2093871789D01*
X1973120814Y-2093959390D01*
X1973120827Y-2093959397D01*
X1973266498Y-2094019735D01*
X1973266503Y-2094019737D01*
X1973421153Y-2094050499D01*
X1973421156Y-2094050500D01*
X1973421158Y-2094050500D01*
X1973578844Y-2094050500D01*
X1973578845Y-2094050499D01*
X1973733497Y-2094019737D01*
X1973879179Y-2093959394D01*
X1974010289Y-2093871789D01*
X1974121789Y-2093760289D01*
X1974209394Y-2093629179D01*
X1974269737Y-2093483497D01*
X1974300500Y-2093328842D01*
X1974300500Y-2093171158D01*
X1974300500Y-2093171155D01*
X1974300499Y-2093171153D01*
X1977449500Y-2093171153D01*
X1977449500Y-2093328846D01*
X1977480261Y-2093483489D01*
X1977480264Y-2093483501D01*
X1977540602Y-2093629172D01*
X1977540609Y-2093629185D01*
X1977628210Y-2093760288D01*
X1977628213Y-2093760292D01*
X1977739707Y-2093871786D01*
X1977739711Y-2093871789D01*
X1977870814Y-2093959390D01*
X1977870827Y-2093959397D01*
X1978016498Y-2094019735D01*
X1978016503Y-2094019737D01*
X1978171153Y-2094050499D01*
X1978171156Y-2094050500D01*
X1978171158Y-2094050500D01*
X1978328844Y-2094050500D01*
X1978328845Y-2094050499D01*
X1978483497Y-2094019737D01*
X1978629179Y-2093959394D01*
X1978760289Y-2093871789D01*
X1978871789Y-2093760289D01*
X1978959394Y-2093629179D01*
X1979019737Y-2093483497D01*
X1979050500Y-2093328842D01*
X1979050500Y-2093171158D01*
X1979050500Y-2093171155D01*
X1979050499Y-2093171153D01*
X1979035112Y-2093093797D01*
X1979019737Y-2093016503D01*
X1979012303Y-2092998556D01*
X1978959397Y-2092870827D01*
X1978959390Y-2092870814D01*
X1978871789Y-2092739711D01*
X1978871786Y-2092739707D01*
X1978760292Y-2092628213D01*
X1978760288Y-2092628210D01*
X1978629185Y-2092540609D01*
X1978629172Y-2092540602D01*
X1978483501Y-2092480264D01*
X1978483489Y-2092480261D01*
X1978328845Y-2092449500D01*
X1978328842Y-2092449500D01*
X1978171158Y-2092449500D01*
X1978171155Y-2092449500D01*
X1978016510Y-2092480261D01*
X1978016498Y-2092480264D01*
X1977870827Y-2092540602D01*
X1977870814Y-2092540609D01*
X1977739711Y-2092628210D01*
X1977739707Y-2092628213D01*
X1977628213Y-2092739707D01*
X1977628210Y-2092739711D01*
X1977540609Y-2092870814D01*
X1977540602Y-2092870827D01*
X1977480264Y-2093016498D01*
X1977480261Y-2093016510D01*
X1977449500Y-2093171153D01*
X1974300499Y-2093171153D01*
X1974285112Y-2093093797D01*
X1974269737Y-2093016503D01*
X1974262303Y-2092998556D01*
X1974209397Y-2092870827D01*
X1974209390Y-2092870814D01*
X1974121789Y-2092739711D01*
X1974121786Y-2092739707D01*
X1974010292Y-2092628213D01*
X1974010288Y-2092628210D01*
X1973879185Y-2092540609D01*
X1973879172Y-2092540602D01*
X1973733501Y-2092480264D01*
X1973733489Y-2092480261D01*
X1973578845Y-2092449500D01*
X1973578842Y-2092449500D01*
X1973421158Y-2092449500D01*
X1973421155Y-2092449500D01*
X1973266510Y-2092480261D01*
X1973266498Y-2092480264D01*
X1973120827Y-2092540602D01*
X1973120814Y-2092540609D01*
X1972989711Y-2092628210D01*
X1972989707Y-2092628213D01*
X1972878213Y-2092739707D01*
X1972878210Y-2092739711D01*
X1972790609Y-2092870814D01*
X1972790602Y-2092870827D01*
X1972730264Y-2093016498D01*
X1972730261Y-2093016510D01*
X1972699500Y-2093171153D01*
X1967800499Y-2093171153D01*
X1967785112Y-2093093797D01*
X1967769737Y-2093016503D01*
X1967762303Y-2092998556D01*
X1967709397Y-2092870827D01*
X1967709390Y-2092870814D01*
X1967621789Y-2092739711D01*
X1967621786Y-2092739707D01*
X1967510292Y-2092628213D01*
X1967510288Y-2092628210D01*
X1967379185Y-2092540609D01*
X1967379172Y-2092540602D01*
X1967233501Y-2092480264D01*
X1967233489Y-2092480261D01*
X1967078845Y-2092449500D01*
X1967078842Y-2092449500D01*
X1966921158Y-2092449500D01*
X1966921155Y-2092449500D01*
X1966766510Y-2092480261D01*
X1966766498Y-2092480264D01*
X1966620827Y-2092540602D01*
X1966620814Y-2092540609D01*
X1966489711Y-2092628210D01*
X1966489707Y-2092628213D01*
X1966378213Y-2092739707D01*
X1966378210Y-2092739711D01*
X1966290609Y-2092870814D01*
X1966290602Y-2092870827D01*
X1966230264Y-2093016498D01*
X1966230261Y-2093016510D01*
X1966199500Y-2093171153D01*
X1959230242Y-2093171153D01*
X1959229933Y-2093170408D01*
X1959209397Y-2093120827D01*
X1959209390Y-2093120814D01*
X1959121789Y-2092989711D01*
X1959121786Y-2092989707D01*
X1959010292Y-2092878213D01*
X1959010288Y-2092878210D01*
X1958879185Y-2092790609D01*
X1958879172Y-2092790602D01*
X1958733501Y-2092730264D01*
X1958733489Y-2092730261D01*
X1958578845Y-2092699500D01*
X1958578842Y-2092699500D01*
X1958421158Y-2092699500D01*
X1958421155Y-2092699500D01*
X1958266510Y-2092730261D01*
X1958266498Y-2092730264D01*
X1958120827Y-2092790602D01*
X1958120814Y-2092790609D01*
X1957989711Y-2092878210D01*
X1957989707Y-2092878213D01*
X1957878213Y-2092989707D01*
X1957878210Y-2092989711D01*
X1957790609Y-2093120814D01*
X1957790602Y-2093120827D01*
X1957730264Y-2093266498D01*
X1957730261Y-2093266510D01*
X1957699500Y-2093421153D01*
X1946117760Y-2093421153D01*
X1945957820Y-2093304951D01*
X1945768414Y-2093208444D01*
X1945768413Y-2093208443D01*
X1945768412Y-2093208443D01*
X1945566243Y-2093142754D01*
X1945566241Y-2093142753D01*
X1945566240Y-2093142753D01*
X1945404957Y-2093117208D01*
X1945356287Y-2093109500D01*
X1945143713Y-2093109500D01*
X1945095042Y-2093117208D01*
X1944933760Y-2093142753D01*
X1944731585Y-2093208444D01*
X1944542179Y-2093304951D01*
X1944370213Y-2093429890D01*
X1944219890Y-2093580213D01*
X1944094951Y-2093752179D01*
X1943998444Y-2093941585D01*
X1943932753Y-2094143760D01*
X1943912800Y-2094269738D01*
X1943899500Y-2094353713D01*
X1941850500Y-2094353713D01*
X1941850500Y-2092421153D01*
X1955949500Y-2092421153D01*
X1955949500Y-2092578846D01*
X1955980261Y-2092733489D01*
X1955980264Y-2092733501D01*
X1956040602Y-2092879172D01*
X1956040609Y-2092879185D01*
X1956128210Y-2093010288D01*
X1956128213Y-2093010292D01*
X1956239707Y-2093121786D01*
X1956239711Y-2093121789D01*
X1956370814Y-2093209390D01*
X1956370827Y-2093209397D01*
X1956469203Y-2093250145D01*
X1956516503Y-2093269737D01*
X1956671153Y-2093300499D01*
X1956671156Y-2093300500D01*
X1956671158Y-2093300500D01*
X1956828844Y-2093300500D01*
X1956828845Y-2093300499D01*
X1956839179Y-2093298443D01*
X1956864287Y-2093293450D01*
X1956864292Y-2093293449D01*
X1956949800Y-2093276439D01*
X1956983497Y-2093269737D01*
X1957121635Y-2093212519D01*
X1957129172Y-2093209397D01*
X1957129172Y-2093209396D01*
X1957129179Y-2093209394D01*
X1957260289Y-2093121789D01*
X1957371789Y-2093010289D01*
X1957459394Y-2092879179D01*
X1957462854Y-2092870827D01*
X1957479721Y-2092830104D01*
X1957519737Y-2092733497D01*
X1957550500Y-2092578842D01*
X1957550500Y-2092421158D01*
X1957550500Y-2092421155D01*
X1957550499Y-2092421153D01*
X1957519738Y-2092266510D01*
X1957519737Y-2092266503D01*
X1957519735Y-2092266498D01*
X1957459397Y-2092120827D01*
X1957459390Y-2092120814D01*
X1957371789Y-2091989711D01*
X1957371786Y-2091989707D01*
X1957260292Y-2091878213D01*
X1957260288Y-2091878210D01*
X1957129185Y-2091790609D01*
X1957129172Y-2091790602D01*
X1956983501Y-2091730264D01*
X1956983489Y-2091730261D01*
X1956828845Y-2091699500D01*
X1956828842Y-2091699500D01*
X1956671158Y-2091699500D01*
X1956671155Y-2091699500D01*
X1956516510Y-2091730261D01*
X1956516498Y-2091730264D01*
X1956370827Y-2091790602D01*
X1956370814Y-2091790609D01*
X1956239711Y-2091878210D01*
X1956239707Y-2091878213D01*
X1956128213Y-2091989707D01*
X1956128210Y-2091989711D01*
X1956040609Y-2092120814D01*
X1956040602Y-2092120827D01*
X1955980264Y-2092266498D01*
X1955980261Y-2092266510D01*
X1955949500Y-2092421153D01*
X1941850500Y-2092421153D01*
X1941850500Y-2090171153D01*
X1956949500Y-2090171153D01*
X1956949500Y-2090328846D01*
X1956980261Y-2090483489D01*
X1956980264Y-2090483501D01*
X1957040602Y-2090629172D01*
X1957040609Y-2090629185D01*
X1957128210Y-2090760288D01*
X1957128213Y-2090760292D01*
X1957239707Y-2090871786D01*
X1957239711Y-2090871789D01*
X1957370814Y-2090959390D01*
X1957370827Y-2090959397D01*
X1957516498Y-2091019735D01*
X1957516503Y-2091019737D01*
X1957671153Y-2091050499D01*
X1957671156Y-2091050500D01*
X1957671158Y-2091050500D01*
X1957828844Y-2091050500D01*
X1957828845Y-2091050499D01*
X1957983497Y-2091019737D01*
X1958129179Y-2090959394D01*
X1958186411Y-2090921153D01*
X1963699500Y-2090921153D01*
X1963699500Y-2091078846D01*
X1963730261Y-2091233489D01*
X1963730264Y-2091233501D01*
X1963790602Y-2091379172D01*
X1963790609Y-2091379185D01*
X1963878210Y-2091510288D01*
X1963878213Y-2091510292D01*
X1963989707Y-2091621786D01*
X1963989711Y-2091621789D01*
X1964120814Y-2091709390D01*
X1964120827Y-2091709397D01*
X1964266498Y-2091769735D01*
X1964266503Y-2091769737D01*
X1964421153Y-2091800499D01*
X1964421156Y-2091800500D01*
X1964421158Y-2091800500D01*
X1964578844Y-2091800500D01*
X1964578845Y-2091800499D01*
X1964733497Y-2091769737D01*
X1964879179Y-2091709394D01*
X1965010289Y-2091621789D01*
X1965121789Y-2091510289D01*
X1965209394Y-2091379179D01*
X1965269737Y-2091233497D01*
X1965300500Y-2091078842D01*
X1965300500Y-2090921158D01*
X1965300500Y-2090921155D01*
X1965300499Y-2090921153D01*
X1965296712Y-2090902116D01*
X1965269737Y-2090766503D01*
X1965245368Y-2090707671D01*
X1965209397Y-2090620827D01*
X1965209390Y-2090620814D01*
X1965121789Y-2090489711D01*
X1965121786Y-2090489707D01*
X1965010292Y-2090378213D01*
X1965010288Y-2090378210D01*
X1964879185Y-2090290609D01*
X1964879172Y-2090290602D01*
X1964733501Y-2090230264D01*
X1964733489Y-2090230261D01*
X1964578845Y-2090199500D01*
X1964578842Y-2090199500D01*
X1964421158Y-2090199500D01*
X1964421155Y-2090199500D01*
X1964266510Y-2090230261D01*
X1964266498Y-2090230264D01*
X1964120827Y-2090290602D01*
X1964120814Y-2090290609D01*
X1963989711Y-2090378210D01*
X1963989707Y-2090378213D01*
X1963878213Y-2090489707D01*
X1963878210Y-2090489711D01*
X1963790609Y-2090620814D01*
X1963790602Y-2090620827D01*
X1963730264Y-2090766498D01*
X1963730261Y-2090766510D01*
X1963699500Y-2090921153D01*
X1958186411Y-2090921153D01*
X1958260289Y-2090871789D01*
X1958280724Y-2090851354D01*
X1958304694Y-2090827385D01*
X1958371786Y-2090760292D01*
X1958371789Y-2090760289D01*
X1958459394Y-2090629179D01*
X1958462854Y-2090620827D01*
X1958508640Y-2090510288D01*
X1958519737Y-2090483497D01*
X1958550500Y-2090328842D01*
X1958550500Y-2090171158D01*
X1958550500Y-2090171155D01*
X1958550499Y-2090171153D01*
X1958530873Y-2090072489D01*
X1958519737Y-2090016503D01*
X1958480242Y-2089921153D01*
X1970699500Y-2089921153D01*
X1970699500Y-2090078846D01*
X1970730261Y-2090233489D01*
X1970730264Y-2090233501D01*
X1970790602Y-2090379172D01*
X1970790609Y-2090379185D01*
X1970878210Y-2090510288D01*
X1970878213Y-2090510292D01*
X1970989707Y-2090621786D01*
X1970989711Y-2090621789D01*
X1971120814Y-2090709390D01*
X1971120827Y-2090709397D01*
X1971258683Y-2090766498D01*
X1971266503Y-2090769737D01*
X1971421153Y-2090800499D01*
X1971421156Y-2090800500D01*
X1971421158Y-2090800500D01*
X1971578844Y-2090800500D01*
X1971578845Y-2090800499D01*
X1971733497Y-2090769737D01*
X1971879179Y-2090709394D01*
X1972010289Y-2090621789D01*
X1972121789Y-2090510289D01*
X1972181348Y-2090421153D01*
X1972699500Y-2090421153D01*
X1972699500Y-2090578846D01*
X1972730261Y-2090733489D01*
X1972730264Y-2090733501D01*
X1972790602Y-2090879172D01*
X1972790609Y-2090879185D01*
X1972878210Y-2091010288D01*
X1972878213Y-2091010292D01*
X1972989707Y-2091121786D01*
X1972989711Y-2091121789D01*
X1973120814Y-2091209390D01*
X1973120827Y-2091209397D01*
X1973266498Y-2091269735D01*
X1973266503Y-2091269737D01*
X1973421153Y-2091300499D01*
X1973421156Y-2091300500D01*
X1973421158Y-2091300500D01*
X1973578844Y-2091300500D01*
X1973578845Y-2091300499D01*
X1973733497Y-2091269737D01*
X1973879179Y-2091209394D01*
X1974010289Y-2091121789D01*
X1974121789Y-2091010289D01*
X1974209394Y-2090879179D01*
X1974269737Y-2090733497D01*
X1974300500Y-2090578842D01*
X1974300500Y-2090421158D01*
X1974300500Y-2090421155D01*
X1974300499Y-2090421153D01*
X1977449500Y-2090421153D01*
X1977449500Y-2090578846D01*
X1977480261Y-2090733489D01*
X1977480264Y-2090733501D01*
X1977540602Y-2090879172D01*
X1977540609Y-2090879185D01*
X1977628210Y-2091010288D01*
X1977628213Y-2091010292D01*
X1977739707Y-2091121786D01*
X1977739711Y-2091121789D01*
X1977870814Y-2091209390D01*
X1977870827Y-2091209397D01*
X1978016498Y-2091269735D01*
X1978016503Y-2091269737D01*
X1978171153Y-2091300499D01*
X1978171156Y-2091300500D01*
X1978171158Y-2091300500D01*
X1978328844Y-2091300500D01*
X1978328845Y-2091300499D01*
X1978483497Y-2091269737D01*
X1978629179Y-2091209394D01*
X1978760289Y-2091121789D01*
X1978871789Y-2091010289D01*
X1978944055Y-2090902135D01*
X1983149500Y-2090902135D01*
X1983149500Y-2092697870D01*
X1983149501Y-2092697876D01*
X1983155908Y-2092757483D01*
X1983206202Y-2092892328D01*
X1983206206Y-2092892335D01*
X1983292452Y-2093007544D01*
X1983292455Y-2093007547D01*
X1983407664Y-2093093793D01*
X1983407671Y-2093093797D01*
X1983539082Y-2093142810D01*
X1983595016Y-2093184681D01*
X1983619433Y-2093250145D01*
X1983604582Y-2093318418D01*
X1983583431Y-2093346673D01*
X1983469889Y-2093460215D01*
X1983344951Y-2093632179D01*
X1983248444Y-2093821585D01*
X1983182753Y-2094023760D01*
X1983167227Y-2094121789D01*
X1983149500Y-2094233713D01*
X1983149500Y-2094446287D01*
X1983182754Y-2094656243D01*
X1983221743Y-2094776239D01*
X1983248444Y-2094858414D01*
X1983344951Y-2095047820D01*
X1983469890Y-2095219786D01*
X1983620213Y-2095370109D01*
X1983792182Y-2095495050D01*
X1983800946Y-2095499516D01*
X1983851742Y-2095547491D01*
X1983868536Y-2095615312D01*
X1983845998Y-2095681447D01*
X1983800946Y-2095720484D01*
X1983792182Y-2095724949D01*
X1983620213Y-2095849890D01*
X1983469890Y-2096000213D01*
X1983344951Y-2096172179D01*
X1983248444Y-2096361585D01*
X1983182753Y-2096563760D01*
X1983172545Y-2096628211D01*
X1983149500Y-2096773713D01*
X1983149500Y-2096986287D01*
X1983153302Y-2097010289D01*
X1983174526Y-2097144297D01*
X1983182754Y-2097196243D01*
X1983242546Y-2097380264D01*
X1983248444Y-2097398414D01*
X1983344951Y-2097587820D01*
X1983469890Y-2097759786D01*
X1983620213Y-2097910109D01*
X1983792179Y-2098035048D01*
X1983792181Y-2098035049D01*
X1983792184Y-2098035051D01*
X1983981588Y-2098131557D01*
X1984183757Y-2098197246D01*
X1984393713Y-2098230500D01*
X1984393714Y-2098230500D01*
X1984606286Y-2098230500D01*
X1984606287Y-2098230500D01*
X1984816243Y-2098197246D01*
X1985018412Y-2098131557D01*
X1985207816Y-2098035051D01*
X1985262572Y-2097995269D01*
X1985379786Y-2097910109D01*
X1985379788Y-2097910106D01*
X1985379792Y-2097910104D01*
X1985530104Y-2097759792D01*
X1985530106Y-2097759788D01*
X1985530109Y-2097759786D01*
X1985610250Y-2097649480D01*
X1985655051Y-2097587816D01*
X1985659793Y-2097578508D01*
X1985707763Y-2097527711D01*
X1985775583Y-2097510911D01*
X1985841719Y-2097533445D01*
X1985880763Y-2097578500D01*
X1985885373Y-2097587547D01*
X1985924728Y-2097641716D01*
X1986557036Y-2097009407D01*
X1986574075Y-2097072993D01*
X1986639901Y-2097187007D01*
X1986732993Y-2097280099D01*
X1986847007Y-2097345925D01*
X1986910590Y-2097362962D01*
X1986278282Y-2097995269D01*
X1986278282Y-2097995270D01*
X1986332449Y-2098034624D01*
X1986521782Y-2098131095D01*
X1986723870Y-2098196757D01*
X1986933754Y-2098230000D01*
X1987146246Y-2098230000D01*
X1987356127Y-2098196757D01*
X1987356130Y-2098196757D01*
X1987558217Y-2098131095D01*
X1987747558Y-2098034620D01*
X1987815455Y-2097985290D01*
X1987881261Y-2097961809D01*
X1987949315Y-2097977634D01*
X1987998010Y-2098027739D01*
X1988002902Y-2098038154D01*
X1988040604Y-2098129176D01*
X1988040609Y-2098129185D01*
X1988128210Y-2098260288D01*
X1988128213Y-2098260292D01*
X1988239707Y-2098371786D01*
X1988239711Y-2098371789D01*
X1988370814Y-2098459390D01*
X1988370827Y-2098459397D01*
X1988444013Y-2098489711D01*
X1988516503Y-2098519737D01*
X1988671153Y-2098550499D01*
X1988671156Y-2098550500D01*
X1988671158Y-2098550500D01*
X1988828844Y-2098550500D01*
X1988828845Y-2098550499D01*
X1988983497Y-2098519737D01*
X1989129179Y-2098459394D01*
X1989260289Y-2098371789D01*
X1989371789Y-2098260289D01*
X1989459394Y-2098129179D01*
X1989519737Y-2097983497D01*
X1989550500Y-2097828842D01*
X1989550500Y-2097671158D01*
X1989550500Y-2097671155D01*
X1989550499Y-2097671153D01*
X1989540679Y-2097621786D01*
X1989519737Y-2097516503D01*
X1989506062Y-2097483489D01*
X1989459397Y-2097370827D01*
X1989459390Y-2097370814D01*
X1989371789Y-2097239711D01*
X1989371786Y-2097239707D01*
X1989260292Y-2097128213D01*
X1989260288Y-2097128210D01*
X1989129185Y-2097040609D01*
X1989129172Y-2097040602D01*
X1988983501Y-2096980264D01*
X1988983489Y-2096980261D01*
X1988828845Y-2096949500D01*
X1988828842Y-2096949500D01*
X1988671158Y-2096949500D01*
X1988671153Y-2096949500D01*
X1988538191Y-2096975948D01*
X1988468600Y-2096969721D01*
X1988413422Y-2096926858D01*
X1988390178Y-2096860968D01*
X1988390000Y-2096854331D01*
X1988390000Y-2096773753D01*
X1988356757Y-2096563872D01*
X1988356757Y-2096563869D01*
X1988291095Y-2096361782D01*
X1988194624Y-2096172449D01*
X1988155270Y-2096118282D01*
X1988155269Y-2096118282D01*
X1987522962Y-2096750590D01*
X1987505925Y-2096687007D01*
X1987440099Y-2096572993D01*
X1987347007Y-2096479901D01*
X1987232993Y-2096414075D01*
X1987169409Y-2096397037D01*
X1987801716Y-2095764728D01*
X1987747547Y-2095725373D01*
X1987747547Y-2095725372D01*
X1987738500Y-2095720763D01*
X1987687706Y-2095672788D01*
X1987670912Y-2095604966D01*
X1987693451Y-2095538832D01*
X1987738508Y-2095499793D01*
X1987747816Y-2095495051D01*
X1987827007Y-2095437515D01*
X1987919786Y-2095370109D01*
X1987919788Y-2095370106D01*
X1987919792Y-2095370104D01*
X1988070104Y-2095219792D01*
X1988070106Y-2095219788D01*
X1988070109Y-2095219786D01*
X1988195048Y-2095047820D01*
X1988195047Y-2095047820D01*
X1988195051Y-2095047816D01*
X1988291557Y-2094858412D01*
X1988357246Y-2094656243D01*
X1988390500Y-2094446287D01*
X1988390500Y-2094233713D01*
X1988357246Y-2094023757D01*
X1988291557Y-2093821588D01*
X1988195051Y-2093632184D01*
X1988195049Y-2093632181D01*
X1988195048Y-2093632179D01*
X1988070109Y-2093460213D01*
X1987919786Y-2093309890D01*
X1987747820Y-2093184951D01*
X1987747115Y-2093184591D01*
X1987739054Y-2093180485D01*
X1987688259Y-2093132512D01*
X1987671463Y-2093064692D01*
X1987693999Y-2092998556D01*
X1987739054Y-2092959515D01*
X1987747816Y-2092955051D01*
X1987834138Y-2092892335D01*
X1987919786Y-2092830109D01*
X1987919788Y-2092830106D01*
X1987919792Y-2092830104D01*
X1988070104Y-2092679792D01*
X1988070106Y-2092679788D01*
X1988070109Y-2092679786D01*
X1988195048Y-2092507820D01*
X1988195047Y-2092507820D01*
X1988195051Y-2092507816D01*
X1988291557Y-2092318412D01*
X1988357246Y-2092116243D01*
X1988390500Y-2091906287D01*
X1988390500Y-2091693713D01*
X1988357246Y-2091483757D01*
X1988291557Y-2091281588D01*
X1988195051Y-2091092184D01*
X1988195049Y-2091092181D01*
X1988195048Y-2091092179D01*
X1988070109Y-2090920213D01*
X1987919786Y-2090769890D01*
X1987747820Y-2090644951D01*
X1987558414Y-2090548444D01*
X1987558413Y-2090548443D01*
X1987558412Y-2090548443D01*
X1987356243Y-2090482754D01*
X1987356241Y-2090482753D01*
X1987356240Y-2090482753D01*
X1987194957Y-2090457208D01*
X1987146287Y-2090449500D01*
X1986933713Y-2090449500D01*
X1986885042Y-2090457208D01*
X1986723760Y-2090482753D01*
X1986521585Y-2090548444D01*
X1986332179Y-2090644951D01*
X1986160215Y-2090769889D01*
X1986046673Y-2090883431D01*
X1985985350Y-2090916915D01*
X1985915658Y-2090911931D01*
X1985859725Y-2090870059D01*
X1985842810Y-2090839082D01*
X1985793797Y-2090707671D01*
X1985793793Y-2090707664D01*
X1985707547Y-2090592455D01*
X1985707544Y-2090592452D01*
X1985592335Y-2090506206D01*
X1985592328Y-2090506202D01*
X1985457482Y-2090455908D01*
X1985457483Y-2090455908D01*
X1985397883Y-2090449501D01*
X1985397881Y-2090449500D01*
X1985397873Y-2090449500D01*
X1985397864Y-2090449500D01*
X1983602129Y-2090449500D01*
X1983602123Y-2090449501D01*
X1983542516Y-2090455908D01*
X1983407671Y-2090506202D01*
X1983407664Y-2090506206D01*
X1983292455Y-2090592452D01*
X1983292452Y-2090592455D01*
X1983206206Y-2090707664D01*
X1983206202Y-2090707671D01*
X1983155908Y-2090842517D01*
X1983149501Y-2090902116D01*
X1983149500Y-2090902135D01*
X1978944055Y-2090902135D01*
X1978959394Y-2090879179D01*
X1978963172Y-2090870059D01*
X1978970920Y-2090851354D01*
X1979006063Y-2090766510D01*
X1979019737Y-2090733497D01*
X1979050500Y-2090578842D01*
X1979050500Y-2090421158D01*
X1979050500Y-2090421155D01*
X1979050499Y-2090421153D01*
X1979024531Y-2090290606D01*
X1979019737Y-2090266503D01*
X1979006062Y-2090233489D01*
X1978959397Y-2090120827D01*
X1978959390Y-2090120814D01*
X1978871789Y-2089989711D01*
X1978871786Y-2089989707D01*
X1978760292Y-2089878213D01*
X1978760288Y-2089878210D01*
X1978629185Y-2089790609D01*
X1978629172Y-2089790602D01*
X1978483501Y-2089730264D01*
X1978483489Y-2089730261D01*
X1978328845Y-2089699500D01*
X1978328842Y-2089699500D01*
X1978171158Y-2089699500D01*
X1978171155Y-2089699500D01*
X1978016510Y-2089730261D01*
X1978016498Y-2089730264D01*
X1977870827Y-2089790602D01*
X1977870814Y-2089790609D01*
X1977739711Y-2089878210D01*
X1977739707Y-2089878213D01*
X1977628213Y-2089989707D01*
X1977628210Y-2089989711D01*
X1977540609Y-2090120814D01*
X1977540602Y-2090120827D01*
X1977480264Y-2090266498D01*
X1977480261Y-2090266510D01*
X1977449500Y-2090421153D01*
X1974300499Y-2090421153D01*
X1974274531Y-2090290606D01*
X1974269737Y-2090266503D01*
X1974256062Y-2090233489D01*
X1974209397Y-2090120827D01*
X1974209390Y-2090120814D01*
X1974121789Y-2089989711D01*
X1974121786Y-2089989707D01*
X1974010292Y-2089878213D01*
X1974010288Y-2089878210D01*
X1973879185Y-2089790609D01*
X1973879172Y-2089790602D01*
X1973733501Y-2089730264D01*
X1973733489Y-2089730261D01*
X1973578845Y-2089699500D01*
X1973578842Y-2089699500D01*
X1973421158Y-2089699500D01*
X1973421155Y-2089699500D01*
X1973266510Y-2089730261D01*
X1973266498Y-2089730264D01*
X1973120827Y-2089790602D01*
X1973120814Y-2089790609D01*
X1972989711Y-2089878210D01*
X1972989707Y-2089878213D01*
X1972878213Y-2089989707D01*
X1972878210Y-2089989711D01*
X1972790609Y-2090120814D01*
X1972790602Y-2090120827D01*
X1972730264Y-2090266498D01*
X1972730261Y-2090266510D01*
X1972699500Y-2090421153D01*
X1972181348Y-2090421153D01*
X1972209394Y-2090379179D01*
X1972269737Y-2090233497D01*
X1972300500Y-2090078842D01*
X1972300500Y-2089921158D01*
X1972300500Y-2089921155D01*
X1972300499Y-2089921153D01*
X1972274531Y-2089790606D01*
X1972269737Y-2089766503D01*
X1972269735Y-2089766498D01*
X1972209397Y-2089620827D01*
X1972209390Y-2089620814D01*
X1972121789Y-2089489711D01*
X1972121786Y-2089489707D01*
X1972010292Y-2089378213D01*
X1972010288Y-2089378210D01*
X1971879185Y-2089290609D01*
X1971879172Y-2089290602D01*
X1971733501Y-2089230264D01*
X1971733489Y-2089230261D01*
X1971578845Y-2089199500D01*
X1971578842Y-2089199500D01*
X1971421158Y-2089199500D01*
X1971421155Y-2089199500D01*
X1971266510Y-2089230261D01*
X1971266498Y-2089230264D01*
X1971120827Y-2089290602D01*
X1971120814Y-2089290609D01*
X1970989711Y-2089378210D01*
X1970989707Y-2089378213D01*
X1970878213Y-2089489707D01*
X1970878210Y-2089489711D01*
X1970790609Y-2089620814D01*
X1970790602Y-2089620827D01*
X1970730264Y-2089766498D01*
X1970730261Y-2089766510D01*
X1970699500Y-2089921153D01*
X1958480242Y-2089921153D01*
X1958462455Y-2089878210D01*
X1958459397Y-2089870827D01*
X1958459390Y-2089870814D01*
X1958371789Y-2089739711D01*
X1958371786Y-2089739707D01*
X1958260292Y-2089628213D01*
X1958260288Y-2089628210D01*
X1958129185Y-2089540609D01*
X1958129172Y-2089540602D01*
X1957983501Y-2089480264D01*
X1957983489Y-2089480261D01*
X1957828845Y-2089449500D01*
X1957828842Y-2089449500D01*
X1957671158Y-2089449500D01*
X1957671155Y-2089449500D01*
X1957516510Y-2089480261D01*
X1957516498Y-2089480264D01*
X1957370827Y-2089540602D01*
X1957370814Y-2089540609D01*
X1957239711Y-2089628210D01*
X1957239707Y-2089628213D01*
X1957128213Y-2089739707D01*
X1957128210Y-2089739711D01*
X1957040609Y-2089870814D01*
X1957040602Y-2089870827D01*
X1956980264Y-2090016498D01*
X1956980261Y-2090016510D01*
X1956949500Y-2090171153D01*
X1941850500Y-2090171153D01*
X1941850500Y-2090124000D01*
X1941870185Y-2090056961D01*
X1941922989Y-2090011206D01*
X1941974500Y-2090000000D01*
X1946250000Y-2090000000D01*
X1946250000Y-2088921153D01*
X1952449500Y-2088921153D01*
X1952449500Y-2089078846D01*
X1952480261Y-2089233489D01*
X1952480264Y-2089233501D01*
X1952540602Y-2089379172D01*
X1952540609Y-2089379185D01*
X1952628210Y-2089510288D01*
X1952628213Y-2089510292D01*
X1952739707Y-2089621786D01*
X1952739711Y-2089621789D01*
X1952870814Y-2089709390D01*
X1952870827Y-2089709397D01*
X1952944013Y-2089739711D01*
X1953016503Y-2089769737D01*
X1953171153Y-2089800499D01*
X1953171156Y-2089800500D01*
X1953171158Y-2089800500D01*
X1953328844Y-2089800500D01*
X1953328845Y-2089800499D01*
X1953483497Y-2089769737D01*
X1953629179Y-2089709394D01*
X1953760289Y-2089621789D01*
X1953871789Y-2089510289D01*
X1953959394Y-2089379179D01*
X1954019737Y-2089233497D01*
X1954050500Y-2089078842D01*
X1954050500Y-2088921158D01*
X1954050500Y-2088921155D01*
X1954050499Y-2088921153D01*
X1954026499Y-2088800500D01*
X1954019737Y-2088766503D01*
X1953994353Y-2088705220D01*
X1953959397Y-2088620827D01*
X1953959390Y-2088620814D01*
X1953871789Y-2088489711D01*
X1953871786Y-2088489707D01*
X1953760292Y-2088378213D01*
X1953760288Y-2088378210D01*
X1953629185Y-2088290609D01*
X1953629172Y-2088290602D01*
X1953483501Y-2088230264D01*
X1953483489Y-2088230261D01*
X1953328845Y-2088199500D01*
X1953328842Y-2088199500D01*
X1953171158Y-2088199500D01*
X1953171155Y-2088199500D01*
X1953016510Y-2088230261D01*
X1953016498Y-2088230264D01*
X1952870827Y-2088290602D01*
X1952870814Y-2088290609D01*
X1952739711Y-2088378210D01*
X1952739707Y-2088378213D01*
X1952628213Y-2088489707D01*
X1952628210Y-2088489711D01*
X1952540609Y-2088620814D01*
X1952540602Y-2088620827D01*
X1952480264Y-2088766498D01*
X1952480261Y-2088766510D01*
X1952449500Y-2088921153D01*
X1946250000Y-2088921153D01*
X1946250000Y-2085624500D01*
X1946269685Y-2085557461D01*
X1946322489Y-2085511706D01*
X1946374000Y-2085500500D01*
X1987126000Y-2085500500D01*
X1987193039Y-2085520185D01*
G37*
%TD.AperFunction*%
%TD*%
M02*
