M48
; DRILL file {KiCad 9.0.2} date 2025-09-17T22:51:02+0545
; FORMAT={-:-/ absolute / metric / decimal}
; #@! TF.CreationDate,2025-09-17T22:51:02+05:45
; #@! TF.GenerationSoftware,Kicad,Pcbnew,9.0.2
; #@! TF.FileFunction,Plated,1,4,PTH
FMAT,2
METRIC
; #@! TA.AperFunction,Plated,PTH,ViaDrill
T1C0.300
; #@! TA.AperFunction,Plated,PTH,ComponentDrill
T2C1.000
%
G90
G05
T1
X1950.0Y-2107.5
X1950.25Y-2111.25
X1951.875Y-2099.875
X1953.25Y-2089.0
X1954.5Y-2096.5
X1955.5Y-2107.75
X1955.75Y-2099.75
X1956.75Y-2092.5
X1956.75Y-2104.5
X1957.5Y-2099.75
X1957.75Y-2090.25
X1958.5Y-2093.5
X1960.0Y-2098.25
X1961.5Y-2103.25
X1963.25Y-2097.25
X1963.25Y-2105.5
X1963.75Y-2099.0
X1964.25Y-2101.0
X1964.5Y-2091.0
X1966.75Y-2096.5
X1966.75Y-2100.75
X1966.75Y-2105.5
X1967.0Y-2093.25
X1967.4Y-2098.15
X1968.75Y-2112.0
X1971.0Y-2105.0
X1971.5Y-2090.0
X1971.5Y-2099.0
X1971.5Y-2100.25
X1971.75Y-2102.5
X1971.75Y-2114.25
X1972.0Y-2108.75
X1973.5Y-2090.5
X1973.5Y-2093.25
X1973.5Y-2112.25
X1975.75Y-2101.5
X1976.5Y-2096.25
X1976.5Y-2107.25
X1976.75Y-2105.0
X1977.55Y-2110.8
X1978.25Y-2090.5
X1978.25Y-2093.25
X1979.0Y-2101.0
X1979.25Y-2097.0
X1979.25Y-2103.25
X1981.25Y-2100.5
X1981.5Y-2101.75
X1981.5Y-2105.5
X1983.5Y-2101.5
X1984.0Y-2108.0
X1985.25Y-2103.0
X1987.0Y-2099.0
X1988.75Y-2097.75
T2
X1945.25Y-2094.46
X1945.25Y-2097.0
X1948.42Y-2114.25
X1950.96Y-2114.25
X1953.5Y-2114.25
X1956.04Y-2114.25
X1958.58Y-2114.25
X1961.12Y-2114.25
X1963.66Y-2114.25
X1966.2Y-2114.25
X1968.74Y-2114.25
X1975.0Y-2114.25
X1977.54Y-2114.25
X1980.08Y-2114.25
X1982.62Y-2114.25
X1984.5Y-2091.8
X1984.5Y-2094.34
X1984.5Y-2096.88
X1987.0Y-2101.28
X1987.0Y-2103.82
X1987.0Y-2106.36
X1987.0Y-2108.9
X1987.04Y-2091.8
X1987.04Y-2094.34
X1987.04Y-2096.88
M30
