%TF.GenerationSoftware,KiCad,Pcbnew,9.0.2*%
%TF.CreationDate,2025-09-17T22:50:59+05:45*%
%TF.ProjectId,MCU datalogger,4d435520-6461-4746-916c-6f676765722e,rev?*%
%TF.SameCoordinates,Original*%
%TF.FileFunction,Copper,L2,Inr*%
%TF.FilePolarity,Positive*%
%FSLAX46Y46*%
G04 Gerber Fmt 4.6, Leading zero omitted, Abs format (unit mm)*
G04 Created by KiCad (PCBNEW 9.0.2) date 2025-09-17 22:50:59*
%MOMM*%
%LPD*%
G01*
G04 APERTURE LIST*
%TA.AperFunction,ComponentPad*%
%ADD10R,1.700000X1.700000*%
%TD*%
%TA.AperFunction,ComponentPad*%
%ADD11C,1.700000*%
%TD*%
%TA.AperFunction,ViaPad*%
%ADD12C,0.600000*%
%TD*%
%TA.AperFunction,Conductor*%
%ADD13C,0.200000*%
%TD*%
G04 APERTURE END LIST*
D10*
%TO.N,Net-(BT1-+)*%
%TO.C,BT1*%
X1945250000Y-2097000000D03*
D11*
%TO.N,GND*%
X1945250000Y-2094460000D03*
%TD*%
D10*
%TO.N,/VCC*%
%TO.C,J1*%
X1987000000Y-2101280000D03*
D11*
%TO.N,GND*%
X1987000000Y-2103820000D03*
%TO.N,/SDA*%
X1987000000Y-2106360000D03*
%TO.N,/SCK*%
X1987000000Y-2108900000D03*
%TD*%
D10*
%TO.N,/D2*%
%TO.C,J3*%
X1948420000Y-2114250000D03*
D11*
%TO.N,/D3*%
X1950960000Y-2114250000D03*
%TO.N,/D4*%
X1953500000Y-2114250000D03*
%TO.N,/D5*%
X1956040000Y-2114250000D03*
%TO.N,/D6*%
X1958580000Y-2114250000D03*
%TO.N,/D7*%
X1961120000Y-2114250000D03*
%TO.N,/D8*%
X1963660000Y-2114250000D03*
%TO.N,GND*%
X1966200000Y-2114250000D03*
%TO.N,/VCC*%
X1968740000Y-2114250000D03*
%TD*%
D10*
%TO.N,/MISO*%
%TO.C,J4*%
X1984500000Y-2091800000D03*
D11*
%TO.N,GND*%
X1987040000Y-2091800000D03*
%TO.N,/SCK*%
X1984500000Y-2094340000D03*
%TO.N,/MOSI*%
X1987040000Y-2094340000D03*
%TO.N,/RESET*%
X1984500000Y-2096880000D03*
%TO.N,/VCC*%
X1987040000Y-2096880000D03*
%TD*%
D10*
%TO.N,/VCC*%
%TO.C,J2*%
X1975000000Y-2114250000D03*
D11*
%TO.N,GND*%
X1977540000Y-2114250000D03*
%TO.N,/RX*%
X1980080000Y-2114250000D03*
%TO.N,/TX*%
X1982620000Y-2114250000D03*
%TD*%
D12*
%TO.N,Net-(BT1-+)*%
X1971500000Y-2100250000D03*
X1960000000Y-2098250000D03*
X1971500000Y-2090000000D03*
%TO.N,GND*%
X1963250000Y-2097250000D03*
X1963750000Y-2099000000D03*
X1967400000Y-2098150000D03*
X1950000000Y-2107500000D03*
X1976500000Y-2096250000D03*
X1968750000Y-2112000000D03*
X1977550000Y-2110800000D03*
X1988750000Y-2097750000D03*
X1972000000Y-2108750000D03*
X1953250000Y-2089000000D03*
X1951875000Y-2099875000D03*
X1954500000Y-2096500000D03*
%TO.N,/VCC*%
X1950250000Y-2111250000D03*
X1971750000Y-2114250000D03*
X1979000000Y-2101000000D03*
X1987000000Y-2099000000D03*
X1971000000Y-2105000000D03*
X1973500000Y-2112250000D03*
%TO.N,Net-(U3-PB6)*%
X1964250000Y-2101000000D03*
X1966750000Y-2105500000D03*
%TO.N,Net-(U3-PB7)*%
X1963250000Y-2105500000D03*
X1964500000Y-2091000000D03*
X1961500000Y-2103250000D03*
%TO.N,Net-(U3-AREF)*%
X1976500000Y-2107250000D03*
X1971500000Y-2099000000D03*
%TO.N,Net-(D1-A)*%
X1978250000Y-2090500000D03*
X1978250000Y-2093250000D03*
%TO.N,Net-(D2-K)*%
X1973500000Y-2093250000D03*
X1973500000Y-2090500000D03*
%TO.N,/SCK*%
X1966750000Y-2100750000D03*
X1966750000Y-2096500000D03*
X1958500000Y-2093500000D03*
X1971750000Y-2102500000D03*
X1984000000Y-2108000000D03*
X1956750000Y-2104500000D03*
X1979250000Y-2097000000D03*
X1976750000Y-2105000000D03*
X1955750000Y-2099750000D03*
X1975750000Y-2101500000D03*
X1957750000Y-2090250000D03*
%TO.N,/SDA*%
X1956750000Y-2092500000D03*
X1955500000Y-2107750000D03*
X1979250000Y-2103250000D03*
X1957500000Y-2099750000D03*
X1967000000Y-2093250000D03*
%TO.N,/RESET*%
X1981250000Y-2100500000D03*
%TO.N,/MOSI*%
X1981500000Y-2105500000D03*
X1985250000Y-2103000000D03*
%TO.N,/MISO*%
X1981500000Y-2101750000D03*
X1983500000Y-2101500000D03*
%TD*%
D13*
%TO.N,Net-(U3-PB6)*%
X1966750000Y-2103500000D02*
X1966750000Y-2105500000D01*
X1964250000Y-2101000000D02*
X1966750000Y-2103500000D01*
%TO.N,Net-(U3-AREF)*%
X1973000000Y-2100500000D02*
X1973000000Y-2101500000D01*
X1973000000Y-2103250000D02*
X1975750000Y-2106000000D01*
X1976500000Y-2106750000D02*
X1976500000Y-2107250000D01*
X1973000000Y-2101500000D02*
X1973000000Y-2103250000D01*
X1971500000Y-2099000000D02*
X1972500000Y-2100000000D01*
X1972500000Y-2100000000D02*
X1973000000Y-2100500000D01*
X1975750000Y-2106000000D02*
X1976500000Y-2106750000D01*
%TO.N,Net-(D1-A)*%
X1978250000Y-2090500000D02*
X1978250000Y-2093250000D01*
%TO.N,Net-(D2-K)*%
X1973500000Y-2090500000D02*
X1973500000Y-2093250000D01*
%TO.N,/SCK*%
X1978000000Y-2106250000D02*
X1976750000Y-2105000000D01*
X1956750000Y-2104500000D02*
X1957000000Y-2104250000D01*
X1957000000Y-2104250000D02*
X1957000000Y-2101000000D01*
X1982500000Y-2106500000D02*
X1978000000Y-2106500000D01*
X1979250000Y-2098000000D02*
X1979250000Y-2097000000D01*
X1966750000Y-2096500000D02*
X1966750000Y-2100750000D01*
X1957000000Y-2101000000D02*
X1955750000Y-2099750000D01*
X1981840000Y-2097000000D02*
X1984500000Y-2094340000D01*
X1979250000Y-2097000000D02*
X1981840000Y-2097000000D01*
X1984000000Y-2108000000D02*
X1982500000Y-2106500000D01*
X1966750000Y-2096500000D02*
X1961500000Y-2096500000D01*
X1978000000Y-2106500000D02*
X1978000000Y-2106250000D01*
X1961500000Y-2096500000D02*
X1958500000Y-2093500000D01*
X1975750000Y-2101500000D02*
X1979250000Y-2098000000D01*
%TO.N,/SDA*%
X1957750000Y-2094000000D02*
X1957750000Y-2099500000D01*
X1967000000Y-2093250000D02*
X1966000000Y-2092250000D01*
X1957750000Y-2093500000D02*
X1957750000Y-2094000000D01*
X1956750000Y-2108000000D02*
X1957500000Y-2107250000D01*
X1957500000Y-2107250000D02*
X1957500000Y-2099750000D01*
X1957750000Y-2099500000D02*
X1957500000Y-2099750000D01*
X1957000000Y-2092250000D02*
X1956750000Y-2092500000D01*
X1966000000Y-2092250000D02*
X1957000000Y-2092250000D01*
X1955500000Y-2107750000D02*
X1955750000Y-2108000000D01*
X1956750000Y-2092500000D02*
X1957750000Y-2093500000D01*
X1955750000Y-2108000000D02*
X1956750000Y-2108000000D01*
%TO.N,/RESET*%
X1984250000Y-2100000000D02*
X1984250000Y-2100250000D01*
X1984500000Y-2096880000D02*
X1984500000Y-2099750000D01*
X1984000000Y-2100500000D02*
X1981250000Y-2100500000D01*
X1984500000Y-2099750000D02*
X1984250000Y-2100000000D01*
X1984250000Y-2100250000D02*
X1984000000Y-2100500000D01*
%TO.N,/MOSI*%
X1981500000Y-2105500000D02*
X1982750000Y-2105500000D01*
X1982750000Y-2105500000D02*
X1983250000Y-2105000000D01*
X1983250000Y-2105000000D02*
X1985250000Y-2103000000D01*
%TO.N,/MISO*%
X1983500000Y-2101500000D02*
X1981750000Y-2101500000D01*
X1981750000Y-2101500000D02*
X1981500000Y-2101750000D01*
%TD*%
M02*
